<?xml version="1.0" standalone="no"?>
 <!DOCTYPE svg PUBLIC "-//W3C//DTD SVG 1.1//EN" 
 "http://www.w3.org/Graphics/SVG/1.1/DTD/svg11.dtd"> 
<svg xmlns="http://www.w3.org/2000/svg" version="1.1" 
    width="29.7002cm" height="21.0007cm" viewBox="0 0 116930 82680 ">
<title>SVG Picture created as Single_Transistor_AMP-B.Cu.svg date 2017/06/16 00:09:14 </title>
  <desc>Picture generated by PCBNEW </desc>
<g style="fill:#000000; fill-opacity:1;stroke:#000000; stroke-opacity:1;
stroke-linecap:round; stroke-linejoin:round; "
 transform="translate(0 0) scale(1 1)">
</g>
<g style="fill:#000000; fill-opacity:0.0; 
stroke:#000000; stroke-width:-0.000393701; stroke-opacity:1; 
stroke-linecap:round; stroke-linejoin:round;">
</g>
<g style="fill:#000000; fill-opacity:1.0; 
stroke:#000000; stroke-width:0; stroke-opacity:1; 
stroke-linecap:round; stroke-linejoin:round;">
<circle cx="61000" cy="41000" r="800" /> 
</g>
<g style="fill:#000000; fill-opacity:1.0; 
stroke:#000000; stroke-width:39.3701; stroke-opacity:1; 
stroke-linecap:round; stroke-linejoin:round;">
</g>
<g style="fill:#000000; fill-opacity:1.0; 
stroke:#000000; stroke-width:0; stroke-opacity:1; 
stroke-linecap:round; stroke-linejoin:round;">
<polyline style="fill-rule:evenodd;"
points="45501,34251
46486,34251
46486,35236
45501,35236
45501,34251
" /> 
<circle cx="45994.1" cy="36712.6" r="492.126" /> 
</g>
<g style="fill:#000000; fill-opacity:1.0; 
stroke:#000000; stroke-width:39.3701; stroke-opacity:1; 
stroke-linecap:round; stroke-linejoin:round;">
</g>
<g style="fill:#000000; fill-opacity:1.0; 
stroke:#000000; stroke-width:0; stroke-opacity:1; 
stroke-linecap:round; stroke-linejoin:round;">
<polyline style="fill-rule:evenodd;"
points="66496,37145
65511,37145
65511,36161
66496,36161
66496,37145
" /> 
<circle cx="66003.9" cy="34685" r="492.126" /> 
</g>
<g style="fill:#000000; fill-opacity:1.0; 
stroke:#000000; stroke-width:39.3701; stroke-opacity:1; 
stroke-linecap:round; stroke-linejoin:round;">
</g>
<g style="fill:#000000; fill-opacity:1.0; 
stroke:#000000; stroke-width:0; stroke-opacity:1; 
stroke-linecap:round; stroke-linejoin:round;">
<circle cx="51720.5" cy="32088.6" r="196.85" /> 
</g>
<g style="fill:#000000; fill-opacity:1.0; 
stroke:#000000; stroke-width:39.3701; stroke-opacity:1; 
stroke-linecap:round; stroke-linejoin:round;">
</g>
<g style="fill:#000000; fill-opacity:1.0; 
stroke:#000000; stroke-width:0; stroke-opacity:1; 
stroke-linecap:round; stroke-linejoin:round;">
<circle cx="51220.5" cy="32588.6" r="196.85" /> 
</g>
<g style="fill:#000000; fill-opacity:1.0; 
stroke:#000000; stroke-width:39.3701; stroke-opacity:1; 
stroke-linecap:round; stroke-linejoin:round;">
</g>
<g style="fill:#000000; fill-opacity:1.0; 
stroke:#000000; stroke-width:0; stroke-opacity:1; 
stroke-linecap:round; stroke-linejoin:round;">
<polyline style="fill-rule:evenodd;"
points="51023,31785
51023,31391
51417,31391
51417,31785
51023,31785
" /> 
<circle cx="57000" cy="34000" r="275.591" /> 
</g>
<g style="fill:#000000; fill-opacity:1.0; 
stroke:#000000; stroke-width:39.3701; stroke-opacity:1; 
stroke-linecap:round; stroke-linejoin:round;">
</g>
<g style="fill:#000000; fill-opacity:1.0; 
stroke:#000000; stroke-width:551.181; stroke-opacity:1; 
stroke-linecap:round; stroke-linejoin:round;">
</g>
<g style="fill:#000000; fill-opacity:0.0; 
stroke:#000000; stroke-width:551.181; stroke-opacity:1; 
stroke-linecap:round; stroke-linejoin:round;">
<path d="M57000 37000
L57000 37000
" />
</g>
<g style="fill:#000000; fill-opacity:1.0; 
stroke:#000000; stroke-width:0; stroke-opacity:1; 
stroke-linecap:round; stroke-linejoin:round;">
<circle cx="59000" cy="37000" r="275.591" /> 
</g>
<g style="fill:#000000; fill-opacity:1.0; 
stroke:#000000; stroke-width:39.3701; stroke-opacity:1; 
stroke-linecap:round; stroke-linejoin:round;">
</g>
<g style="fill:#000000; fill-opacity:1.0; 
stroke:#000000; stroke-width:551.181; stroke-opacity:1; 
stroke-linecap:round; stroke-linejoin:round;">
</g>
<g style="fill:#000000; fill-opacity:0.0; 
stroke:#000000; stroke-width:551.181; stroke-opacity:1; 
stroke-linecap:round; stroke-linejoin:round;">
<path d="M59000 34000
L59000 34000
" />
</g>
<g style="fill:#000000; fill-opacity:1.0; 
stroke:#000000; stroke-width:0; stroke-opacity:1; 
stroke-linecap:round; stroke-linejoin:round;">
<circle cx="53129.9" cy="34000" r="275.591" /> 
</g>
<g style="fill:#000000; fill-opacity:1.0; 
stroke:#000000; stroke-width:39.3701; stroke-opacity:1; 
stroke-linecap:round; stroke-linejoin:round;">
</g>
<g style="fill:#000000; fill-opacity:1.0; 
stroke:#000000; stroke-width:551.181; stroke-opacity:1; 
stroke-linecap:round; stroke-linejoin:round;">
</g>
<g style="fill:#000000; fill-opacity:0.0; 
stroke:#000000; stroke-width:551.181; stroke-opacity:1; 
stroke-linecap:round; stroke-linejoin:round;">
<path d="M53129 37000
L53129 37000
" />
</g>
<g style="fill:#000000; fill-opacity:1.0; 
stroke:#000000; stroke-width:0; stroke-opacity:1; 
stroke-linecap:round; stroke-linejoin:round;">
<circle cx="55049.2" cy="37000" r="275.591" /> 
</g>
<g style="fill:#000000; fill-opacity:1.0; 
stroke:#000000; stroke-width:39.3701; stroke-opacity:1; 
stroke-linecap:round; stroke-linejoin:round;">
</g>
<g style="fill:#000000; fill-opacity:1.0; 
stroke:#000000; stroke-width:551.181; stroke-opacity:1; 
stroke-linecap:round; stroke-linejoin:round;">
</g>
<g style="fill:#000000; fill-opacity:0.0; 
stroke:#000000; stroke-width:551.181; stroke-opacity:1; 
stroke-linecap:round; stroke-linejoin:round;">
<path d="M55049 34000
L55049 34000
" />
</g>
<g style="fill:#000000; fill-opacity:1.0; 
stroke:#000000; stroke-width:0; stroke-opacity:1; 
stroke-linecap:round; stroke-linejoin:round;">
<circle cx="51000" cy="41000" r="800" /> 
</g>
<g style="fill:#000000; fill-opacity:1.0; 
stroke:#000000; stroke-width:39.3701; stroke-opacity:1; 
stroke-linecap:round; stroke-linejoin:round;">
</g>
<g style="fill:#000000; fill-opacity:1.0; 
stroke:#000000; stroke-width:0; stroke-opacity:1; 
stroke-linecap:round; stroke-linejoin:round;">
<circle cx="46525.6" cy="32096.5" r="393.701" /> 
</g>
<g style="fill:#000000; fill-opacity:1.0; 
stroke:#000000; stroke-width:39.3701; stroke-opacity:1; 
stroke-linecap:round; stroke-linejoin:round;">
</g>
<g style="fill:#000000; fill-opacity:1.0; 
stroke:#000000; stroke-width:0; stroke-opacity:1; 
stroke-linecap:round; stroke-linejoin:round;">
<circle cx="48494.1" cy="32096.5" r="393.701" /> 
</g>
<g style="fill:#000000; fill-opacity:1.0; 
stroke:#000000; stroke-width:39.3701; stroke-opacity:1; 
stroke-linecap:round; stroke-linejoin:round;">
</g>
<g style="fill:#000000; fill-opacity:1.0; 
stroke:#000000; stroke-width:0; stroke-opacity:1; 
stroke-linecap:round; stroke-linejoin:round;">
<circle cx="50482.3" cy="34773.6" r="393.701" /> 
</g>
<g style="fill:#000000; fill-opacity:1.0; 
stroke:#000000; stroke-width:39.3701; stroke-opacity:1; 
stroke-linecap:round; stroke-linejoin:round;">
</g>
<g style="fill:#000000; fill-opacity:1.0; 
stroke:#000000; stroke-width:0; stroke-opacity:1; 
stroke-linecap:round; stroke-linejoin:round;">
<circle cx="50482.3" cy="36742.1" r="393.701" /> 
</g>
<g style="fill:#000000; fill-opacity:1.0; 
stroke:#000000; stroke-width:39.3701; stroke-opacity:1; 
stroke-linecap:round; stroke-linejoin:round;">
</g>
<g style="fill:#000000; fill-opacity:1.0; 
stroke:#000000; stroke-width:0; stroke-opacity:1; 
stroke-linecap:round; stroke-linejoin:round;">
<circle cx="61683.1" cy="34685" r="393.701" /> 
</g>
<g style="fill:#000000; fill-opacity:1.0; 
stroke:#000000; stroke-width:39.3701; stroke-opacity:1; 
stroke-linecap:round; stroke-linejoin:round;">
</g>
<g style="fill:#000000; fill-opacity:1.0; 
stroke:#000000; stroke-width:0; stroke-opacity:1; 
stroke-linecap:round; stroke-linejoin:round;">
<circle cx="61683.1" cy="36653.5" r="393.701" /> 
</g>
<g style="fill:#000000; fill-opacity:1.0; 
stroke:#000000; stroke-width:39.3701; stroke-opacity:1; 
stroke-linecap:round; stroke-linejoin:round;">
</g>
<g style="fill:#000000; fill-opacity:1.0; 
stroke:#000000; stroke-width:275.591; stroke-opacity:1; 
stroke-linecap:round; stroke-linejoin:round;">
</g>
<g style="fill:#000000; fill-opacity:0.0; 
stroke:#000000; stroke-width:275.591; stroke-opacity:1; 
stroke-linecap:round; stroke-linejoin:round;">
<path d="M45994 34744
L45994 32627
" />
<path d="M45994 32627
L46525 32096
" />
</g>
<g style="fill:#000000; fill-opacity:0.0; 
stroke:#000000; stroke-width:196.85; stroke-opacity:1; 
stroke-linecap:round; stroke-linejoin:round;">
<path d="M57000 34000
L55049 34000
" />
<path d="M51720 32088
L53137 32088
" />
<path d="M53137 32088
L55049 34000
" />
<path d="M48494 32096
L51712 32096
" />
<path d="M51712 32096
L51720 32088
" />
</g>
<g style="fill:#000000; fill-opacity:0.0; 
stroke:#000000; stroke-width:275.591; stroke-opacity:1; 
stroke-linecap:round; stroke-linejoin:round;">
<path d="M51220 34035
L51220 33000
" />
<path d="M51220 33000
L51220 32588
" />
</g>
<g style="fill:#000000; fill-opacity:0.0; 
stroke:#000000; stroke-width:196.85; stroke-opacity:1; 
stroke-linecap:round; stroke-linejoin:round;">
<path d="M52129 33000
L51220 33000
" />
<path d="M53129 34000
L52129 33000
" />
</g>
<g style="fill:#000000; fill-opacity:0.0; 
stroke:#000000; stroke-width:275.591; stroke-opacity:1; 
stroke-linecap:round; stroke-linejoin:round;">
<path d="M50482 34773
L51220 34035
" />
<path d="M57588 31588
L59000 33000
" />
<path d="M59000 33000
L59000 34000
" />
<path d="M51220 31588
L57588 31588
" />
<path d="M59685 34685
L59000 34000
" />
<path d="M61683 34685
L59685 34685
" />
</g>
<g style="fill:#000000; fill-opacity:0.0; 
stroke:#000000; stroke-width:393.701; stroke-opacity:1; 
stroke-linecap:round; stroke-linejoin:round;">
<path d="M61683 36653
L66003 36653
" />
<path d="M55049 38102
L58649 38102
" />
<path d="M58649 38102
L59000 37751
" />
<path d="M59000 37751
L59000 37000
" />
<path d="M55049 38102
L55049 38950
" />
<path d="M55049 37000
L55049 38102
" />
<path d="M55049 38950
L53000 41000
" />
<path d="M53000 41000
L51000 41000
" />
</g>
<g style="fill:#000000; fill-opacity:1.0; 
stroke:#000000; stroke-width:98.4252; stroke-opacity:1; 
stroke-linecap:round; stroke-linejoin:round;">
<polyline style="fill-rule:evenodd;"
points="66039,30490
66920,31079
67509,31960
67721,33027
67721,39455
67317,41330
66241,42888
64642,43920
63466,44221
49026,44221
47190,43870
45652,42860
44613,41331
44580,41207
49950,41207
50110,41593
50404,41888
50790,42049
51207,42049
51593,41889
51791,41692
60379,41692
60473,41810
60824,41950
61201,41945
61526,41810
61620,41692
61000,41071
60379,41692
51791,41692
51888,41595
51950,41446
53000,41446
53170,41412
53315,41315
53806,40824
60049,40824
60054,41201
60189,41526
60307,41620
60928,41000
61071,41000
61692,41620
61810,41526
61950,41175
61945,40798
61810,40473
61692,40379
61071,41000
60928,41000
60307,40379
60189,40473
60049,40824
53806,40824
54322,40307
60379,40307
61000,40928
61620,40307
61526,40189
61175,40049
60798,40054
60473,40189
60379,40307
54322,40307
55364,39266
55461,39121
55495,38950
55495,38548
58649,38548
58820,38514
58965,38417
59315,38067
59412,37922
59446,37751
59446,37294
59524,37104
59524,36896
59477,36780
61040,36780
61137,37017
61318,37198
61554,37296
61810,37296
62046,37198
62146,37099
65257,37099
65257,37145
65275,37238
65329,37322
65412,37379
65511,37399
66496,37399
66588,37382
66673,37327
66730,37244
66750,37145
66750,36161
66732,36069
66678,35984
66594,35927
66496,35907
65511,35907
65419,35924
65334,35979
65277,36062
65257,36161
65257,36207
62146,36207
62047,36108
61811,36010
61555,36010
61319,36108
61138,36288
61040,36525
61040,36780
59477,36780
59445,36703
59297,36555
59104,36475
58896,36475
58703,36554
58555,36702
58475,36895
58475,37103
58553,37294
58553,37567
58464,37656
55495,37656
55495,37294
55569,37115
56592,37115
56668,37262
56794,37369
56884,37407
56949,37382
56949,37050
57050,37050
57050,37382
57115,37407
57205,37369
57331,37262
57407,37115
57383,37050
57050,37050
56949,37050
56616,37050
56592,37115
55569,37115
55573,37104
55574,36896
55569,36884
56592,36884
56616,36949
56949,36949
56949,36617
57050,36617
57050,36949
57383,36949
57407,36884
57331,36737
57205,36630
57115,36592
57050,36617
56949,36617
56884,36592
56794,36630
56668,36737
56592,36884
55569,36884
55494,36703
55346,36555
55154,36475
54945,36475
54752,36554
54604,36702
54524,36895
54524,37103
54603,37294
54603,38766
52815,40553
51950,40553
51889,40406
51595,40111
51209,39950
50792,39950
50406,40110
50111,40404
49950,40790
49950,41207
44580,41207
44278,40083
44278,37182
45596,37182
45652,37268
45891,37356
46145,37346
46335,37268
46391,37182
46350,37140
50155,37140
50200,37216
50403,37288
50618,37277
50764,37216
50808,37140
50784,37115
52722,37115
52798,37262
52924,37369
53014,37407
53079,37382
53079,37050
53180,37050
53180,37382
53245,37407
53335,37369
53461,37262
53536,37115
53513,37050
53180,37050
53079,37050
52746,37050
52722,37115
50784,37115
50482,36813
50155,37140
46350,37140
45994,36784
45596,37182
44278,37182
44278,37000
44278,37000
44278,37000
44278,36610
45349,36610
45359,36864
45438,37053
45524,37110
45922,36712
46065,36712
46463,37110
46550,37053
46638,36815
46632,36663
49936,36663
49947,36878
50007,37024
50083,37068
50410,36742
50554,36742
50880,37068
50956,37024
51006,36884
52722,36884
52746,36949
53079,36949
53079,36617
53180,36617
53180,36949
53513,36949
53536,36884
53461,36737
53335,36630
53245,36592
53180,36617
53079,36617
53014,36592
52924,36630
52798,36737
52722,36884
51006,36884
51028,36821
51017,36605
50956,36460
50880,36415
50554,36742
50410,36742
50083,36415
50007,36460
49936,36663
46632,36663
46628,36560
46550,36371
46507,36343
50155,36343
50482,36670
50808,36343
50764,36267
50561,36195
50346,36207
50200,36267
50155,36343
46507,36343
46463,36314
46065,36712
45922,36712
45524,36314
45438,36371
45349,36610
44278,36610
44278,36243
45596,36243
45994,36640
46391,36243
46335,36156
46096,36068
45842,36078
45652,36156
45596,36243
44278,36243
44278,34251
45247,34251
45247,35236
45265,35328
45319,35413
45403,35470
45501,35490
46486,35490
46578,35472
46663,35418
46720,35335
46740,35236
46740,34251
46722,34159
46668,34074
46585,34017
46486,33997
46381,33997
46381,32788
46430,32739
46652,32739
46889,32641
47070,32461
47168,32224
47168,32223
47851,32223
47948,32460
48129,32641
48365,32739
48621,32739
48857,32641
49038,32461
49045,32444
50797,32444
50774,32499
50774,32676
50833,32820
50833,33875
50577,34130
50354,34130
50118,34228
49937,34408
49839,34645
49839,34900
49936,35137
50117,35318
50353,35416
50609,35416
50845,35318
51027,35138
51125,34902
51125,34677
51494,34309
51578,34183
51607,34035
51607,33347
51985,33347
52605,33966
52605,34103
52684,34296
52832,34444
53025,34524
53233,34524
53426,34445
53574,34297
53654,34104
53654,33896
53575,33703
53427,33555
53234,33475
53096,33475
52375,32754
52262,32678
52129,32652
51666,32652
51666,32534
51808,32534
51972,32466
52003,32436
52993,32436
54528,33970
54524,33989
54524,34010
54564,34211
54678,34381
54848,34495
55049,34535
55250,34495
55420,34381
55442,34347
56605,34347
56702,34444
56895,34524
57103,34524
57296,34445
57444,34297
57524,34104
57524,33896
57445,33703
57297,33555
57104,33475
56896,33475
56703,33554
56605,33652
55442,33652
55420,33618
55250,33504
55049,33464
55012,33472
53516,31975
57428,31975
58612,33160
58612,33642
58515,33788
58475,33989
58475,34010
58515,34211
58628,34381
58799,34495
58984,34532
59411,34958
59536,35042
59685,35072
61160,35072
61318,35229
61554,35327
61810,35328
62046,35230
62122,35154
65606,35154
65662,35241
65901,35329
66155,35319
66345,35241
66401,35154
66003,34756
65606,35154
62122,35154
62227,35049
62325,34813
62326,34582
65359,34582
65369,34836
65447,35026
65534,35082
65932,34685
66075,34685
66473,35082
66559,35026
66648,34787
66638,34533
66559,34343
66473,34287
66075,34685
65932,34685
65534,34287
65447,34343
65359,34582
62326,34582
62326,34557
62228,34321
62122,34215
65606,34215
66003,34613
66401,34215
66345,34129
66106,34040
65852,34050
65662,34129
65606,34215
62122,34215
62047,34140
61811,34042
61555,34042
61319,34139
61160,34298
59845,34298
59521,33974
59484,33788
59387,33642
59387,33000
59357,32851
59273,32726
57862,31314
57736,31231
57588,31201
51580,31201
51516,31157
51417,31137
51023,31137
50931,31155
50846,31209
50789,31292
50769,31391
50769,31748
49046,31748
49039,31732
48858,31551
48622,31453
48366,31453
48130,31551
47949,31731
47851,31968
47851,32223
47168,32223
47168,31969
47070,31732
46890,31551
46654,31453
46398,31453
46161,31551
45980,31731
45882,31968
45882,32192
45720,32354
45636,32479
45607,32627
45607,33997
45501,33997
45409,34015
45324,34069
45267,34153
45247,34251
44278,34251
44278,33027
44490,31960
45079,31079
45960,30490
47027,30278
64972,30278
66039,30490
" /> 
</g> 
</svg>
