M48
;DRILL file {KiCad 4.0.6} date 06/16/17 19:06:14
;FORMAT={-:-/ absolute / metric / decimal}
FMAT,2
METRIC,TZ
T1C0.600
T2C0.700
T3C0.800
T4C0.900
T5C1.000
T6C1.200
T7C1.300
%
G90
G05
M71
T1
X143.51Y-105.41
X143.51Y-107.95
X144.78Y-106.68
X153.67Y-100.33
X153.67Y-102.87
X154.94Y-101.6
T2
X115.525Y-95.23
X121.285Y-95.25
X125.73Y-97.79
X133.35Y-97.79
X137.16Y-93.98
X137.16Y-101.6
X137.16Y-111.76
X137.16Y-119.38
X143.51Y-89.535
X143.51Y-97.155
X143.51Y-111.76
X143.51Y-119.38
X148.59Y-89.535
X148.59Y-97.155
X148.59Y-111.76
X148.59Y-119.38
X153.67Y-89.535
X153.67Y-97.155
X153.67Y-111.76
X153.67Y-119.38
X161.29Y-111.76
X161.29Y-119.38
T3
X134.66Y-106.68
X137.16Y-106.68
X143.55Y-101.6
X146.05Y-101.6
X166.37Y-105.41
X171.37Y-105.41
T4
X128.7Y-103.06
X128.7Y-105.6
T5
X161.29Y-100.33
X161.29Y-102.87
X161.29Y-105.41
X177.8Y-99.05
X177.8Y-101.6
X177.81Y-106.46
X177.84Y-109.02
X183.33Y-104.07
T6
X117.2Y-99.2
X117.2Y-104.2
X117.2Y-109.2
T7
X127.4Y-115.7
X132.4Y-115.7
T4
X132.15Y-88.955G85X132.15Y-90.055
G05
X134.67Y-88.955G85X134.67Y-90.055
G05
X137.16Y-88.985G85X137.16Y-90.085
G05
T0
M30
