G04 #@! TF.FileFunction,Copper,L1,Top,Signal*
%FSLAX46Y46*%
G04 Gerber Fmt 4.6, Leading zero omitted, Abs format (unit mm)*
G04 Created by KiCad (PCBNEW 4.0.6) date 06/16/17 19:06:25*
%MOMM*%
%LPD*%
G01*
G04 APERTURE LIST*
%ADD10C,0.100000*%
%ADD11C,2.500000*%
%ADD12R,2.500000X2.500000*%
%ADD13C,1.600000*%
%ADD14R,1.600000X1.600000*%
%ADD15R,1.800000X1.800000*%
%ADD16C,1.800000*%
%ADD17R,2.000000X1.300000*%
%ADD18O,2.000000X3.200000*%
%ADD19C,2.000000*%
%ADD20C,1.000000*%
%ADD21R,1.000000X1.000000*%
%ADD22O,1.800000X1.800000*%
%ADD23C,1.400000*%
%ADD24O,1.400000X1.400000*%
%ADD25C,0.900000*%
%ADD26C,0.700000*%
%ADD27C,0.200000*%
G04 APERTURE END LIST*
D10*
D11*
X117200000Y-104200000D03*
X117200000Y-109200000D03*
X117200000Y-99200000D03*
D12*
X127400000Y-115700000D03*
D11*
X132400000Y-115700000D03*
D13*
X134660000Y-106680000D03*
X137160000Y-106680000D03*
X143550000Y-101600000D03*
X146050000Y-101600000D03*
D14*
X166370000Y-105410000D03*
D13*
X171370000Y-105410000D03*
D15*
X128700000Y-105600000D03*
D16*
X128700000Y-103060000D03*
D17*
X121285000Y-95250000D03*
X115525000Y-95230000D03*
D18*
X134670000Y-89505000D03*
X132150000Y-89505000D03*
X137160000Y-89535000D03*
D19*
X177800000Y-99050000D03*
X177840000Y-109020000D03*
X177810000Y-106460000D03*
X177800000Y-101600000D03*
X183330000Y-104070000D03*
D20*
X144780000Y-106680000D03*
X143510000Y-107950000D03*
D21*
X143510000Y-105410000D03*
D20*
X154940000Y-101600000D03*
X153670000Y-102870000D03*
D21*
X153670000Y-100330000D03*
D15*
X161290000Y-100330000D03*
D22*
X161290000Y-102870000D03*
X161290000Y-105410000D03*
D23*
X133350000Y-97790000D03*
D24*
X125730000Y-97790000D03*
D23*
X137160000Y-93980000D03*
D24*
X137160000Y-101600000D03*
D23*
X137160000Y-111760000D03*
D24*
X137160000Y-119380000D03*
D23*
X143510000Y-89535000D03*
D24*
X143510000Y-97155000D03*
D23*
X143510000Y-111760000D03*
D24*
X143510000Y-119380000D03*
D23*
X148590000Y-89535000D03*
D24*
X148590000Y-97155000D03*
D23*
X148590000Y-111760000D03*
D24*
X148590000Y-119380000D03*
D23*
X153670000Y-89535000D03*
D24*
X153670000Y-97155000D03*
D23*
X153670000Y-111760000D03*
D24*
X153670000Y-119380000D03*
D23*
X161290000Y-111760000D03*
D24*
X161290000Y-119380000D03*
D25*
X117200000Y-104200000D02*
X121860000Y-108860000D01*
X121860000Y-108860000D02*
X132480000Y-108860000D01*
X132480000Y-108860000D02*
X134660000Y-106680000D01*
D26*
X144780000Y-106680000D02*
X137160000Y-106680000D01*
X137160000Y-111760000D02*
X137160000Y-106680000D01*
X137160000Y-101600000D02*
X137160000Y-106680000D01*
X143550000Y-101600000D02*
X143550000Y-97195000D01*
X143550000Y-97195000D02*
X143510000Y-97155000D01*
X143510000Y-105410000D02*
X143510000Y-101640000D01*
X143510000Y-101640000D02*
X143550000Y-101600000D01*
X149860000Y-101600000D02*
X148590000Y-101600000D01*
X148590000Y-101600000D02*
X147955000Y-101600000D01*
X148590000Y-111760000D02*
X148590000Y-101600000D01*
X153385998Y-101600000D02*
X149860000Y-101600000D01*
X148590000Y-97155000D02*
X148590000Y-98144949D01*
X148590000Y-98144949D02*
X149860000Y-99414949D01*
X149860000Y-99414949D02*
X149860000Y-101600000D01*
X154940000Y-101600000D02*
X153385998Y-101600000D01*
X146050000Y-101600000D02*
X147955000Y-101600000D01*
D25*
X161290000Y-105410000D02*
X161290000Y-111760000D01*
X166370000Y-105410000D02*
X161290000Y-105410000D01*
X177840000Y-109020000D02*
X177840000Y-106490000D01*
X177840000Y-106490000D02*
X177810000Y-106460000D01*
X177800000Y-101600000D02*
X177800000Y-99050000D01*
X177810000Y-106460000D02*
X172420000Y-106460000D01*
X172420000Y-106460000D02*
X171370000Y-105410000D01*
X177840000Y-109020000D02*
X177840000Y-99090000D01*
X177840000Y-99090000D02*
X177800000Y-99050000D01*
X114935000Y-113030000D02*
X129730000Y-113030000D01*
X129730000Y-113030000D02*
X132400000Y-115700000D01*
X132150000Y-89505000D02*
X114965000Y-89505000D01*
X114965000Y-89505000D02*
X113030000Y-91440000D01*
X113030000Y-91440000D02*
X113030000Y-111125000D01*
X113030000Y-111125000D02*
X114935000Y-113030000D01*
X134670000Y-89505000D02*
X132150000Y-89505000D01*
X117200000Y-99200000D02*
X117200000Y-96905000D01*
X117200000Y-96905000D02*
X115525000Y-95230000D01*
X115570000Y-95275000D02*
X115525000Y-95230000D01*
X137160000Y-96520000D02*
X135890000Y-97790000D01*
X135890000Y-97790000D02*
X133350000Y-97790000D01*
X137160000Y-93980000D02*
X137160000Y-96520000D01*
X137160000Y-93980000D02*
X137160000Y-89535000D01*
X137160000Y-89535000D02*
X143510000Y-89535000D01*
X165735000Y-90170000D02*
X165100000Y-89535000D01*
X165100000Y-89535000D02*
X143510000Y-89535000D01*
X165735000Y-100965000D02*
X165735000Y-90170000D01*
X163830000Y-102870000D02*
X165735000Y-100965000D01*
X161290000Y-102870000D02*
X163830000Y-102870000D01*
D26*
X143510000Y-111760000D02*
X143510000Y-107950000D01*
X153670000Y-111760000D02*
X153670000Y-102870000D01*
X153670000Y-97155000D02*
X153670000Y-100330000D01*
X161290000Y-100330000D02*
X153670000Y-100330000D01*
D25*
X125730000Y-97790000D02*
X125730000Y-100090000D01*
X125730000Y-100090000D02*
X128700000Y-103060000D01*
D27*
G36*
X167153584Y-85430101D02*
X171047839Y-88032159D01*
X173649899Y-91926415D01*
X174590124Y-96653247D01*
X174615866Y-96715394D01*
X174628990Y-96781373D01*
X174666363Y-96837306D01*
X174692106Y-96899455D01*
X174739674Y-96947022D01*
X174777046Y-97002954D01*
X174832979Y-97040327D01*
X174880546Y-97087894D01*
X174942694Y-97113637D01*
X174998627Y-97151010D01*
X175064603Y-97164133D01*
X175126753Y-97189877D01*
X175194026Y-97189877D01*
X175260000Y-97203000D01*
X184737000Y-97203000D01*
X184737000Y-111077000D01*
X175260000Y-111077000D01*
X175194026Y-111090123D01*
X175126753Y-111090123D01*
X175064603Y-111115867D01*
X174998627Y-111128990D01*
X174942694Y-111166363D01*
X174880546Y-111192106D01*
X174832979Y-111239673D01*
X174777046Y-111277046D01*
X174739674Y-111332978D01*
X174692106Y-111380545D01*
X174666363Y-111442694D01*
X174628990Y-111498627D01*
X174615866Y-111564606D01*
X174590124Y-111626753D01*
X173649899Y-116353585D01*
X171047839Y-120247841D01*
X167153584Y-122849899D01*
X162492732Y-123777000D01*
X121987268Y-123777000D01*
X118298430Y-123043244D01*
X115228212Y-120991790D01*
X114356162Y-119686675D01*
X136208168Y-119686675D01*
X136397981Y-120027581D01*
X136703805Y-120269899D01*
X136853328Y-120331815D01*
X137006000Y-120292090D01*
X137006000Y-119534000D01*
X137314000Y-119534000D01*
X137314000Y-120292090D01*
X137466672Y-120331815D01*
X137616195Y-120269899D01*
X137922019Y-120027581D01*
X138111832Y-119686675D01*
X142558168Y-119686675D01*
X142747981Y-120027581D01*
X143053805Y-120269899D01*
X143203328Y-120331815D01*
X143356000Y-120292090D01*
X143356000Y-119534000D01*
X143664000Y-119534000D01*
X143664000Y-120292090D01*
X143816672Y-120331815D01*
X143966195Y-120269899D01*
X144272019Y-120027581D01*
X144461832Y-119686675D01*
X147638168Y-119686675D01*
X147827981Y-120027581D01*
X148133805Y-120269899D01*
X148283328Y-120331815D01*
X148436000Y-120292090D01*
X148436000Y-119534000D01*
X148744000Y-119534000D01*
X148744000Y-120292090D01*
X148896672Y-120331815D01*
X149046195Y-120269899D01*
X149352019Y-120027581D01*
X149541832Y-119686675D01*
X152718168Y-119686675D01*
X152907981Y-120027581D01*
X153213805Y-120269899D01*
X153363328Y-120331815D01*
X153516000Y-120292090D01*
X153516000Y-119534000D01*
X153824000Y-119534000D01*
X153824000Y-120292090D01*
X153976672Y-120331815D01*
X154126195Y-120269899D01*
X154432019Y-120027581D01*
X154621832Y-119686675D01*
X160338168Y-119686675D01*
X160527981Y-120027581D01*
X160833805Y-120269899D01*
X160983328Y-120331815D01*
X161136000Y-120292090D01*
X161136000Y-119534000D01*
X161444000Y-119534000D01*
X161444000Y-120292090D01*
X161596672Y-120331815D01*
X161746195Y-120269899D01*
X162052019Y-120027581D01*
X162241832Y-119686675D01*
X162203088Y-119534000D01*
X161444000Y-119534000D01*
X161136000Y-119534000D01*
X160376912Y-119534000D01*
X160338168Y-119686675D01*
X154621832Y-119686675D01*
X154583088Y-119534000D01*
X153824000Y-119534000D01*
X153516000Y-119534000D01*
X152756912Y-119534000D01*
X152718168Y-119686675D01*
X149541832Y-119686675D01*
X149503088Y-119534000D01*
X148744000Y-119534000D01*
X148436000Y-119534000D01*
X147676912Y-119534000D01*
X147638168Y-119686675D01*
X144461832Y-119686675D01*
X144423088Y-119534000D01*
X143664000Y-119534000D01*
X143356000Y-119534000D01*
X142596912Y-119534000D01*
X142558168Y-119686675D01*
X138111832Y-119686675D01*
X138073088Y-119534000D01*
X137314000Y-119534000D01*
X137006000Y-119534000D01*
X136246912Y-119534000D01*
X136208168Y-119686675D01*
X114356162Y-119686675D01*
X113946335Y-119073325D01*
X136208168Y-119073325D01*
X136246912Y-119226000D01*
X137006000Y-119226000D01*
X137006000Y-118467910D01*
X137314000Y-118467910D01*
X137314000Y-119226000D01*
X138073088Y-119226000D01*
X138111832Y-119073325D01*
X142558168Y-119073325D01*
X142596912Y-119226000D01*
X143356000Y-119226000D01*
X143356000Y-118467910D01*
X143664000Y-118467910D01*
X143664000Y-119226000D01*
X144423088Y-119226000D01*
X144461832Y-119073325D01*
X147638168Y-119073325D01*
X147676912Y-119226000D01*
X148436000Y-119226000D01*
X148436000Y-118467910D01*
X148744000Y-118467910D01*
X148744000Y-119226000D01*
X149503088Y-119226000D01*
X149541832Y-119073325D01*
X152718168Y-119073325D01*
X152756912Y-119226000D01*
X153516000Y-119226000D01*
X153516000Y-118467910D01*
X153824000Y-118467910D01*
X153824000Y-119226000D01*
X154583088Y-119226000D01*
X154621832Y-119073325D01*
X160338168Y-119073325D01*
X160376912Y-119226000D01*
X161136000Y-119226000D01*
X161136000Y-118467910D01*
X161444000Y-118467910D01*
X161444000Y-119226000D01*
X162203088Y-119226000D01*
X162241832Y-119073325D01*
X162052019Y-118732419D01*
X161746195Y-118490101D01*
X161596672Y-118428185D01*
X161444000Y-118467910D01*
X161136000Y-118467910D01*
X160983328Y-118428185D01*
X160833805Y-118490101D01*
X160527981Y-118732419D01*
X160338168Y-119073325D01*
X154621832Y-119073325D01*
X154432019Y-118732419D01*
X154126195Y-118490101D01*
X153976672Y-118428185D01*
X153824000Y-118467910D01*
X153516000Y-118467910D01*
X153363328Y-118428185D01*
X153213805Y-118490101D01*
X152907981Y-118732419D01*
X152718168Y-119073325D01*
X149541832Y-119073325D01*
X149352019Y-118732419D01*
X149046195Y-118490101D01*
X148896672Y-118428185D01*
X148744000Y-118467910D01*
X148436000Y-118467910D01*
X148283328Y-118428185D01*
X148133805Y-118490101D01*
X147827981Y-118732419D01*
X147638168Y-119073325D01*
X144461832Y-119073325D01*
X144272019Y-118732419D01*
X143966195Y-118490101D01*
X143816672Y-118428185D01*
X143664000Y-118467910D01*
X143356000Y-118467910D01*
X143203328Y-118428185D01*
X143053805Y-118490101D01*
X142747981Y-118732419D01*
X142558168Y-119073325D01*
X138111832Y-119073325D01*
X137922019Y-118732419D01*
X137616195Y-118490101D01*
X137466672Y-118428185D01*
X137314000Y-118467910D01*
X137006000Y-118467910D01*
X136853328Y-118428185D01*
X136703805Y-118490101D01*
X136397981Y-118732419D01*
X136208168Y-119073325D01*
X113946335Y-119073325D01*
X113176755Y-117921570D01*
X112780409Y-115929000D01*
X125850000Y-115929000D01*
X125850000Y-117009673D01*
X125895672Y-117119936D01*
X125980063Y-117204328D01*
X126090326Y-117250000D01*
X127171000Y-117250000D01*
X127246000Y-117175000D01*
X127246000Y-115854000D01*
X127554000Y-115854000D01*
X127554000Y-117175000D01*
X127629000Y-117250000D01*
X128709674Y-117250000D01*
X128819937Y-117204328D01*
X128904328Y-117119936D01*
X128950000Y-117009673D01*
X128950000Y-115929000D01*
X128875000Y-115854000D01*
X127554000Y-115854000D01*
X127246000Y-115854000D01*
X125925000Y-115854000D01*
X125850000Y-115929000D01*
X112780409Y-115929000D01*
X112474348Y-114390327D01*
X125850000Y-114390327D01*
X125850000Y-115471000D01*
X125925000Y-115546000D01*
X127246000Y-115546000D01*
X127246000Y-114225000D01*
X127554000Y-114225000D01*
X127554000Y-115546000D01*
X128875000Y-115546000D01*
X128950000Y-115471000D01*
X128950000Y-114390327D01*
X128904328Y-114280064D01*
X128819937Y-114195672D01*
X128709674Y-114150000D01*
X127629000Y-114150000D01*
X127554000Y-114225000D01*
X127246000Y-114225000D01*
X127171000Y-114150000D01*
X126090326Y-114150000D01*
X125980063Y-114195672D01*
X125895672Y-114280064D01*
X125850000Y-114390327D01*
X112474348Y-114390327D01*
X112443000Y-114232732D01*
X112443000Y-112034238D01*
X114186881Y-113778119D01*
X114530121Y-114007465D01*
X114935000Y-114088000D01*
X129291762Y-114088000D01*
X130542315Y-115338553D01*
X130541679Y-116067958D01*
X130823946Y-116751097D01*
X131346154Y-117274217D01*
X132028800Y-117557676D01*
X132767958Y-117558321D01*
X133451097Y-117276054D01*
X133974217Y-116753846D01*
X134257676Y-116071200D01*
X134258321Y-115332042D01*
X133976054Y-114648903D01*
X133453846Y-114125783D01*
X132771200Y-113842324D01*
X132037922Y-113841684D01*
X130478119Y-112281881D01*
X130134879Y-112052535D01*
X129730000Y-111972000D01*
X115373238Y-111972000D01*
X114088000Y-110686762D01*
X114088000Y-110367764D01*
X116250025Y-110367764D01*
X116400093Y-110562977D01*
X116982572Y-110765338D01*
X117598151Y-110729389D01*
X117999907Y-110562977D01*
X118149975Y-110367764D01*
X117200000Y-109417789D01*
X116250025Y-110367764D01*
X114088000Y-110367764D01*
X114088000Y-108982572D01*
X115634662Y-108982572D01*
X115670611Y-109598151D01*
X115837023Y-109999907D01*
X116032236Y-110149975D01*
X116982211Y-109200000D01*
X117417789Y-109200000D01*
X118367764Y-110149975D01*
X118562977Y-109999907D01*
X118765338Y-109417428D01*
X118729389Y-108801849D01*
X118562977Y-108400093D01*
X118367764Y-108250025D01*
X117417789Y-109200000D01*
X116982211Y-109200000D01*
X116032236Y-108250025D01*
X115837023Y-108400093D01*
X115634662Y-108982572D01*
X114088000Y-108982572D01*
X114088000Y-108032236D01*
X116250025Y-108032236D01*
X117200000Y-108982211D01*
X118149975Y-108032236D01*
X117999907Y-107837023D01*
X117417428Y-107634662D01*
X116801849Y-107670611D01*
X116400093Y-107837023D01*
X116250025Y-108032236D01*
X114088000Y-108032236D01*
X114088000Y-96317273D01*
X114283820Y-96451071D01*
X114525000Y-96499911D01*
X115298673Y-96499911D01*
X116142000Y-97343238D01*
X116142000Y-97630837D01*
X115625783Y-98146154D01*
X115342324Y-98828800D01*
X115341679Y-99567958D01*
X115623946Y-100251097D01*
X116146154Y-100774217D01*
X116828800Y-101057676D01*
X117567958Y-101058321D01*
X118251097Y-100776054D01*
X118774217Y-100253846D01*
X119057676Y-99571200D01*
X119058321Y-98832042D01*
X118776054Y-98148903D01*
X118417777Y-97790000D01*
X124396375Y-97790000D01*
X124495941Y-98290550D01*
X124672000Y-98554042D01*
X124672000Y-100090000D01*
X124752535Y-100494879D01*
X124981881Y-100838119D01*
X127192010Y-103048248D01*
X127191739Y-103358644D01*
X127420835Y-103913097D01*
X127844672Y-104337674D01*
X127994769Y-104400000D01*
X127740327Y-104400000D01*
X127630064Y-104445672D01*
X127545672Y-104530063D01*
X127500000Y-104640326D01*
X127500000Y-105371000D01*
X127575000Y-105446000D01*
X128546000Y-105446000D01*
X128546000Y-105426000D01*
X128854000Y-105426000D01*
X128854000Y-105446000D01*
X129825000Y-105446000D01*
X129900000Y-105371000D01*
X129900000Y-104640326D01*
X129854328Y-104530063D01*
X129769936Y-104445672D01*
X129659673Y-104400000D01*
X129405865Y-104400000D01*
X129553097Y-104339165D01*
X129977674Y-103915328D01*
X130207737Y-103361276D01*
X130208261Y-102761356D01*
X129979165Y-102206903D01*
X129555328Y-101782326D01*
X129001276Y-101552263D01*
X128688228Y-101551990D01*
X126788000Y-99651762D01*
X126788000Y-98554042D01*
X126964059Y-98290550D01*
X127063625Y-97790000D01*
X126964059Y-97289450D01*
X126680521Y-96865104D01*
X126256175Y-96581566D01*
X125755625Y-96482000D01*
X125704375Y-96482000D01*
X125203825Y-96581566D01*
X124779479Y-96865104D01*
X124495941Y-97289450D01*
X124396375Y-97790000D01*
X118417777Y-97790000D01*
X118258000Y-97629944D01*
X118258000Y-96905000D01*
X118177465Y-96500121D01*
X117948119Y-96156881D01*
X117270238Y-95479000D01*
X119985000Y-95479000D01*
X119985000Y-95959673D01*
X120030672Y-96069936D01*
X120115063Y-96154328D01*
X120225326Y-96200000D01*
X121056000Y-96200000D01*
X121131000Y-96125000D01*
X121131000Y-95404000D01*
X121439000Y-95404000D01*
X121439000Y-96125000D01*
X121514000Y-96200000D01*
X122344674Y-96200000D01*
X122454937Y-96154328D01*
X122539328Y-96069936D01*
X122585000Y-95959673D01*
X122585000Y-95479000D01*
X122510000Y-95404000D01*
X121439000Y-95404000D01*
X121131000Y-95404000D01*
X120060000Y-95404000D01*
X119985000Y-95479000D01*
X117270238Y-95479000D01*
X117144911Y-95353673D01*
X117144911Y-94580000D01*
X117137447Y-94540327D01*
X119985000Y-94540327D01*
X119985000Y-95021000D01*
X120060000Y-95096000D01*
X121131000Y-95096000D01*
X121131000Y-94375000D01*
X121439000Y-94375000D01*
X121439000Y-95096000D01*
X122510000Y-95096000D01*
X122585000Y-95021000D01*
X122585000Y-94540327D01*
X122539328Y-94430064D01*
X122454937Y-94345672D01*
X122344674Y-94300000D01*
X121514000Y-94300000D01*
X121439000Y-94375000D01*
X121131000Y-94375000D01*
X121056000Y-94300000D01*
X120225326Y-94300000D01*
X120115063Y-94345672D01*
X120030672Y-94430064D01*
X119985000Y-94540327D01*
X117137447Y-94540327D01*
X117102516Y-94354689D01*
X116969357Y-94147754D01*
X116766180Y-94008929D01*
X116525000Y-93960089D01*
X114525000Y-93960089D01*
X114299689Y-94002484D01*
X114092754Y-94135643D01*
X114088000Y-94142601D01*
X114088000Y-91878238D01*
X115403238Y-90563000D01*
X130624498Y-90563000D01*
X130664402Y-90763612D01*
X131012972Y-91285285D01*
X131534645Y-91633855D01*
X132150000Y-91756257D01*
X132765355Y-91633855D01*
X133287028Y-91285285D01*
X133410000Y-91101244D01*
X133532972Y-91285285D01*
X134054645Y-91633855D01*
X134670000Y-91756257D01*
X135285355Y-91633855D01*
X135807028Y-91285285D01*
X135904977Y-91138693D01*
X136022972Y-91315285D01*
X136102000Y-91368090D01*
X136102000Y-93187976D01*
X136051778Y-93238110D01*
X135852228Y-93718681D01*
X135851774Y-94239036D01*
X136050485Y-94719954D01*
X136102000Y-94771559D01*
X136102000Y-96081762D01*
X135451762Y-96732000D01*
X134142024Y-96732000D01*
X134091890Y-96681778D01*
X133611319Y-96482228D01*
X133090964Y-96481774D01*
X132610046Y-96680485D01*
X132241778Y-97048110D01*
X132042228Y-97528681D01*
X132041774Y-98049036D01*
X132240485Y-98529954D01*
X132608110Y-98898222D01*
X133088681Y-99097772D01*
X133609036Y-99098226D01*
X134089954Y-98899515D01*
X134141559Y-98848000D01*
X135890000Y-98848000D01*
X136294879Y-98767465D01*
X136638119Y-98538119D01*
X137908119Y-97268119D01*
X138137465Y-96924880D01*
X138218000Y-96520000D01*
X138218000Y-94772024D01*
X138268222Y-94721890D01*
X138467772Y-94241319D01*
X138468226Y-93720964D01*
X138269515Y-93240046D01*
X138218000Y-93188441D01*
X138218000Y-91368090D01*
X138297028Y-91315285D01*
X138645598Y-90793612D01*
X138685502Y-90593000D01*
X142717976Y-90593000D01*
X142768110Y-90643222D01*
X143248681Y-90842772D01*
X143769036Y-90843226D01*
X144249954Y-90644515D01*
X144301559Y-90593000D01*
X147797976Y-90593000D01*
X147848110Y-90643222D01*
X148328681Y-90842772D01*
X148849036Y-90843226D01*
X149329954Y-90644515D01*
X149381559Y-90593000D01*
X152877976Y-90593000D01*
X152928110Y-90643222D01*
X153408681Y-90842772D01*
X153929036Y-90843226D01*
X154409954Y-90644515D01*
X154461559Y-90593000D01*
X164661762Y-90593000D01*
X164677000Y-90608238D01*
X164677000Y-100526762D01*
X163391762Y-101812000D01*
X162391480Y-101812000D01*
X162415311Y-101807516D01*
X162622246Y-101674357D01*
X162761071Y-101471180D01*
X162809911Y-101230000D01*
X162809911Y-99430000D01*
X162767516Y-99204689D01*
X162634357Y-98997754D01*
X162431180Y-98858929D01*
X162190000Y-98810089D01*
X160390000Y-98810089D01*
X160164689Y-98852484D01*
X159957754Y-98985643D01*
X159818929Y-99188820D01*
X159781834Y-99372000D01*
X154628000Y-99372000D01*
X154628000Y-98055977D01*
X154878434Y-97681175D01*
X154978000Y-97180625D01*
X154978000Y-97129375D01*
X154878434Y-96628825D01*
X154594896Y-96204479D01*
X154170550Y-95920941D01*
X153670000Y-95821375D01*
X153169450Y-95920941D01*
X152745104Y-96204479D01*
X152461566Y-96628825D01*
X152362000Y-97129375D01*
X152362000Y-97180625D01*
X152461566Y-97681175D01*
X152712000Y-98055977D01*
X152712000Y-99423335D01*
X152598929Y-99588820D01*
X152550089Y-99830000D01*
X152550089Y-100642000D01*
X150818000Y-100642000D01*
X150818000Y-99414949D01*
X150745077Y-99048338D01*
X150537408Y-98737541D01*
X149671305Y-97871438D01*
X149798434Y-97681175D01*
X149898000Y-97180625D01*
X149898000Y-97129375D01*
X149798434Y-96628825D01*
X149514896Y-96204479D01*
X149090550Y-95920941D01*
X148590000Y-95821375D01*
X148089450Y-95920941D01*
X147665104Y-96204479D01*
X147381566Y-96628825D01*
X147282000Y-97129375D01*
X147282000Y-97180625D01*
X147381566Y-97681175D01*
X147632000Y-98055977D01*
X147632000Y-98144949D01*
X147704923Y-98511560D01*
X147912592Y-98822357D01*
X148902000Y-99811765D01*
X148902000Y-100642000D01*
X147083147Y-100642000D01*
X146848609Y-100407052D01*
X146331297Y-100192245D01*
X145771160Y-100191756D01*
X145253474Y-100405660D01*
X144857052Y-100801391D01*
X144800126Y-100938485D01*
X144744340Y-100803474D01*
X144508000Y-100566721D01*
X144508000Y-97996113D01*
X144718434Y-97681175D01*
X144818000Y-97180625D01*
X144818000Y-97129375D01*
X144718434Y-96628825D01*
X144434896Y-96204479D01*
X144010550Y-95920941D01*
X143510000Y-95821375D01*
X143009450Y-95920941D01*
X142585104Y-96204479D01*
X142301566Y-96628825D01*
X142202000Y-97129375D01*
X142202000Y-97180625D01*
X142301566Y-97681175D01*
X142585104Y-98105521D01*
X142592000Y-98110129D01*
X142592000Y-100566853D01*
X142357052Y-100801391D01*
X142142245Y-101318703D01*
X142141756Y-101878840D01*
X142355660Y-102396526D01*
X142552000Y-102593209D01*
X142552000Y-104503335D01*
X142438929Y-104668820D01*
X142390089Y-104910000D01*
X142390089Y-105722000D01*
X138193147Y-105722000D01*
X138118000Y-105646721D01*
X138118000Y-102500977D01*
X138368434Y-102126175D01*
X138468000Y-101625625D01*
X138468000Y-101574375D01*
X138368434Y-101073825D01*
X138084896Y-100649479D01*
X137660550Y-100365941D01*
X137160000Y-100266375D01*
X136659450Y-100365941D01*
X136235104Y-100649479D01*
X135951566Y-101073825D01*
X135852000Y-101574375D01*
X135852000Y-101625625D01*
X135951566Y-102126175D01*
X136202000Y-102500977D01*
X136202000Y-105646853D01*
X135967052Y-105881391D01*
X135910126Y-106018485D01*
X135854340Y-105883474D01*
X135458609Y-105487052D01*
X134941297Y-105272245D01*
X134381160Y-105271756D01*
X133863474Y-105485660D01*
X133467052Y-105881391D01*
X133252245Y-106398703D01*
X133252077Y-106591685D01*
X132041762Y-107802000D01*
X122298238Y-107802000D01*
X120325238Y-105829000D01*
X127500000Y-105829000D01*
X127500000Y-106559674D01*
X127545672Y-106669937D01*
X127630064Y-106754328D01*
X127740327Y-106800000D01*
X128471000Y-106800000D01*
X128546000Y-106725000D01*
X128546000Y-105754000D01*
X128854000Y-105754000D01*
X128854000Y-106725000D01*
X128929000Y-106800000D01*
X129659673Y-106800000D01*
X129769936Y-106754328D01*
X129854328Y-106669937D01*
X129900000Y-106559674D01*
X129900000Y-105829000D01*
X129825000Y-105754000D01*
X128854000Y-105754000D01*
X128546000Y-105754000D01*
X127575000Y-105754000D01*
X127500000Y-105829000D01*
X120325238Y-105829000D01*
X119057685Y-104561447D01*
X119058321Y-103832042D01*
X118776054Y-103148903D01*
X118253846Y-102625783D01*
X117571200Y-102342324D01*
X116832042Y-102341679D01*
X116148903Y-102623946D01*
X115625783Y-103146154D01*
X115342324Y-103828800D01*
X115341679Y-104567958D01*
X115623946Y-105251097D01*
X116146154Y-105774217D01*
X116828800Y-106057676D01*
X117562078Y-106058316D01*
X121111881Y-109608119D01*
X121455120Y-109837465D01*
X121860000Y-109918000D01*
X132480000Y-109918000D01*
X132884879Y-109837465D01*
X133228119Y-109608119D01*
X134748160Y-108088078D01*
X134938840Y-108088244D01*
X135456526Y-107874340D01*
X135852948Y-107478609D01*
X135909874Y-107341515D01*
X135965660Y-107476526D01*
X136202000Y-107713279D01*
X136202000Y-110868150D01*
X136051778Y-111018110D01*
X135852228Y-111498681D01*
X135851774Y-112019036D01*
X136050485Y-112499954D01*
X136418110Y-112868222D01*
X136898681Y-113067772D01*
X137419036Y-113068226D01*
X137899954Y-112869515D01*
X138268222Y-112501890D01*
X138467772Y-112021319D01*
X138468226Y-111500964D01*
X138269515Y-111020046D01*
X138118000Y-110868266D01*
X138118000Y-107713147D01*
X138193279Y-107638000D01*
X142439829Y-107638000D01*
X142402193Y-107728638D01*
X142401808Y-108169428D01*
X142552000Y-108532920D01*
X142552000Y-110868150D01*
X142401778Y-111018110D01*
X142202228Y-111498681D01*
X142201774Y-112019036D01*
X142400485Y-112499954D01*
X142768110Y-112868222D01*
X143248681Y-113067772D01*
X143769036Y-113068226D01*
X144249954Y-112869515D01*
X144618222Y-112501890D01*
X144817772Y-112021319D01*
X144818226Y-111500964D01*
X144619515Y-111020046D01*
X144468000Y-110868266D01*
X144468000Y-108532138D01*
X144617807Y-108171362D01*
X144618142Y-107787859D01*
X144999428Y-107788192D01*
X145406812Y-107619864D01*
X145718769Y-107308451D01*
X145887807Y-106901362D01*
X145888192Y-106460572D01*
X145719864Y-106053188D01*
X145408451Y-105741231D01*
X145001362Y-105572193D01*
X144629911Y-105571869D01*
X144629911Y-104910000D01*
X144587516Y-104684689D01*
X144468000Y-104498956D01*
X144468000Y-102673078D01*
X144742948Y-102398609D01*
X144799874Y-102261515D01*
X144855660Y-102396526D01*
X145251391Y-102792948D01*
X145768703Y-103007755D01*
X146328840Y-103008244D01*
X146846526Y-102794340D01*
X147083279Y-102558000D01*
X147632000Y-102558000D01*
X147632000Y-110868150D01*
X147481778Y-111018110D01*
X147282228Y-111498681D01*
X147281774Y-112019036D01*
X147480485Y-112499954D01*
X147848110Y-112868222D01*
X148328681Y-113067772D01*
X148849036Y-113068226D01*
X149329954Y-112869515D01*
X149698222Y-112501890D01*
X149897772Y-112021319D01*
X149898226Y-111500964D01*
X149699515Y-111020046D01*
X149548000Y-110868266D01*
X149548000Y-102558000D01*
X152599829Y-102558000D01*
X152562193Y-102648638D01*
X152561808Y-103089428D01*
X152712000Y-103452920D01*
X152712000Y-110868150D01*
X152561778Y-111018110D01*
X152362228Y-111498681D01*
X152361774Y-112019036D01*
X152560485Y-112499954D01*
X152928110Y-112868222D01*
X153408681Y-113067772D01*
X153929036Y-113068226D01*
X154409954Y-112869515D01*
X154778222Y-112501890D01*
X154977772Y-112021319D01*
X154978226Y-111500964D01*
X154779515Y-111020046D01*
X154628000Y-110868266D01*
X154628000Y-103452138D01*
X154777807Y-103091362D01*
X154778142Y-102707859D01*
X155159428Y-102708192D01*
X155566812Y-102539864D01*
X155878769Y-102228451D01*
X156047807Y-101821362D01*
X156048192Y-101380572D01*
X156009942Y-101288000D01*
X159781002Y-101288000D01*
X159812484Y-101455311D01*
X159945643Y-101662246D01*
X160148820Y-101801071D01*
X160198911Y-101811215D01*
X159896790Y-102263370D01*
X159782000Y-102840457D01*
X159782000Y-102899543D01*
X159896790Y-103476630D01*
X160223683Y-103965860D01*
X160484302Y-104140000D01*
X160223683Y-104314140D01*
X159896790Y-104803370D01*
X159782000Y-105380457D01*
X159782000Y-105439543D01*
X159896790Y-106016630D01*
X160223683Y-106505860D01*
X160232000Y-106511417D01*
X160232000Y-110967976D01*
X160181778Y-111018110D01*
X159982228Y-111498681D01*
X159981774Y-112019036D01*
X160180485Y-112499954D01*
X160548110Y-112868222D01*
X161028681Y-113067772D01*
X161549036Y-113068226D01*
X162029954Y-112869515D01*
X162398222Y-112501890D01*
X162597772Y-112021319D01*
X162598226Y-111500964D01*
X162399515Y-111020046D01*
X162348000Y-110968441D01*
X162348000Y-106511417D01*
X162356317Y-106505860D01*
X162381614Y-106468000D01*
X165013519Y-106468000D01*
X165125643Y-106642246D01*
X165328820Y-106781071D01*
X165570000Y-106829911D01*
X167170000Y-106829911D01*
X167395311Y-106787516D01*
X167602246Y-106654357D01*
X167741071Y-106451180D01*
X167789911Y-106210000D01*
X167789911Y-105688840D01*
X169961756Y-105688840D01*
X170175660Y-106206526D01*
X170571391Y-106602948D01*
X171088703Y-106817755D01*
X171281685Y-106817923D01*
X171671881Y-107208119D01*
X172015120Y-107437465D01*
X172420000Y-107518000D01*
X176594081Y-107518000D01*
X176782000Y-107706247D01*
X176782000Y-107804081D01*
X176477598Y-108107952D01*
X176232279Y-108698746D01*
X176231721Y-109338448D01*
X176476009Y-109929669D01*
X176927952Y-110382402D01*
X177518746Y-110627721D01*
X178158448Y-110628279D01*
X178749669Y-110383991D01*
X179202402Y-109932048D01*
X179447721Y-109341254D01*
X179448279Y-108701552D01*
X179203991Y-108110331D01*
X178898000Y-107803805D01*
X178898000Y-107645971D01*
X179172402Y-107372048D01*
X179417721Y-106781254D01*
X179418279Y-106141552D01*
X179173991Y-105550331D01*
X178898000Y-105273858D01*
X178898000Y-105056379D01*
X182561410Y-105056379D01*
X182680774Y-105225584D01*
X183172416Y-105386068D01*
X183688048Y-105346193D01*
X183979226Y-105225584D01*
X184098590Y-105056379D01*
X183330000Y-104287789D01*
X182561410Y-105056379D01*
X178898000Y-105056379D01*
X178898000Y-103912416D01*
X182013932Y-103912416D01*
X182053807Y-104428048D01*
X182174416Y-104719226D01*
X182343621Y-104838590D01*
X183112211Y-104070000D01*
X183547789Y-104070000D01*
X184316379Y-104838590D01*
X184485584Y-104719226D01*
X184646068Y-104227584D01*
X184606193Y-103711952D01*
X184485584Y-103420774D01*
X184316379Y-103301410D01*
X183547789Y-104070000D01*
X183112211Y-104070000D01*
X182343621Y-103301410D01*
X182174416Y-103420774D01*
X182013932Y-103912416D01*
X178898000Y-103912416D01*
X178898000Y-103083621D01*
X182561410Y-103083621D01*
X183330000Y-103852211D01*
X184098590Y-103083621D01*
X183979226Y-102914416D01*
X183487584Y-102753932D01*
X182971952Y-102793807D01*
X182680774Y-102914416D01*
X182561410Y-103083621D01*
X178898000Y-103083621D01*
X178898000Y-102775989D01*
X179162402Y-102512048D01*
X179407721Y-101921254D01*
X179408279Y-101281552D01*
X179163991Y-100690331D01*
X178898000Y-100423875D01*
X178898000Y-100225989D01*
X179162402Y-99962048D01*
X179407721Y-99371254D01*
X179408279Y-98731552D01*
X179163991Y-98140331D01*
X178712048Y-97687598D01*
X178121254Y-97442279D01*
X177481552Y-97441721D01*
X176890331Y-97686009D01*
X176437598Y-98137952D01*
X176192279Y-98728746D01*
X176191721Y-99368448D01*
X176436009Y-99959669D01*
X176742000Y-100266195D01*
X176742000Y-100384081D01*
X176437598Y-100687952D01*
X176192279Y-101278746D01*
X176191721Y-101918448D01*
X176436009Y-102509669D01*
X176782000Y-102856265D01*
X176782000Y-105214134D01*
X176593805Y-105402000D01*
X172858238Y-105402000D01*
X172778078Y-105321840D01*
X172778244Y-105131160D01*
X172564340Y-104613474D01*
X172168609Y-104217052D01*
X171651297Y-104002245D01*
X171091160Y-104001756D01*
X170573474Y-104215660D01*
X170177052Y-104611391D01*
X169962245Y-105128703D01*
X169961756Y-105688840D01*
X167789911Y-105688840D01*
X167789911Y-104610000D01*
X167747516Y-104384689D01*
X167614357Y-104177754D01*
X167411180Y-104038929D01*
X167170000Y-103990089D01*
X165570000Y-103990089D01*
X165344689Y-104032484D01*
X165137754Y-104165643D01*
X165010422Y-104352000D01*
X162381614Y-104352000D01*
X162356317Y-104314140D01*
X162095698Y-104140000D01*
X162356317Y-103965860D01*
X162381614Y-103928000D01*
X163830000Y-103928000D01*
X164234879Y-103847465D01*
X164578119Y-103618119D01*
X166483119Y-101713119D01*
X166712465Y-101369879D01*
X166793000Y-100965000D01*
X166793000Y-90170000D01*
X166712465Y-89765121D01*
X166483119Y-89421881D01*
X165848119Y-88786881D01*
X165504879Y-88557535D01*
X165100000Y-88477000D01*
X154462024Y-88477000D01*
X154411890Y-88426778D01*
X153931319Y-88227228D01*
X153410964Y-88226774D01*
X152930046Y-88425485D01*
X152878441Y-88477000D01*
X149382024Y-88477000D01*
X149331890Y-88426778D01*
X148851319Y-88227228D01*
X148330964Y-88226774D01*
X147850046Y-88425485D01*
X147798441Y-88477000D01*
X144302024Y-88477000D01*
X144251890Y-88426778D01*
X143771319Y-88227228D01*
X143250964Y-88226774D01*
X142770046Y-88425485D01*
X142718441Y-88477000D01*
X138685502Y-88477000D01*
X138645598Y-88276388D01*
X138297028Y-87754715D01*
X137775355Y-87406145D01*
X137160000Y-87283743D01*
X136544645Y-87406145D01*
X136022972Y-87754715D01*
X135925023Y-87901307D01*
X135807028Y-87724715D01*
X135285355Y-87376145D01*
X134670000Y-87253743D01*
X134054645Y-87376145D01*
X133532972Y-87724715D01*
X133410000Y-87908756D01*
X133287028Y-87724715D01*
X132765355Y-87376145D01*
X132150000Y-87253743D01*
X131534645Y-87376145D01*
X131012972Y-87724715D01*
X130664402Y-88246388D01*
X130624498Y-88447000D01*
X114965000Y-88447000D01*
X114560120Y-88527535D01*
X114271070Y-88720673D01*
X115228212Y-87288210D01*
X118298430Y-85236756D01*
X121987268Y-84503000D01*
X162492732Y-84503000D01*
X167153584Y-85430101D01*
X167153584Y-85430101D01*
G37*
X167153584Y-85430101D02*
X171047839Y-88032159D01*
X173649899Y-91926415D01*
X174590124Y-96653247D01*
X174615866Y-96715394D01*
X174628990Y-96781373D01*
X174666363Y-96837306D01*
X174692106Y-96899455D01*
X174739674Y-96947022D01*
X174777046Y-97002954D01*
X174832979Y-97040327D01*
X174880546Y-97087894D01*
X174942694Y-97113637D01*
X174998627Y-97151010D01*
X175064603Y-97164133D01*
X175126753Y-97189877D01*
X175194026Y-97189877D01*
X175260000Y-97203000D01*
X184737000Y-97203000D01*
X184737000Y-111077000D01*
X175260000Y-111077000D01*
X175194026Y-111090123D01*
X175126753Y-111090123D01*
X175064603Y-111115867D01*
X174998627Y-111128990D01*
X174942694Y-111166363D01*
X174880546Y-111192106D01*
X174832979Y-111239673D01*
X174777046Y-111277046D01*
X174739674Y-111332978D01*
X174692106Y-111380545D01*
X174666363Y-111442694D01*
X174628990Y-111498627D01*
X174615866Y-111564606D01*
X174590124Y-111626753D01*
X173649899Y-116353585D01*
X171047839Y-120247841D01*
X167153584Y-122849899D01*
X162492732Y-123777000D01*
X121987268Y-123777000D01*
X118298430Y-123043244D01*
X115228212Y-120991790D01*
X114356162Y-119686675D01*
X136208168Y-119686675D01*
X136397981Y-120027581D01*
X136703805Y-120269899D01*
X136853328Y-120331815D01*
X137006000Y-120292090D01*
X137006000Y-119534000D01*
X137314000Y-119534000D01*
X137314000Y-120292090D01*
X137466672Y-120331815D01*
X137616195Y-120269899D01*
X137922019Y-120027581D01*
X138111832Y-119686675D01*
X142558168Y-119686675D01*
X142747981Y-120027581D01*
X143053805Y-120269899D01*
X143203328Y-120331815D01*
X143356000Y-120292090D01*
X143356000Y-119534000D01*
X143664000Y-119534000D01*
X143664000Y-120292090D01*
X143816672Y-120331815D01*
X143966195Y-120269899D01*
X144272019Y-120027581D01*
X144461832Y-119686675D01*
X147638168Y-119686675D01*
X147827981Y-120027581D01*
X148133805Y-120269899D01*
X148283328Y-120331815D01*
X148436000Y-120292090D01*
X148436000Y-119534000D01*
X148744000Y-119534000D01*
X148744000Y-120292090D01*
X148896672Y-120331815D01*
X149046195Y-120269899D01*
X149352019Y-120027581D01*
X149541832Y-119686675D01*
X152718168Y-119686675D01*
X152907981Y-120027581D01*
X153213805Y-120269899D01*
X153363328Y-120331815D01*
X153516000Y-120292090D01*
X153516000Y-119534000D01*
X153824000Y-119534000D01*
X153824000Y-120292090D01*
X153976672Y-120331815D01*
X154126195Y-120269899D01*
X154432019Y-120027581D01*
X154621832Y-119686675D01*
X160338168Y-119686675D01*
X160527981Y-120027581D01*
X160833805Y-120269899D01*
X160983328Y-120331815D01*
X161136000Y-120292090D01*
X161136000Y-119534000D01*
X161444000Y-119534000D01*
X161444000Y-120292090D01*
X161596672Y-120331815D01*
X161746195Y-120269899D01*
X162052019Y-120027581D01*
X162241832Y-119686675D01*
X162203088Y-119534000D01*
X161444000Y-119534000D01*
X161136000Y-119534000D01*
X160376912Y-119534000D01*
X160338168Y-119686675D01*
X154621832Y-119686675D01*
X154583088Y-119534000D01*
X153824000Y-119534000D01*
X153516000Y-119534000D01*
X152756912Y-119534000D01*
X152718168Y-119686675D01*
X149541832Y-119686675D01*
X149503088Y-119534000D01*
X148744000Y-119534000D01*
X148436000Y-119534000D01*
X147676912Y-119534000D01*
X147638168Y-119686675D01*
X144461832Y-119686675D01*
X144423088Y-119534000D01*
X143664000Y-119534000D01*
X143356000Y-119534000D01*
X142596912Y-119534000D01*
X142558168Y-119686675D01*
X138111832Y-119686675D01*
X138073088Y-119534000D01*
X137314000Y-119534000D01*
X137006000Y-119534000D01*
X136246912Y-119534000D01*
X136208168Y-119686675D01*
X114356162Y-119686675D01*
X113946335Y-119073325D01*
X136208168Y-119073325D01*
X136246912Y-119226000D01*
X137006000Y-119226000D01*
X137006000Y-118467910D01*
X137314000Y-118467910D01*
X137314000Y-119226000D01*
X138073088Y-119226000D01*
X138111832Y-119073325D01*
X142558168Y-119073325D01*
X142596912Y-119226000D01*
X143356000Y-119226000D01*
X143356000Y-118467910D01*
X143664000Y-118467910D01*
X143664000Y-119226000D01*
X144423088Y-119226000D01*
X144461832Y-119073325D01*
X147638168Y-119073325D01*
X147676912Y-119226000D01*
X148436000Y-119226000D01*
X148436000Y-118467910D01*
X148744000Y-118467910D01*
X148744000Y-119226000D01*
X149503088Y-119226000D01*
X149541832Y-119073325D01*
X152718168Y-119073325D01*
X152756912Y-119226000D01*
X153516000Y-119226000D01*
X153516000Y-118467910D01*
X153824000Y-118467910D01*
X153824000Y-119226000D01*
X154583088Y-119226000D01*
X154621832Y-119073325D01*
X160338168Y-119073325D01*
X160376912Y-119226000D01*
X161136000Y-119226000D01*
X161136000Y-118467910D01*
X161444000Y-118467910D01*
X161444000Y-119226000D01*
X162203088Y-119226000D01*
X162241832Y-119073325D01*
X162052019Y-118732419D01*
X161746195Y-118490101D01*
X161596672Y-118428185D01*
X161444000Y-118467910D01*
X161136000Y-118467910D01*
X160983328Y-118428185D01*
X160833805Y-118490101D01*
X160527981Y-118732419D01*
X160338168Y-119073325D01*
X154621832Y-119073325D01*
X154432019Y-118732419D01*
X154126195Y-118490101D01*
X153976672Y-118428185D01*
X153824000Y-118467910D01*
X153516000Y-118467910D01*
X153363328Y-118428185D01*
X153213805Y-118490101D01*
X152907981Y-118732419D01*
X152718168Y-119073325D01*
X149541832Y-119073325D01*
X149352019Y-118732419D01*
X149046195Y-118490101D01*
X148896672Y-118428185D01*
X148744000Y-118467910D01*
X148436000Y-118467910D01*
X148283328Y-118428185D01*
X148133805Y-118490101D01*
X147827981Y-118732419D01*
X147638168Y-119073325D01*
X144461832Y-119073325D01*
X144272019Y-118732419D01*
X143966195Y-118490101D01*
X143816672Y-118428185D01*
X143664000Y-118467910D01*
X143356000Y-118467910D01*
X143203328Y-118428185D01*
X143053805Y-118490101D01*
X142747981Y-118732419D01*
X142558168Y-119073325D01*
X138111832Y-119073325D01*
X137922019Y-118732419D01*
X137616195Y-118490101D01*
X137466672Y-118428185D01*
X137314000Y-118467910D01*
X137006000Y-118467910D01*
X136853328Y-118428185D01*
X136703805Y-118490101D01*
X136397981Y-118732419D01*
X136208168Y-119073325D01*
X113946335Y-119073325D01*
X113176755Y-117921570D01*
X112780409Y-115929000D01*
X125850000Y-115929000D01*
X125850000Y-117009673D01*
X125895672Y-117119936D01*
X125980063Y-117204328D01*
X126090326Y-117250000D01*
X127171000Y-117250000D01*
X127246000Y-117175000D01*
X127246000Y-115854000D01*
X127554000Y-115854000D01*
X127554000Y-117175000D01*
X127629000Y-117250000D01*
X128709674Y-117250000D01*
X128819937Y-117204328D01*
X128904328Y-117119936D01*
X128950000Y-117009673D01*
X128950000Y-115929000D01*
X128875000Y-115854000D01*
X127554000Y-115854000D01*
X127246000Y-115854000D01*
X125925000Y-115854000D01*
X125850000Y-115929000D01*
X112780409Y-115929000D01*
X112474348Y-114390327D01*
X125850000Y-114390327D01*
X125850000Y-115471000D01*
X125925000Y-115546000D01*
X127246000Y-115546000D01*
X127246000Y-114225000D01*
X127554000Y-114225000D01*
X127554000Y-115546000D01*
X128875000Y-115546000D01*
X128950000Y-115471000D01*
X128950000Y-114390327D01*
X128904328Y-114280064D01*
X128819937Y-114195672D01*
X128709674Y-114150000D01*
X127629000Y-114150000D01*
X127554000Y-114225000D01*
X127246000Y-114225000D01*
X127171000Y-114150000D01*
X126090326Y-114150000D01*
X125980063Y-114195672D01*
X125895672Y-114280064D01*
X125850000Y-114390327D01*
X112474348Y-114390327D01*
X112443000Y-114232732D01*
X112443000Y-112034238D01*
X114186881Y-113778119D01*
X114530121Y-114007465D01*
X114935000Y-114088000D01*
X129291762Y-114088000D01*
X130542315Y-115338553D01*
X130541679Y-116067958D01*
X130823946Y-116751097D01*
X131346154Y-117274217D01*
X132028800Y-117557676D01*
X132767958Y-117558321D01*
X133451097Y-117276054D01*
X133974217Y-116753846D01*
X134257676Y-116071200D01*
X134258321Y-115332042D01*
X133976054Y-114648903D01*
X133453846Y-114125783D01*
X132771200Y-113842324D01*
X132037922Y-113841684D01*
X130478119Y-112281881D01*
X130134879Y-112052535D01*
X129730000Y-111972000D01*
X115373238Y-111972000D01*
X114088000Y-110686762D01*
X114088000Y-110367764D01*
X116250025Y-110367764D01*
X116400093Y-110562977D01*
X116982572Y-110765338D01*
X117598151Y-110729389D01*
X117999907Y-110562977D01*
X118149975Y-110367764D01*
X117200000Y-109417789D01*
X116250025Y-110367764D01*
X114088000Y-110367764D01*
X114088000Y-108982572D01*
X115634662Y-108982572D01*
X115670611Y-109598151D01*
X115837023Y-109999907D01*
X116032236Y-110149975D01*
X116982211Y-109200000D01*
X117417789Y-109200000D01*
X118367764Y-110149975D01*
X118562977Y-109999907D01*
X118765338Y-109417428D01*
X118729389Y-108801849D01*
X118562977Y-108400093D01*
X118367764Y-108250025D01*
X117417789Y-109200000D01*
X116982211Y-109200000D01*
X116032236Y-108250025D01*
X115837023Y-108400093D01*
X115634662Y-108982572D01*
X114088000Y-108982572D01*
X114088000Y-108032236D01*
X116250025Y-108032236D01*
X117200000Y-108982211D01*
X118149975Y-108032236D01*
X117999907Y-107837023D01*
X117417428Y-107634662D01*
X116801849Y-107670611D01*
X116400093Y-107837023D01*
X116250025Y-108032236D01*
X114088000Y-108032236D01*
X114088000Y-96317273D01*
X114283820Y-96451071D01*
X114525000Y-96499911D01*
X115298673Y-96499911D01*
X116142000Y-97343238D01*
X116142000Y-97630837D01*
X115625783Y-98146154D01*
X115342324Y-98828800D01*
X115341679Y-99567958D01*
X115623946Y-100251097D01*
X116146154Y-100774217D01*
X116828800Y-101057676D01*
X117567958Y-101058321D01*
X118251097Y-100776054D01*
X118774217Y-100253846D01*
X119057676Y-99571200D01*
X119058321Y-98832042D01*
X118776054Y-98148903D01*
X118417777Y-97790000D01*
X124396375Y-97790000D01*
X124495941Y-98290550D01*
X124672000Y-98554042D01*
X124672000Y-100090000D01*
X124752535Y-100494879D01*
X124981881Y-100838119D01*
X127192010Y-103048248D01*
X127191739Y-103358644D01*
X127420835Y-103913097D01*
X127844672Y-104337674D01*
X127994769Y-104400000D01*
X127740327Y-104400000D01*
X127630064Y-104445672D01*
X127545672Y-104530063D01*
X127500000Y-104640326D01*
X127500000Y-105371000D01*
X127575000Y-105446000D01*
X128546000Y-105446000D01*
X128546000Y-105426000D01*
X128854000Y-105426000D01*
X128854000Y-105446000D01*
X129825000Y-105446000D01*
X129900000Y-105371000D01*
X129900000Y-104640326D01*
X129854328Y-104530063D01*
X129769936Y-104445672D01*
X129659673Y-104400000D01*
X129405865Y-104400000D01*
X129553097Y-104339165D01*
X129977674Y-103915328D01*
X130207737Y-103361276D01*
X130208261Y-102761356D01*
X129979165Y-102206903D01*
X129555328Y-101782326D01*
X129001276Y-101552263D01*
X128688228Y-101551990D01*
X126788000Y-99651762D01*
X126788000Y-98554042D01*
X126964059Y-98290550D01*
X127063625Y-97790000D01*
X126964059Y-97289450D01*
X126680521Y-96865104D01*
X126256175Y-96581566D01*
X125755625Y-96482000D01*
X125704375Y-96482000D01*
X125203825Y-96581566D01*
X124779479Y-96865104D01*
X124495941Y-97289450D01*
X124396375Y-97790000D01*
X118417777Y-97790000D01*
X118258000Y-97629944D01*
X118258000Y-96905000D01*
X118177465Y-96500121D01*
X117948119Y-96156881D01*
X117270238Y-95479000D01*
X119985000Y-95479000D01*
X119985000Y-95959673D01*
X120030672Y-96069936D01*
X120115063Y-96154328D01*
X120225326Y-96200000D01*
X121056000Y-96200000D01*
X121131000Y-96125000D01*
X121131000Y-95404000D01*
X121439000Y-95404000D01*
X121439000Y-96125000D01*
X121514000Y-96200000D01*
X122344674Y-96200000D01*
X122454937Y-96154328D01*
X122539328Y-96069936D01*
X122585000Y-95959673D01*
X122585000Y-95479000D01*
X122510000Y-95404000D01*
X121439000Y-95404000D01*
X121131000Y-95404000D01*
X120060000Y-95404000D01*
X119985000Y-95479000D01*
X117270238Y-95479000D01*
X117144911Y-95353673D01*
X117144911Y-94580000D01*
X117137447Y-94540327D01*
X119985000Y-94540327D01*
X119985000Y-95021000D01*
X120060000Y-95096000D01*
X121131000Y-95096000D01*
X121131000Y-94375000D01*
X121439000Y-94375000D01*
X121439000Y-95096000D01*
X122510000Y-95096000D01*
X122585000Y-95021000D01*
X122585000Y-94540327D01*
X122539328Y-94430064D01*
X122454937Y-94345672D01*
X122344674Y-94300000D01*
X121514000Y-94300000D01*
X121439000Y-94375000D01*
X121131000Y-94375000D01*
X121056000Y-94300000D01*
X120225326Y-94300000D01*
X120115063Y-94345672D01*
X120030672Y-94430064D01*
X119985000Y-94540327D01*
X117137447Y-94540327D01*
X117102516Y-94354689D01*
X116969357Y-94147754D01*
X116766180Y-94008929D01*
X116525000Y-93960089D01*
X114525000Y-93960089D01*
X114299689Y-94002484D01*
X114092754Y-94135643D01*
X114088000Y-94142601D01*
X114088000Y-91878238D01*
X115403238Y-90563000D01*
X130624498Y-90563000D01*
X130664402Y-90763612D01*
X131012972Y-91285285D01*
X131534645Y-91633855D01*
X132150000Y-91756257D01*
X132765355Y-91633855D01*
X133287028Y-91285285D01*
X133410000Y-91101244D01*
X133532972Y-91285285D01*
X134054645Y-91633855D01*
X134670000Y-91756257D01*
X135285355Y-91633855D01*
X135807028Y-91285285D01*
X135904977Y-91138693D01*
X136022972Y-91315285D01*
X136102000Y-91368090D01*
X136102000Y-93187976D01*
X136051778Y-93238110D01*
X135852228Y-93718681D01*
X135851774Y-94239036D01*
X136050485Y-94719954D01*
X136102000Y-94771559D01*
X136102000Y-96081762D01*
X135451762Y-96732000D01*
X134142024Y-96732000D01*
X134091890Y-96681778D01*
X133611319Y-96482228D01*
X133090964Y-96481774D01*
X132610046Y-96680485D01*
X132241778Y-97048110D01*
X132042228Y-97528681D01*
X132041774Y-98049036D01*
X132240485Y-98529954D01*
X132608110Y-98898222D01*
X133088681Y-99097772D01*
X133609036Y-99098226D01*
X134089954Y-98899515D01*
X134141559Y-98848000D01*
X135890000Y-98848000D01*
X136294879Y-98767465D01*
X136638119Y-98538119D01*
X137908119Y-97268119D01*
X138137465Y-96924880D01*
X138218000Y-96520000D01*
X138218000Y-94772024D01*
X138268222Y-94721890D01*
X138467772Y-94241319D01*
X138468226Y-93720964D01*
X138269515Y-93240046D01*
X138218000Y-93188441D01*
X138218000Y-91368090D01*
X138297028Y-91315285D01*
X138645598Y-90793612D01*
X138685502Y-90593000D01*
X142717976Y-90593000D01*
X142768110Y-90643222D01*
X143248681Y-90842772D01*
X143769036Y-90843226D01*
X144249954Y-90644515D01*
X144301559Y-90593000D01*
X147797976Y-90593000D01*
X147848110Y-90643222D01*
X148328681Y-90842772D01*
X148849036Y-90843226D01*
X149329954Y-90644515D01*
X149381559Y-90593000D01*
X152877976Y-90593000D01*
X152928110Y-90643222D01*
X153408681Y-90842772D01*
X153929036Y-90843226D01*
X154409954Y-90644515D01*
X154461559Y-90593000D01*
X164661762Y-90593000D01*
X164677000Y-90608238D01*
X164677000Y-100526762D01*
X163391762Y-101812000D01*
X162391480Y-101812000D01*
X162415311Y-101807516D01*
X162622246Y-101674357D01*
X162761071Y-101471180D01*
X162809911Y-101230000D01*
X162809911Y-99430000D01*
X162767516Y-99204689D01*
X162634357Y-98997754D01*
X162431180Y-98858929D01*
X162190000Y-98810089D01*
X160390000Y-98810089D01*
X160164689Y-98852484D01*
X159957754Y-98985643D01*
X159818929Y-99188820D01*
X159781834Y-99372000D01*
X154628000Y-99372000D01*
X154628000Y-98055977D01*
X154878434Y-97681175D01*
X154978000Y-97180625D01*
X154978000Y-97129375D01*
X154878434Y-96628825D01*
X154594896Y-96204479D01*
X154170550Y-95920941D01*
X153670000Y-95821375D01*
X153169450Y-95920941D01*
X152745104Y-96204479D01*
X152461566Y-96628825D01*
X152362000Y-97129375D01*
X152362000Y-97180625D01*
X152461566Y-97681175D01*
X152712000Y-98055977D01*
X152712000Y-99423335D01*
X152598929Y-99588820D01*
X152550089Y-99830000D01*
X152550089Y-100642000D01*
X150818000Y-100642000D01*
X150818000Y-99414949D01*
X150745077Y-99048338D01*
X150537408Y-98737541D01*
X149671305Y-97871438D01*
X149798434Y-97681175D01*
X149898000Y-97180625D01*
X149898000Y-97129375D01*
X149798434Y-96628825D01*
X149514896Y-96204479D01*
X149090550Y-95920941D01*
X148590000Y-95821375D01*
X148089450Y-95920941D01*
X147665104Y-96204479D01*
X147381566Y-96628825D01*
X147282000Y-97129375D01*
X147282000Y-97180625D01*
X147381566Y-97681175D01*
X147632000Y-98055977D01*
X147632000Y-98144949D01*
X147704923Y-98511560D01*
X147912592Y-98822357D01*
X148902000Y-99811765D01*
X148902000Y-100642000D01*
X147083147Y-100642000D01*
X146848609Y-100407052D01*
X146331297Y-100192245D01*
X145771160Y-100191756D01*
X145253474Y-100405660D01*
X144857052Y-100801391D01*
X144800126Y-100938485D01*
X144744340Y-100803474D01*
X144508000Y-100566721D01*
X144508000Y-97996113D01*
X144718434Y-97681175D01*
X144818000Y-97180625D01*
X144818000Y-97129375D01*
X144718434Y-96628825D01*
X144434896Y-96204479D01*
X144010550Y-95920941D01*
X143510000Y-95821375D01*
X143009450Y-95920941D01*
X142585104Y-96204479D01*
X142301566Y-96628825D01*
X142202000Y-97129375D01*
X142202000Y-97180625D01*
X142301566Y-97681175D01*
X142585104Y-98105521D01*
X142592000Y-98110129D01*
X142592000Y-100566853D01*
X142357052Y-100801391D01*
X142142245Y-101318703D01*
X142141756Y-101878840D01*
X142355660Y-102396526D01*
X142552000Y-102593209D01*
X142552000Y-104503335D01*
X142438929Y-104668820D01*
X142390089Y-104910000D01*
X142390089Y-105722000D01*
X138193147Y-105722000D01*
X138118000Y-105646721D01*
X138118000Y-102500977D01*
X138368434Y-102126175D01*
X138468000Y-101625625D01*
X138468000Y-101574375D01*
X138368434Y-101073825D01*
X138084896Y-100649479D01*
X137660550Y-100365941D01*
X137160000Y-100266375D01*
X136659450Y-100365941D01*
X136235104Y-100649479D01*
X135951566Y-101073825D01*
X135852000Y-101574375D01*
X135852000Y-101625625D01*
X135951566Y-102126175D01*
X136202000Y-102500977D01*
X136202000Y-105646853D01*
X135967052Y-105881391D01*
X135910126Y-106018485D01*
X135854340Y-105883474D01*
X135458609Y-105487052D01*
X134941297Y-105272245D01*
X134381160Y-105271756D01*
X133863474Y-105485660D01*
X133467052Y-105881391D01*
X133252245Y-106398703D01*
X133252077Y-106591685D01*
X132041762Y-107802000D01*
X122298238Y-107802000D01*
X120325238Y-105829000D01*
X127500000Y-105829000D01*
X127500000Y-106559674D01*
X127545672Y-106669937D01*
X127630064Y-106754328D01*
X127740327Y-106800000D01*
X128471000Y-106800000D01*
X128546000Y-106725000D01*
X128546000Y-105754000D01*
X128854000Y-105754000D01*
X128854000Y-106725000D01*
X128929000Y-106800000D01*
X129659673Y-106800000D01*
X129769936Y-106754328D01*
X129854328Y-106669937D01*
X129900000Y-106559674D01*
X129900000Y-105829000D01*
X129825000Y-105754000D01*
X128854000Y-105754000D01*
X128546000Y-105754000D01*
X127575000Y-105754000D01*
X127500000Y-105829000D01*
X120325238Y-105829000D01*
X119057685Y-104561447D01*
X119058321Y-103832042D01*
X118776054Y-103148903D01*
X118253846Y-102625783D01*
X117571200Y-102342324D01*
X116832042Y-102341679D01*
X116148903Y-102623946D01*
X115625783Y-103146154D01*
X115342324Y-103828800D01*
X115341679Y-104567958D01*
X115623946Y-105251097D01*
X116146154Y-105774217D01*
X116828800Y-106057676D01*
X117562078Y-106058316D01*
X121111881Y-109608119D01*
X121455120Y-109837465D01*
X121860000Y-109918000D01*
X132480000Y-109918000D01*
X132884879Y-109837465D01*
X133228119Y-109608119D01*
X134748160Y-108088078D01*
X134938840Y-108088244D01*
X135456526Y-107874340D01*
X135852948Y-107478609D01*
X135909874Y-107341515D01*
X135965660Y-107476526D01*
X136202000Y-107713279D01*
X136202000Y-110868150D01*
X136051778Y-111018110D01*
X135852228Y-111498681D01*
X135851774Y-112019036D01*
X136050485Y-112499954D01*
X136418110Y-112868222D01*
X136898681Y-113067772D01*
X137419036Y-113068226D01*
X137899954Y-112869515D01*
X138268222Y-112501890D01*
X138467772Y-112021319D01*
X138468226Y-111500964D01*
X138269515Y-111020046D01*
X138118000Y-110868266D01*
X138118000Y-107713147D01*
X138193279Y-107638000D01*
X142439829Y-107638000D01*
X142402193Y-107728638D01*
X142401808Y-108169428D01*
X142552000Y-108532920D01*
X142552000Y-110868150D01*
X142401778Y-111018110D01*
X142202228Y-111498681D01*
X142201774Y-112019036D01*
X142400485Y-112499954D01*
X142768110Y-112868222D01*
X143248681Y-113067772D01*
X143769036Y-113068226D01*
X144249954Y-112869515D01*
X144618222Y-112501890D01*
X144817772Y-112021319D01*
X144818226Y-111500964D01*
X144619515Y-111020046D01*
X144468000Y-110868266D01*
X144468000Y-108532138D01*
X144617807Y-108171362D01*
X144618142Y-107787859D01*
X144999428Y-107788192D01*
X145406812Y-107619864D01*
X145718769Y-107308451D01*
X145887807Y-106901362D01*
X145888192Y-106460572D01*
X145719864Y-106053188D01*
X145408451Y-105741231D01*
X145001362Y-105572193D01*
X144629911Y-105571869D01*
X144629911Y-104910000D01*
X144587516Y-104684689D01*
X144468000Y-104498956D01*
X144468000Y-102673078D01*
X144742948Y-102398609D01*
X144799874Y-102261515D01*
X144855660Y-102396526D01*
X145251391Y-102792948D01*
X145768703Y-103007755D01*
X146328840Y-103008244D01*
X146846526Y-102794340D01*
X147083279Y-102558000D01*
X147632000Y-102558000D01*
X147632000Y-110868150D01*
X147481778Y-111018110D01*
X147282228Y-111498681D01*
X147281774Y-112019036D01*
X147480485Y-112499954D01*
X147848110Y-112868222D01*
X148328681Y-113067772D01*
X148849036Y-113068226D01*
X149329954Y-112869515D01*
X149698222Y-112501890D01*
X149897772Y-112021319D01*
X149898226Y-111500964D01*
X149699515Y-111020046D01*
X149548000Y-110868266D01*
X149548000Y-102558000D01*
X152599829Y-102558000D01*
X152562193Y-102648638D01*
X152561808Y-103089428D01*
X152712000Y-103452920D01*
X152712000Y-110868150D01*
X152561778Y-111018110D01*
X152362228Y-111498681D01*
X152361774Y-112019036D01*
X152560485Y-112499954D01*
X152928110Y-112868222D01*
X153408681Y-113067772D01*
X153929036Y-113068226D01*
X154409954Y-112869515D01*
X154778222Y-112501890D01*
X154977772Y-112021319D01*
X154978226Y-111500964D01*
X154779515Y-111020046D01*
X154628000Y-110868266D01*
X154628000Y-103452138D01*
X154777807Y-103091362D01*
X154778142Y-102707859D01*
X155159428Y-102708192D01*
X155566812Y-102539864D01*
X155878769Y-102228451D01*
X156047807Y-101821362D01*
X156048192Y-101380572D01*
X156009942Y-101288000D01*
X159781002Y-101288000D01*
X159812484Y-101455311D01*
X159945643Y-101662246D01*
X160148820Y-101801071D01*
X160198911Y-101811215D01*
X159896790Y-102263370D01*
X159782000Y-102840457D01*
X159782000Y-102899543D01*
X159896790Y-103476630D01*
X160223683Y-103965860D01*
X160484302Y-104140000D01*
X160223683Y-104314140D01*
X159896790Y-104803370D01*
X159782000Y-105380457D01*
X159782000Y-105439543D01*
X159896790Y-106016630D01*
X160223683Y-106505860D01*
X160232000Y-106511417D01*
X160232000Y-110967976D01*
X160181778Y-111018110D01*
X159982228Y-111498681D01*
X159981774Y-112019036D01*
X160180485Y-112499954D01*
X160548110Y-112868222D01*
X161028681Y-113067772D01*
X161549036Y-113068226D01*
X162029954Y-112869515D01*
X162398222Y-112501890D01*
X162597772Y-112021319D01*
X162598226Y-111500964D01*
X162399515Y-111020046D01*
X162348000Y-110968441D01*
X162348000Y-106511417D01*
X162356317Y-106505860D01*
X162381614Y-106468000D01*
X165013519Y-106468000D01*
X165125643Y-106642246D01*
X165328820Y-106781071D01*
X165570000Y-106829911D01*
X167170000Y-106829911D01*
X167395311Y-106787516D01*
X167602246Y-106654357D01*
X167741071Y-106451180D01*
X167789911Y-106210000D01*
X167789911Y-105688840D01*
X169961756Y-105688840D01*
X170175660Y-106206526D01*
X170571391Y-106602948D01*
X171088703Y-106817755D01*
X171281685Y-106817923D01*
X171671881Y-107208119D01*
X172015120Y-107437465D01*
X172420000Y-107518000D01*
X176594081Y-107518000D01*
X176782000Y-107706247D01*
X176782000Y-107804081D01*
X176477598Y-108107952D01*
X176232279Y-108698746D01*
X176231721Y-109338448D01*
X176476009Y-109929669D01*
X176927952Y-110382402D01*
X177518746Y-110627721D01*
X178158448Y-110628279D01*
X178749669Y-110383991D01*
X179202402Y-109932048D01*
X179447721Y-109341254D01*
X179448279Y-108701552D01*
X179203991Y-108110331D01*
X178898000Y-107803805D01*
X178898000Y-107645971D01*
X179172402Y-107372048D01*
X179417721Y-106781254D01*
X179418279Y-106141552D01*
X179173991Y-105550331D01*
X178898000Y-105273858D01*
X178898000Y-105056379D01*
X182561410Y-105056379D01*
X182680774Y-105225584D01*
X183172416Y-105386068D01*
X183688048Y-105346193D01*
X183979226Y-105225584D01*
X184098590Y-105056379D01*
X183330000Y-104287789D01*
X182561410Y-105056379D01*
X178898000Y-105056379D01*
X178898000Y-103912416D01*
X182013932Y-103912416D01*
X182053807Y-104428048D01*
X182174416Y-104719226D01*
X182343621Y-104838590D01*
X183112211Y-104070000D01*
X183547789Y-104070000D01*
X184316379Y-104838590D01*
X184485584Y-104719226D01*
X184646068Y-104227584D01*
X184606193Y-103711952D01*
X184485584Y-103420774D01*
X184316379Y-103301410D01*
X183547789Y-104070000D01*
X183112211Y-104070000D01*
X182343621Y-103301410D01*
X182174416Y-103420774D01*
X182013932Y-103912416D01*
X178898000Y-103912416D01*
X178898000Y-103083621D01*
X182561410Y-103083621D01*
X183330000Y-103852211D01*
X184098590Y-103083621D01*
X183979226Y-102914416D01*
X183487584Y-102753932D01*
X182971952Y-102793807D01*
X182680774Y-102914416D01*
X182561410Y-103083621D01*
X178898000Y-103083621D01*
X178898000Y-102775989D01*
X179162402Y-102512048D01*
X179407721Y-101921254D01*
X179408279Y-101281552D01*
X179163991Y-100690331D01*
X178898000Y-100423875D01*
X178898000Y-100225989D01*
X179162402Y-99962048D01*
X179407721Y-99371254D01*
X179408279Y-98731552D01*
X179163991Y-98140331D01*
X178712048Y-97687598D01*
X178121254Y-97442279D01*
X177481552Y-97441721D01*
X176890331Y-97686009D01*
X176437598Y-98137952D01*
X176192279Y-98728746D01*
X176191721Y-99368448D01*
X176436009Y-99959669D01*
X176742000Y-100266195D01*
X176742000Y-100384081D01*
X176437598Y-100687952D01*
X176192279Y-101278746D01*
X176191721Y-101918448D01*
X176436009Y-102509669D01*
X176782000Y-102856265D01*
X176782000Y-105214134D01*
X176593805Y-105402000D01*
X172858238Y-105402000D01*
X172778078Y-105321840D01*
X172778244Y-105131160D01*
X172564340Y-104613474D01*
X172168609Y-104217052D01*
X171651297Y-104002245D01*
X171091160Y-104001756D01*
X170573474Y-104215660D01*
X170177052Y-104611391D01*
X169962245Y-105128703D01*
X169961756Y-105688840D01*
X167789911Y-105688840D01*
X167789911Y-104610000D01*
X167747516Y-104384689D01*
X167614357Y-104177754D01*
X167411180Y-104038929D01*
X167170000Y-103990089D01*
X165570000Y-103990089D01*
X165344689Y-104032484D01*
X165137754Y-104165643D01*
X165010422Y-104352000D01*
X162381614Y-104352000D01*
X162356317Y-104314140D01*
X162095698Y-104140000D01*
X162356317Y-103965860D01*
X162381614Y-103928000D01*
X163830000Y-103928000D01*
X164234879Y-103847465D01*
X164578119Y-103618119D01*
X166483119Y-101713119D01*
X166712465Y-101369879D01*
X166793000Y-100965000D01*
X166793000Y-90170000D01*
X166712465Y-89765121D01*
X166483119Y-89421881D01*
X165848119Y-88786881D01*
X165504879Y-88557535D01*
X165100000Y-88477000D01*
X154462024Y-88477000D01*
X154411890Y-88426778D01*
X153931319Y-88227228D01*
X153410964Y-88226774D01*
X152930046Y-88425485D01*
X152878441Y-88477000D01*
X149382024Y-88477000D01*
X149331890Y-88426778D01*
X148851319Y-88227228D01*
X148330964Y-88226774D01*
X147850046Y-88425485D01*
X147798441Y-88477000D01*
X144302024Y-88477000D01*
X144251890Y-88426778D01*
X143771319Y-88227228D01*
X143250964Y-88226774D01*
X142770046Y-88425485D01*
X142718441Y-88477000D01*
X138685502Y-88477000D01*
X138645598Y-88276388D01*
X138297028Y-87754715D01*
X137775355Y-87406145D01*
X137160000Y-87283743D01*
X136544645Y-87406145D01*
X136022972Y-87754715D01*
X135925023Y-87901307D01*
X135807028Y-87724715D01*
X135285355Y-87376145D01*
X134670000Y-87253743D01*
X134054645Y-87376145D01*
X133532972Y-87724715D01*
X133410000Y-87908756D01*
X133287028Y-87724715D01*
X132765355Y-87376145D01*
X132150000Y-87253743D01*
X131534645Y-87376145D01*
X131012972Y-87724715D01*
X130664402Y-88246388D01*
X130624498Y-88447000D01*
X114965000Y-88447000D01*
X114560120Y-88527535D01*
X114271070Y-88720673D01*
X115228212Y-87288210D01*
X118298430Y-85236756D01*
X121987268Y-84503000D01*
X162492732Y-84503000D01*
X167153584Y-85430101D01*
M02*
