<?xml version="1.0" standalone="no"?>
 <!DOCTYPE svg PUBLIC "-//W3C//DTD SVG 1.1//EN" 
 "http://www.w3.org/Graphics/SVG/1.1/DTD/svg11.dtd"> 
<svg xmlns="http://www.w3.org/2000/svg" version="1.1" 
    width="29.7002cm" height="21.0007cm" viewBox="0 0 116930 82680 ">
<title>SVG Picture created as Kursa_darbs_Simona_Gelze-F.SilkS.svg date 2017/06/16 19:05:56 </title>
  <desc>Picture generated by PCBNEW </desc>
<g style="fill:#000000; fill-opacity:1;stroke:#000000; stroke-opacity:1;
stroke-linecap:round; stroke-linejoin:round; "
 transform="translate(0 0) scale(1 1)">
</g>
<g style="fill:#000000; fill-opacity:0.0; 
stroke:#000000; stroke-width:-0.000393701; stroke-opacity:1; 
stroke-linecap:round; stroke-linejoin:round;">
</g>
<g style="fill:#000000; fill-opacity:0.0; 
stroke:#000000; stroke-width:47.2441; stroke-opacity:1; 
stroke-linecap:round; stroke-linejoin:round;">
<path d="M47736 41023
L46811 41023
" />
<path d="M48307 43011
L46909 43011
" />
<path d="M48307 42322
L48307 43011
" />
<path d="M48307 39724
L48307 39035
" />
<path d="M48307 39035
L46889 39035
" />
<path d="M47755 41023
L47362 41397
" />
<path d="M47755 41043
L47381 40649
" />
<path d="M47755 39724
L48818 39724
" />
<path d="M48818 39724
L48818 42322
" />
<path d="M48818 42322
L47755 42322
" />
<path d="M47755 42322
L47755 39724
" />
</g>
<g style="fill:#000000; fill-opacity:0.0; 
stroke:#000000; stroke-width:59.0551; stroke-opacity:1; 
stroke-linecap:round; stroke-linejoin:round;">
<path d="M51141 47165
L51141 47362
" />
<circle cx="52126" cy="45590.6" r="787.402" /> 
<circle cx="50157.5" cy="45590.6" r="787.402" /> 
<path d="M49173 46574
L53110 46574
" />
<path d="M49173 44645
L53110 44645
" />
<path d="M49173 47165
L53110 47165
" />
<path d="M49173 47362
L53110 47362
" />
<path d="M53110 47362
L53110 43503
" />
<path d="M53110 43503
L49173 43503
" />
<path d="M49173 43503
L49173 47362
" />
</g>
<g style="fill:#000000; fill-opacity:0.0; 
stroke:#000000; stroke-width:47.2441; stroke-opacity:1; 
stroke-linecap:round; stroke-linejoin:round;">
<path d="M52500 41484
L54515 41484
" />
<path d="M52500 42515
L54515 42515
" />
<path d="M52500 41484
L52500 42515
" />
<path d="M54515 41484
L54515 42515
" />
<path d="M56000 39484
L58015 39484
" />
<path d="M56000 40515
L58015 40515
" />
<path d="M56000 39484
L56000 40515
" />
<path d="M58015 39484
L58015 40515
" />
<path d="M64633 41500
L65106 41500
" />
<path d="M64870 41244
L64870 41755
" />
<path d="M67843.8 41113.8 A1413.39 1413.39 0.0 0 0 65124.5 41114.2 " />
<path d="M65124.5 41885.8 A1413.39 1413.39 0.0 0 0 67843.8 41886.2 " />
<path d="M67843.8 41886.2 A1413.39 1413.39 0.0 0 0 67844 41114.2 " />
<path d="M50669.5 39897.6 A1177.17 1177.17 0.0 0 0 50061.1 42082.7 " />
<path d="M51277.5 42082.7 A1177.17 1177.17 0.0 0 0 50669.1 39897.6 " />
<circle cx="50669.3" cy="41074.8" r="984.252" /> 
<path d="M50061 42082
L51277 42082
" />
</g>
<g style="fill:#000000; fill-opacity:0.0; 
stroke:#000000; stroke-width:39.3701; stroke-opacity:1; 
stroke-linecap:round; stroke-linejoin:round;">
<path d="M48301 37051
L48301 37948
" />
<path d="M44938 37051
L48301 37051
" />
<path d="M44938 37952
L44938 37051
" />
<path d="M48301 37956
L44938 37960
" />
</g>
<g style="fill:#000000; fill-opacity:0.0; 
stroke:#000000; stroke-width:59.0551; stroke-opacity:1; 
stroke-linecap:round; stroke-linejoin:round;">
<path d="M54417 34246
L54417 36238
" />
<path d="M53468 36222
L53468 34246
" />
<path d="M52570 34250
L52570 36238
" />
<path d="M51594 36238
L51594 34738
" />
<path d="M54417 36238
L51594 36238
" />
<path d="M51594 34246
L54417 34246
" />
<path d="M51594 34246
L51594 35746
" />
<path d="M71102 39015
L71102 42952
" />
<path d="M68161 38594
L68161 43334
" />
<path d="M68196 43334
L72055 43334
" />
<path d="M72043 43334
L72043 38594
" />
<path d="M72047 38594
L68188 38594
" />
</g>
<g style="fill:#000000; fill-opacity:0.0; 
stroke:#000000; stroke-width:47.2441; stroke-opacity:1; 
stroke-linecap:round; stroke-linejoin:round;">
<path d="M55771 41291
L55771 42708
" />
<path d="M57523.6 42000 A1023.62 1023.62 0.0 0 0 55776.2 41276.2 " />
<path d="M55776.2 42723.8 A1023.62 1023.62 0.0 0 0 57523.6 42000 " />
<path d="M59771 39291
L59771 40708
" />
<path d="M61523.6 40000 A1023.62 1023.62 0.0 0 0 59776.2 39276.2 " />
<path d="M59776.2 40723.8 A1023.62 1023.62 0.0 0 0 61523.6 40000 " />
<path d="M64531 38484
L64531 42515
" />
<path d="M62704 38484
L62704 42515
" />
<path d="M64531 38484
L62704 38484
" />
<path d="M64531 42515
L62704 42515
" />
<path d="M63937 38484
L63937 42515
" />
<path d="M64531 39771
L63937 39771
" />
<path d="M64531 41228
L63937 41228
" />
<path d="M51732 38838
L51732 38161
" />
<path d="M51732 38161
L50267 38161
" />
<path d="M50267 38161
L50267 38838
" />
<path d="M50267 38838
L51732 38838
" />
<path d="M52153 38500
L51732 38500
" />
<path d="M49846 38500
L50267 38500
" />
<path d="M54338 37767
L53661 37767
" />
<path d="M53661 37767
L53661 39232
" />
<path d="M53661 39232
L54338 39232
" />
<path d="M54338 39232
L54338 37767
" />
<path d="M54000 37346
L54000 37767
" />
<path d="M54000 39653
L54000 39232
" />
<path d="M54338 44767
L53661 44767
" />
<path d="M53661 44767
L53661 46232
" />
<path d="M53661 46232
L54338 46232
" />
<path d="M54338 46232
L54338 44767
" />
<path d="M54000 44346
L54000 44767
" />
<path d="M54000 46653
L54000 46232
" />
<path d="M56838 36017
L56161 36017
" />
<path d="M56161 36017
L56161 37482
" />
<path d="M56161 37482
L56838 37482
" />
<path d="M56838 37482
L56838 36017
" />
<path d="M56500 35596
L56500 36017
" />
<path d="M56500 37903
L56500 37482
" />
<path d="M56838 44767
L56161 44767
" />
<path d="M56161 44767
L56161 46232
" />
<path d="M56161 46232
L56838 46232
" />
<path d="M56838 46232
L56838 44767
" />
<path d="M56500 44346
L56500 44767
" />
<path d="M56500 46653
L56500 46232
" />
<path d="M58838 36017
L58161 36017
" />
<path d="M58161 36017
L58161 37482
" />
<path d="M58161 37482
L58838 37482
" />
<path d="M58838 37482
L58838 36017
" />
<path d="M58500 35596
L58500 36017
" />
<path d="M58500 37903
L58500 37482
" />
<path d="M58838 44767
L58161 44767
" />
<path d="M58161 44767
L58161 46232
" />
<path d="M58161 46232
L58838 46232
" />
<path d="M58838 46232
L58838 44767
" />
<path d="M58500 44346
L58500 44767
" />
<path d="M58500 46653
L58500 46232
" />
<path d="M60838 36017
L60161 36017
" />
<path d="M60161 36017
L60161 37482
" />
<path d="M60161 37482
L60838 37482
" />
<path d="M60838 37482
L60838 36017
" />
<path d="M60500 35596
L60500 36017
" />
<path d="M60500 37903
L60500 37482
" />
<path d="M60838 44767
L60161 44767
" />
<path d="M60161 44767
L60161 46232
" />
<path d="M60161 46232
L60838 46232
" />
<path d="M60838 46232
L60838 44767
" />
<path d="M60500 44346
L60500 44767
" />
<path d="M60500 46653
L60500 46232
" />
<path d="M63838 44767
L63161 44767
" />
<path d="M63161 44767
L63161 46232
" />
<path d="M63161 46232
L63838 46232
" />
<path d="M63838 46232
L63838 44767
" />
<path d="M63500 44346
L63500 44767
" />
<path d="M63500 46653
L63500 46232
" />
</g>
<g style="fill:#000000; fill-opacity:0.0; 
stroke:#000000; stroke-width:59.0551; stroke-opacity:1; 
stroke-linecap:round; stroke-linejoin:round;">
<path d="M46655 38386
L46524 38199
" />
<path d="M46430 38386
L46430 37993
L46580 37993
L46617 38011
L46636 38030
L46655 38068
L46655 38124
L46636 38161
L46617 38180
L46580 38199
L46430 38199
" />
<path d="M46767 37993
L46899 38386
L47030 37993
" />
<path d="M47367 38386
L47142 38386
" />
<path d="M47255 38386
L47255 37993
L47217 38049
L47180 38086
L47142 38105
" />
<path d="M51010 47658
L51010 47939
L50991 47995
L50954 48033
L50898 48052
L50860 48052
" />
<path d="M51404 48052
L51179 48052
" />
<path d="M51291 48052
L51291 47658
L51254 47714
L51216 47752
L51179 47770
" />
<path d="M53442 41231
L53423 41249
L53367 41268
L53329 41268
L53273 41249
L53236 41212
L53217 41174
L53198 41099
L53198 41043
L53217 40968
L53236 40931
L53273 40893
L53329 40874
L53367 40874
L53423 40893
L53442 40912
" />
<path d="M53817 41268
L53592 41268
" />
<path d="M53704 41268
L53704 40874
L53667 40931
L53629 40968
L53592 40987
" />
<path d="M56942 39231
L56923 39249
L56867 39268
L56829 39268
L56773 39249
L56736 39212
L56717 39174
L56698 39099
L56698 39043
L56717 38968
L56736 38931
L56773 38893
L56829 38874
L56867 38874
L56923 38893
L56942 38912
" />
<path d="M57092 38912
L57110 38893
L57148 38874
L57242 38874
L57279 38893
L57298 38912
L57317 38949
L57317 38987
L57298 39043
L57073 39268
L57317 39268
" />
<path d="M66418 39845
L66399 39864
L66343 39882
L66306 39882
L66249 39864
L66212 39826
L66193 39789
L66174 39714
L66174 39657
L66193 39582
L66212 39545
L66249 39507
L66306 39489
L66343 39489
L66399 39507
L66418 39526
" />
<path d="M66549 39489
L66793 39489
L66662 39639
L66718 39639
L66756 39657
L66774 39676
L66793 39714
L66793 39807
L66774 39845
L66756 39864
L66718 39882
L66606 39882
L66568 39864
L66549 39845
" />
<path d="M49288 41365
L48894 41365
L48894 41271
L48913 41215
L48950 41177
L48988 41159
L49063 41140
L49119 41140
L49194 41159
L49232 41177
L49269 41215
L49288 41271
L49288 41365
" />
<path d="M49288 40765
L49288 40990
" />
<path d="M49288 40877
L48894 40877
L48950 40915
L48988 40952
L49007 40990
" />
<path d="M46374 38091
L46374 38372
L46355 38428
L46318 38466
L46262 38485
L46224 38485
" />
<path d="M46543 38128
L46562 38110
L46599 38091
L46693 38091
L46730 38110
L46749 38128
L46768 38166
L46768 38203
L46749 38260
L46524 38485
L46768 38485
" />
<path d="M51059 35365
L51341 35365
L51397 35384
L51434 35421
L51453 35477
L51453 35515
" />
<path d="M51059 35215
L51059 34971
L51209 35103
L51209 35046
L51228 35009
L51247 34990
L51284 34971
L51378 34971
L51416 34990
L51434 35009
L51453 35046
L51453 35159
L51434 35196
L51416 35215
" />
<path d="M67611 41668
L67892 41668
L67948 41687
L67986 41725
L68004 41781
L68004 41818
" />
<path d="M68004 41312
L67798 41312
L67761 41331
L67742 41368
L67742 41443
L67761 41481
" />
<path d="M67986 41312
L68004 41350
L68004 41443
L67986 41481
L67948 41500
L67911 41500
L67873 41481
L67854 41443
L67854 41350
L67836 41312
" />
<path d="M67986 40956
L68004 40994
L68004 41068
L67986 41106
L67967 41125
L67929 41143
L67817 41143
L67779 41125
L67761 41106
L67742 41068
L67742 40994
L67761 40956
" />
<path d="M68004 40787
L67611 40787
" />
<path d="M67854 40750
L68004 40637
" />
<path d="M67742 40637
L67892 40787
" />
<path d="M68004 40262
L68004 40487
" />
<path d="M68004 40375
L67611 40375
L67667 40412
L67704 40450
L67723 40487
" />
<path d="M58117 42037
L58098 42074
L58060 42112
L58004 42168
L57985 42206
L57985 42243
" />
<path d="M58079 42224
L58060 42262
L58023 42299
L57948 42318
L57817 42318
L57742 42299
L57704 42262
L57685 42224
L57685 42149
L57704 42112
L57742 42074
L57817 42056
L57948 42056
L58023 42074
L58060 42112
L58079 42149
L58079 42224
" />
<path d="M58079 41681
L58079 41906
" />
<path d="M58079 41793
L57685 41793
L57742 41831
L57779 41868
L57798 41906
" />
<path d="M62117 40037
L62098 40074
L62060 40112
L62004 40168
L61985 40206
L61985 40243
" />
<path d="M62079 40224
L62060 40262
L62023 40299
L61948 40318
L61817 40318
L61742 40299
L61704 40262
L61685 40224
L61685 40149
L61704 40112
L61742 40074
L61817 40056
L61948 40056
L62023 40074
L62060 40112
L62079 40149
L62079 40224
" />
<path d="M61723 39906
L61704 39887
L61685 39850
L61685 39756
L61704 39718
L61723 39700
L61760 39681
L61798 39681
L61854 39700
L62079 39925
L62079 39681
" />
<path d="M65140 40537
L65122 40574
L65084 40612
L65028 40668
L65009 40706
L65009 40743
" />
<path d="M65103 40724
L65084 40762
L65047 40799
L64972 40818
L64840 40818
L64765 40799
L64728 40762
L64709 40724
L64709 40649
L64728 40612
L64765 40574
L64840 40556
L64972 40556
L65047 40574
L65084 40612
L65103 40649
L65103 40724
" />
<path d="M64709 40425
L64709 40181
L64859 40312
L64859 40256
L64878 40218
L64897 40200
L64934 40181
L65028 40181
L65065 40200
L65084 40218
L65103 40256
L65103 40368
L65084 40406
L65065 40425
" />
<path d="M50934 39410
L50803 39222
" />
<path d="M50709 39410
L50709 39016
L50859 39016
L50896 39035
L50915 39054
L50934 39091
L50934 39147
L50915 39185
L50896 39204
L50859 39222
L50709 39222
" />
<path d="M51309 39410
L51084 39410
" />
<path d="M51196 39410
L51196 39016
L51159 39072
L51121 39110
L51084 39129
" />
<path d="M54910 38565
L54722 38696
" />
<path d="M54910 38790
L54516 38790
L54516 38640
L54535 38603
L54554 38584
L54591 38565
L54647 38565
L54685 38584
L54704 38603
L54722 38640
L54722 38790
" />
<path d="M54554 38415
L54535 38396
L54516 38359
L54516 38265
L54535 38228
L54554 38209
L54591 38190
L54629 38190
L54685 38209
L54910 38434
L54910 38190
" />
<path d="M54910 45565
L54722 45696
" />
<path d="M54910 45790
L54516 45790
L54516 45640
L54535 45603
L54554 45584
L54591 45565
L54647 45565
L54685 45584
L54704 45603
L54722 45640
L54722 45790
" />
<path d="M54516 45434
L54516 45190
L54666 45321
L54666 45265
L54685 45228
L54704 45209
L54741 45190
L54835 45190
L54872 45209
L54891 45228
L54910 45265
L54910 45378
L54891 45415
L54872 45434
" />
<path d="M57410 36815
L57222 36946
" />
<path d="M57410 37040
L57016 37040
L57016 36890
L57035 36853
L57054 36834
L57091 36815
L57147 36815
L57185 36834
L57204 36853
L57222 36890
L57222 37040
" />
<path d="M57147 36478
L57410 36478
" />
<path d="M56997 36571
L57279 36665
L57279 36421
" />
<path d="M57410 45565
L57222 45696
" />
<path d="M57410 45790
L57016 45790
L57016 45640
L57035 45603
L57054 45584
L57091 45565
L57147 45565
L57185 45584
L57204 45603
L57222 45640
L57222 45790
" />
<path d="M57016 45209
L57016 45396
L57204 45415
L57185 45396
L57166 45359
L57166 45265
L57185 45228
L57204 45209
L57241 45190
L57335 45190
L57372 45209
L57391 45228
L57410 45265
L57410 45359
L57391 45396
L57372 45415
" />
<path d="M59410 36815
L59222 36946
" />
<path d="M59410 37040
L59016 37040
L59016 36890
L59035 36853
L59054 36834
L59091 36815
L59147 36815
L59185 36834
L59204 36853
L59222 36890
L59222 37040
" />
<path d="M59016 36478
L59016 36553
L59035 36590
L59054 36609
L59110 36646
L59185 36665
L59335 36665
L59372 36646
L59391 36628
L59410 36590
L59410 36515
L59391 36478
L59372 36459
L59335 36440
L59241 36440
L59204 36459
L59185 36478
L59166 36515
L59166 36590
L59185 36628
L59204 36646
L59241 36665
" />
<path d="M59410 45565
L59222 45696
" />
<path d="M59410 45790
L59016 45790
L59016 45640
L59035 45603
L59054 45584
L59091 45565
L59147 45565
L59185 45584
L59204 45603
L59222 45640
L59222 45790
" />
<path d="M59016 45434
L59016 45171
L59410 45340
" />
<path d="M61410 36815
L61222 36946
" />
<path d="M61410 37040
L61016 37040
L61016 36890
L61035 36853
L61054 36834
L61091 36815
L61147 36815
L61185 36834
L61204 36853
L61222 36890
L61222 37040
" />
<path d="M61185 36590
L61166 36628
L61147 36646
L61110 36665
L61091 36665
L61054 36646
L61035 36628
L61016 36590
L61016 36515
L61035 36478
L61054 36459
L61091 36440
L61110 36440
L61147 36459
L61166 36478
L61185 36515
L61185 36590
L61204 36628
L61222 36646
L61260 36665
L61335 36665
L61372 36646
L61391 36628
L61410 36590
L61410 36515
L61391 36478
L61372 36459
L61335 36440
L61260 36440
L61222 36459
L61204 36478
L61185 36515
" />
<path d="M61410 45565
L61222 45696
" />
<path d="M61410 45790
L61016 45790
L61016 45640
L61035 45603
L61054 45584
L61091 45565
L61147 45565
L61185 45584
L61204 45603
L61222 45640
L61222 45790
" />
<path d="M61410 45378
L61410 45303
L61391 45265
L61372 45246
L61316 45209
L61241 45190
L61091 45190
L61054 45209
L61035 45228
L61016 45265
L61016 45340
L61035 45378
L61054 45396
L61091 45415
L61185 45415
L61222 45396
L61241 45378
L61260 45340
L61260 45265
L61241 45228
L61222 45209
L61185 45190
" />
<path d="M64410 45753
L64222 45884
" />
<path d="M64410 45978
L64016 45978
L64016 45828
L64035 45790
L64054 45771
L64091 45753
L64147 45753
L64185 45771
L64204 45790
L64222 45828
L64222 45978
" />
<path d="M64410 45378
L64410 45603
" />
<path d="M64410 45490
L64016 45490
L64072 45528
L64110 45565
L64129 45603
" />
<path d="M64016 45134
L64016 45096
L64035 45059
L64054 45040
L64091 45021
L64166 45003
L64260 45003
L64335 45021
L64372 45040
L64391 45059
L64410 45096
L64410 45134
L64391 45171
L64372 45190
L64335 45209
L64260 45228
L64166 45228
L64091 45209
L64054 45190
L64035 45171
L64016 45134
" />
</g> 
</svg>
