<?xml version="1.0" standalone="no"?>
 <!DOCTYPE svg PUBLIC "-//W3C//DTD SVG 1.1//EN" 
 "http://www.w3.org/Graphics/SVG/1.1/DTD/svg11.dtd"> 
<svg xmlns="http://www.w3.org/2000/svg" version="1.1" 
    width="29.7002cm" height="21.0007cm" viewBox="0 0 116930 82680 ">
<title>SVG Picture created as Kursa_darbs_Simona_Gelze-F.Cu.svg date 2017/06/16 19:06:02 </title>
  <desc>Picture generated by PCBNEW </desc>
<g style="fill:#000000; fill-opacity:1;stroke:#000000; stroke-opacity:1;
stroke-linecap:round; stroke-linejoin:round; "
 transform="translate(0 0) scale(1 1)">
</g>
<g style="fill:#000000; fill-opacity:0.0; 
stroke:#000000; stroke-width:-0.000393701; stroke-opacity:1; 
stroke-linecap:round; stroke-linejoin:round;">
</g>
<g style="fill:#000000; fill-opacity:1.0; 
stroke:#000000; stroke-width:0; stroke-opacity:1; 
stroke-linecap:round; stroke-linejoin:round;">
<circle cx="46141.7" cy="41023.6" r="492.126" /> 
</g>
<g style="fill:#000000; fill-opacity:1.0; 
stroke:#000000; stroke-width:39.3701; stroke-opacity:1; 
stroke-linecap:round; stroke-linejoin:round;">
</g>
<g style="fill:#000000; fill-opacity:1.0; 
stroke:#000000; stroke-width:0; stroke-opacity:1; 
stroke-linecap:round; stroke-linejoin:round;">
<circle cx="46141.7" cy="42992.1" r="492.126" /> 
</g>
<g style="fill:#000000; fill-opacity:1.0; 
stroke:#000000; stroke-width:39.3701; stroke-opacity:1; 
stroke-linecap:round; stroke-linejoin:round;">
</g>
<g style="fill:#000000; fill-opacity:1.0; 
stroke:#000000; stroke-width:0; stroke-opacity:1; 
stroke-linecap:round; stroke-linejoin:round;">
<circle cx="46141.7" cy="39055.1" r="492.126" /> 
</g>
<g style="fill:#000000; fill-opacity:1.0; 
stroke:#000000; stroke-width:39.3701; stroke-opacity:1; 
stroke-linecap:round; stroke-linejoin:round;">
</g>
<g style="fill:#000000; fill-opacity:1.0; 
stroke:#000000; stroke-width:0; stroke-opacity:1; 
stroke-linecap:round; stroke-linejoin:round;">
<polyline style="fill-rule:evenodd;"
points="49665,46043
49665,45059
50649,45059
50649,46043
49665,46043
" /> 
<circle cx="52126" cy="45551.2" r="492.126" /> 
</g>
<g style="fill:#000000; fill-opacity:1.0; 
stroke:#000000; stroke-width:39.3701; stroke-opacity:1; 
stroke-linecap:round; stroke-linejoin:round;">
</g>
<g style="fill:#000000; fill-opacity:1.0; 
stroke:#000000; stroke-width:0; stroke-opacity:1; 
stroke-linecap:round; stroke-linejoin:round;">
<circle cx="53015.7" cy="42000" r="314.961" /> 
</g>
<g style="fill:#000000; fill-opacity:1.0; 
stroke:#000000; stroke-width:39.3701; stroke-opacity:1; 
stroke-linecap:round; stroke-linejoin:round;">
</g>
<g style="fill:#000000; fill-opacity:1.0; 
stroke:#000000; stroke-width:0; stroke-opacity:1; 
stroke-linecap:round; stroke-linejoin:round;">
<circle cx="54000" cy="42000" r="314.961" /> 
</g>
<g style="fill:#000000; fill-opacity:1.0; 
stroke:#000000; stroke-width:39.3701; stroke-opacity:1; 
stroke-linecap:round; stroke-linejoin:round;">
</g>
<g style="fill:#000000; fill-opacity:1.0; 
stroke:#000000; stroke-width:0; stroke-opacity:1; 
stroke-linecap:round; stroke-linejoin:round;">
<circle cx="56515.7" cy="40000" r="314.961" /> 
</g>
<g style="fill:#000000; fill-opacity:1.0; 
stroke:#000000; stroke-width:39.3701; stroke-opacity:1; 
stroke-linecap:round; stroke-linejoin:round;">
</g>
<g style="fill:#000000; fill-opacity:1.0; 
stroke:#000000; stroke-width:0; stroke-opacity:1; 
stroke-linecap:round; stroke-linejoin:round;">
<circle cx="57500" cy="40000" r="314.961" /> 
</g>
<g style="fill:#000000; fill-opacity:1.0; 
stroke:#000000; stroke-width:39.3701; stroke-opacity:1; 
stroke-linecap:round; stroke-linejoin:round;">
</g>
<g style="fill:#000000; fill-opacity:1.0; 
stroke:#000000; stroke-width:0; stroke-opacity:1; 
stroke-linecap:round; stroke-linejoin:round;">
<polyline style="fill-rule:evenodd;"
points="65185,41814
65185,41185
65814,41185
65814,41814
65185,41814
" /> 
<circle cx="67468.5" cy="41500" r="314.961" /> 
</g>
<g style="fill:#000000; fill-opacity:1.0; 
stroke:#000000; stroke-width:39.3701; stroke-opacity:1; 
stroke-linecap:round; stroke-linejoin:round;">
</g>
<g style="fill:#000000; fill-opacity:1.0; 
stroke:#000000; stroke-width:0; stroke-opacity:1; 
stroke-linecap:round; stroke-linejoin:round;">
<polyline style="fill-rule:evenodd;"
points="51023,41929
50314,41929
50314,41220
51023,41220
51023,41929
" /> 
<circle cx="50669.3" cy="40574.8" r="354.331" /> 
</g>
<g style="fill:#000000; fill-opacity:1.0; 
stroke:#000000; stroke-width:39.3701; stroke-opacity:1; 
stroke-linecap:round; stroke-linejoin:round;">
</g>
<g style="fill:#000000; fill-opacity:1.0; 
stroke:#000000; stroke-width:0; stroke-opacity:1; 
stroke-linecap:round; stroke-linejoin:round;">
<polyline style="fill-rule:evenodd;"
points="48143,37244
48143,37755
47356,37755
47356,37244
48143,37244
" /> 
<polyline style="fill-rule:evenodd;"
points="45875,37236
45875,37748
45088,37748
45088,37236
45875,37236
" /> 
</g>
<g style="fill:#000000; fill-opacity:1.0; 
stroke:#000000; stroke-width:787.402; stroke-opacity:1; 
stroke-linecap:round; stroke-linejoin:round;">
</g>
<g style="fill:#000000; fill-opacity:0.0; 
stroke:#000000; stroke-width:787.402; stroke-opacity:1; 
stroke-linecap:round; stroke-linejoin:round;">
<path d="M53019 35001
L53019 35474
" />
<path d="M52027 35001
L52027 35474
" />
<path d="M54000 35013
L54000 35486
" />
</g>
<g style="fill:#000000; fill-opacity:1.0; 
stroke:#000000; stroke-width:0; stroke-opacity:1; 
stroke-linecap:round; stroke-linejoin:round;">
<circle cx="70000" cy="38996.1" r="393.701" /> 
</g>
<g style="fill:#000000; fill-opacity:1.0; 
stroke:#000000; stroke-width:39.3701; stroke-opacity:1; 
stroke-linecap:round; stroke-linejoin:round;">
</g>
<g style="fill:#000000; fill-opacity:1.0; 
stroke:#000000; stroke-width:0; stroke-opacity:1; 
stroke-linecap:round; stroke-linejoin:round;">
<circle cx="70015.7" cy="42921.3" r="393.701" /> 
</g>
<g style="fill:#000000; fill-opacity:1.0; 
stroke:#000000; stroke-width:39.3701; stroke-opacity:1; 
stroke-linecap:round; stroke-linejoin:round;">
</g>
<g style="fill:#000000; fill-opacity:1.0; 
stroke:#000000; stroke-width:0; stroke-opacity:1; 
stroke-linecap:round; stroke-linejoin:round;">
<circle cx="70003.9" cy="41913.4" r="393.701" /> 
</g>
<g style="fill:#000000; fill-opacity:1.0; 
stroke:#000000; stroke-width:39.3701; stroke-opacity:1; 
stroke-linecap:round; stroke-linejoin:round;">
</g>
<g style="fill:#000000; fill-opacity:1.0; 
stroke:#000000; stroke-width:0; stroke-opacity:1; 
stroke-linecap:round; stroke-linejoin:round;">
<circle cx="70000" cy="40000" r="393.701" /> 
</g>
<g style="fill:#000000; fill-opacity:1.0; 
stroke:#000000; stroke-width:39.3701; stroke-opacity:1; 
stroke-linecap:round; stroke-linejoin:round;">
</g>
<g style="fill:#000000; fill-opacity:1.0; 
stroke:#000000; stroke-width:0; stroke-opacity:1; 
stroke-linecap:round; stroke-linejoin:round;">
<circle cx="72177.2" cy="40972.4" r="393.701" /> 
</g>
<g style="fill:#000000; fill-opacity:1.0; 
stroke:#000000; stroke-width:39.3701; stroke-opacity:1; 
stroke-linecap:round; stroke-linejoin:round;">
</g>
<g style="fill:#000000; fill-opacity:1.0; 
stroke:#000000; stroke-width:0; stroke-opacity:1; 
stroke-linecap:round; stroke-linejoin:round;">
<circle cx="57000" cy="42000" r="196.85" /> 
</g>
<g style="fill:#000000; fill-opacity:1.0; 
stroke:#000000; stroke-width:39.3701; stroke-opacity:1; 
stroke-linecap:round; stroke-linejoin:round;">
</g>
<g style="fill:#000000; fill-opacity:1.0; 
stroke:#000000; stroke-width:0; stroke-opacity:1; 
stroke-linecap:round; stroke-linejoin:round;">
<circle cx="56500" cy="42500" r="196.85" /> 
</g>
<g style="fill:#000000; fill-opacity:1.0; 
stroke:#000000; stroke-width:39.3701; stroke-opacity:1; 
stroke-linecap:round; stroke-linejoin:round;">
</g>
<g style="fill:#000000; fill-opacity:1.0; 
stroke:#000000; stroke-width:0; stroke-opacity:1; 
stroke-linecap:round; stroke-linejoin:round;">
<polyline style="fill-rule:evenodd;"
points="56303,41696
56303,41303
56696,41303
56696,41696
56303,41696
" /> 
<circle cx="61000" cy="40000" r="196.85" /> 
</g>
<g style="fill:#000000; fill-opacity:1.0; 
stroke:#000000; stroke-width:39.3701; stroke-opacity:1; 
stroke-linecap:round; stroke-linejoin:round;">
</g>
<g style="fill:#000000; fill-opacity:1.0; 
stroke:#000000; stroke-width:0; stroke-opacity:1; 
stroke-linecap:round; stroke-linejoin:round;">
<circle cx="60500" cy="40500" r="196.85" /> 
</g>
<g style="fill:#000000; fill-opacity:1.0; 
stroke:#000000; stroke-width:39.3701; stroke-opacity:1; 
stroke-linecap:round; stroke-linejoin:round;">
</g>
<g style="fill:#000000; fill-opacity:1.0; 
stroke:#000000; stroke-width:0; stroke-opacity:1; 
stroke-linecap:round; stroke-linejoin:round;">
<polyline style="fill-rule:evenodd;"
points="60303,39696
60303,39303
60696,39303
60696,39696
60303,39696
" /> 
<polyline style="fill-rule:evenodd;"
points="63145,39145
63854,39145
63854,39854
63145,39854
63145,39145
" /> 
</g>
<g style="fill:#000000; fill-opacity:1.0; 
stroke:#000000; stroke-width:708.661; stroke-opacity:1; 
stroke-linecap:round; stroke-linejoin:round;">
</g>
<g style="fill:#000000; fill-opacity:0.0; 
stroke:#000000; stroke-width:708.661; stroke-opacity:1; 
stroke-linecap:round; stroke-linejoin:round;">
<path d="M63500 40500
L63500 40500
" />
<path d="M63500 41500
L63500 41500
" />
</g>
<g style="fill:#000000; fill-opacity:1.0; 
stroke:#000000; stroke-width:0; stroke-opacity:1; 
stroke-linecap:round; stroke-linejoin:round;">
<circle cx="52500" cy="38500" r="275.591" /> 
</g>
<g style="fill:#000000; fill-opacity:1.0; 
stroke:#000000; stroke-width:39.3701; stroke-opacity:1; 
stroke-linecap:round; stroke-linejoin:round;">
</g>
<g style="fill:#000000; fill-opacity:1.0; 
stroke:#000000; stroke-width:551.181; stroke-opacity:1; 
stroke-linecap:round; stroke-linejoin:round;">
</g>
<g style="fill:#000000; fill-opacity:0.0; 
stroke:#000000; stroke-width:551.181; stroke-opacity:1; 
stroke-linecap:round; stroke-linejoin:round;">
<path d="M49500 38500
L49500 38500
" />
</g>
<g style="fill:#000000; fill-opacity:1.0; 
stroke:#000000; stroke-width:0; stroke-opacity:1; 
stroke-linecap:round; stroke-linejoin:round;">
<circle cx="54000" cy="37000" r="275.591" /> 
</g>
<g style="fill:#000000; fill-opacity:1.0; 
stroke:#000000; stroke-width:39.3701; stroke-opacity:1; 
stroke-linecap:round; stroke-linejoin:round;">
</g>
<g style="fill:#000000; fill-opacity:1.0; 
stroke:#000000; stroke-width:551.181; stroke-opacity:1; 
stroke-linecap:round; stroke-linejoin:round;">
</g>
<g style="fill:#000000; fill-opacity:0.0; 
stroke:#000000; stroke-width:551.181; stroke-opacity:1; 
stroke-linecap:round; stroke-linejoin:round;">
<path d="M54000 40000
L54000 40000
" />
</g>
<g style="fill:#000000; fill-opacity:1.0; 
stroke:#000000; stroke-width:0; stroke-opacity:1; 
stroke-linecap:round; stroke-linejoin:round;">
<circle cx="54000" cy="44000" r="275.591" /> 
</g>
<g style="fill:#000000; fill-opacity:1.0; 
stroke:#000000; stroke-width:39.3701; stroke-opacity:1; 
stroke-linecap:round; stroke-linejoin:round;">
</g>
<g style="fill:#000000; fill-opacity:1.0; 
stroke:#000000; stroke-width:551.181; stroke-opacity:1; 
stroke-linecap:round; stroke-linejoin:round;">
</g>
<g style="fill:#000000; fill-opacity:0.0; 
stroke:#000000; stroke-width:551.181; stroke-opacity:1; 
stroke-linecap:round; stroke-linejoin:round;">
<path d="M54000 47000
L54000 47000
" />
</g>
<g style="fill:#000000; fill-opacity:1.0; 
stroke:#000000; stroke-width:0; stroke-opacity:1; 
stroke-linecap:round; stroke-linejoin:round;">
<circle cx="56500" cy="35250" r="275.591" /> 
</g>
<g style="fill:#000000; fill-opacity:1.0; 
stroke:#000000; stroke-width:39.3701; stroke-opacity:1; 
stroke-linecap:round; stroke-linejoin:round;">
</g>
<g style="fill:#000000; fill-opacity:1.0; 
stroke:#000000; stroke-width:551.181; stroke-opacity:1; 
stroke-linecap:round; stroke-linejoin:round;">
</g>
<g style="fill:#000000; fill-opacity:0.0; 
stroke:#000000; stroke-width:551.181; stroke-opacity:1; 
stroke-linecap:round; stroke-linejoin:round;">
<path d="M56500 38250
L56500 38250
" />
</g>
<g style="fill:#000000; fill-opacity:1.0; 
stroke:#000000; stroke-width:0; stroke-opacity:1; 
stroke-linecap:round; stroke-linejoin:round;">
<circle cx="56500" cy="44000" r="275.591" /> 
</g>
<g style="fill:#000000; fill-opacity:1.0; 
stroke:#000000; stroke-width:39.3701; stroke-opacity:1; 
stroke-linecap:round; stroke-linejoin:round;">
</g>
<g style="fill:#000000; fill-opacity:1.0; 
stroke:#000000; stroke-width:551.181; stroke-opacity:1; 
stroke-linecap:round; stroke-linejoin:round;">
</g>
<g style="fill:#000000; fill-opacity:0.0; 
stroke:#000000; stroke-width:551.181; stroke-opacity:1; 
stroke-linecap:round; stroke-linejoin:round;">
<path d="M56500 47000
L56500 47000
" />
</g>
<g style="fill:#000000; fill-opacity:1.0; 
stroke:#000000; stroke-width:0; stroke-opacity:1; 
stroke-linecap:round; stroke-linejoin:round;">
<circle cx="58500" cy="35250" r="275.591" /> 
</g>
<g style="fill:#000000; fill-opacity:1.0; 
stroke:#000000; stroke-width:39.3701; stroke-opacity:1; 
stroke-linecap:round; stroke-linejoin:round;">
</g>
<g style="fill:#000000; fill-opacity:1.0; 
stroke:#000000; stroke-width:551.181; stroke-opacity:1; 
stroke-linecap:round; stroke-linejoin:round;">
</g>
<g style="fill:#000000; fill-opacity:0.0; 
stroke:#000000; stroke-width:551.181; stroke-opacity:1; 
stroke-linecap:round; stroke-linejoin:round;">
<path d="M58500 38250
L58500 38250
" />
</g>
<g style="fill:#000000; fill-opacity:1.0; 
stroke:#000000; stroke-width:0; stroke-opacity:1; 
stroke-linecap:round; stroke-linejoin:round;">
<circle cx="58500" cy="44000" r="275.591" /> 
</g>
<g style="fill:#000000; fill-opacity:1.0; 
stroke:#000000; stroke-width:39.3701; stroke-opacity:1; 
stroke-linecap:round; stroke-linejoin:round;">
</g>
<g style="fill:#000000; fill-opacity:1.0; 
stroke:#000000; stroke-width:551.181; stroke-opacity:1; 
stroke-linecap:round; stroke-linejoin:round;">
</g>
<g style="fill:#000000; fill-opacity:0.0; 
stroke:#000000; stroke-width:551.181; stroke-opacity:1; 
stroke-linecap:round; stroke-linejoin:round;">
<path d="M58500 47000
L58500 47000
" />
</g>
<g style="fill:#000000; fill-opacity:1.0; 
stroke:#000000; stroke-width:0; stroke-opacity:1; 
stroke-linecap:round; stroke-linejoin:round;">
<circle cx="60500" cy="35250" r="275.591" /> 
</g>
<g style="fill:#000000; fill-opacity:1.0; 
stroke:#000000; stroke-width:39.3701; stroke-opacity:1; 
stroke-linecap:round; stroke-linejoin:round;">
</g>
<g style="fill:#000000; fill-opacity:1.0; 
stroke:#000000; stroke-width:551.181; stroke-opacity:1; 
stroke-linecap:round; stroke-linejoin:round;">
</g>
<g style="fill:#000000; fill-opacity:0.0; 
stroke:#000000; stroke-width:551.181; stroke-opacity:1; 
stroke-linecap:round; stroke-linejoin:round;">
<path d="M60500 38250
L60500 38250
" />
</g>
<g style="fill:#000000; fill-opacity:1.0; 
stroke:#000000; stroke-width:0; stroke-opacity:1; 
stroke-linecap:round; stroke-linejoin:round;">
<circle cx="60500" cy="44000" r="275.591" /> 
</g>
<g style="fill:#000000; fill-opacity:1.0; 
stroke:#000000; stroke-width:39.3701; stroke-opacity:1; 
stroke-linecap:round; stroke-linejoin:round;">
</g>
<g style="fill:#000000; fill-opacity:1.0; 
stroke:#000000; stroke-width:551.181; stroke-opacity:1; 
stroke-linecap:round; stroke-linejoin:round;">
</g>
<g style="fill:#000000; fill-opacity:0.0; 
stroke:#000000; stroke-width:551.181; stroke-opacity:1; 
stroke-linecap:round; stroke-linejoin:round;">
<path d="M60500 47000
L60500 47000
" />
</g>
<g style="fill:#000000; fill-opacity:1.0; 
stroke:#000000; stroke-width:0; stroke-opacity:1; 
stroke-linecap:round; stroke-linejoin:round;">
<circle cx="63500" cy="44000" r="275.591" /> 
</g>
<g style="fill:#000000; fill-opacity:1.0; 
stroke:#000000; stroke-width:39.3701; stroke-opacity:1; 
stroke-linecap:round; stroke-linejoin:round;">
</g>
<g style="fill:#000000; fill-opacity:1.0; 
stroke:#000000; stroke-width:551.181; stroke-opacity:1; 
stroke-linecap:round; stroke-linejoin:round;">
</g>
<g style="fill:#000000; fill-opacity:0.0; 
stroke:#000000; stroke-width:551.181; stroke-opacity:1; 
stroke-linecap:round; stroke-linejoin:round;">
<path d="M63500 47000
L63500 47000
" />
</g>
<g style="fill:#000000; fill-opacity:0.0; 
stroke:#000000; stroke-width:354.331; stroke-opacity:1; 
stroke-linecap:round; stroke-linejoin:round;">
<path d="M46141 41023
L47976 42858
" />
<path d="M47976 42858
L52157 42858
" />
<path d="M52157 42858
L53015 42000
" />
</g>
<g style="fill:#000000; fill-opacity:0.0; 
stroke:#000000; stroke-width:275.591; stroke-opacity:1; 
stroke-linecap:round; stroke-linejoin:round;">
<path d="M57000 42000
L54000 42000
" />
<path d="M54000 44000
L54000 42000
" />
<path d="M54000 40000
L54000 42000
" />
<path d="M56515 40000
L56515 38265
" />
<path d="M56515 38265
L56500 38250
" />
<path d="M56500 41500
L56500 40015
" />
<path d="M56500 40015
L56515 40000
" />
<path d="M59000 40000
L58500 40000
" />
<path d="M58500 40000
L58250 40000
" />
<path d="M58500 44000
L58500 40000
" />
<path d="M60388 40000
L59000 40000
" />
<path d="M58500 38250
L58500 38639
" />
<path d="M58500 38639
L59000 39139
" />
<path d="M59000 39139
L59000 40000
" />
<path d="M61000 40000
L60388 40000
" />
<path d="M57500 40000
L58250 40000
" />
</g>
<g style="fill:#000000; fill-opacity:0.0; 
stroke:#000000; stroke-width:354.331; stroke-opacity:1; 
stroke-linecap:round; stroke-linejoin:round;">
<path d="M63500 41500
L63500 44000
" />
<path d="M65500 41500
L63500 41500
" />
<path d="M70015 42921
L70015 41925
" />
<path d="M70015 41925
L70003 41913
" />
<path d="M70000 40000
L70000 38996
" />
<path d="M70003 41913
L67881 41913
" />
<path d="M67881 41913
L67468 41500
" />
<path d="M70015 42921
L70015 39011
" />
<path d="M70015 39011
L70000 38996
" />
<path d="M45250 44500
L51074 44500
" />
<path d="M51074 44500
L52125 45551
" />
<path d="M52027 35238
L45261 35238
" />
<path d="M45261 35238
L44500 36000
" />
<path d="M44500 36000
L44500 43750
" />
<path d="M44500 43750
L45250 44500
" />
<path d="M53019 35238
L52027 35238
" />
<path d="M46141 39055
L46141 38151
" />
<path d="M46141 38151
L45482 37492
" />
<path d="M45500 37509
L45482 37492
" />
<path d="M54000 38000
L53500 38500
" />
<path d="M53500 38500
L52500 38500
" />
<path d="M54000 37000
L54000 38000
" />
<path d="M54000 37000
L54000 35250
" />
<path d="M54000 35250
L56500 35250
" />
<path d="M65250 35500
L65000 35250
" />
<path d="M65000 35250
L56500 35250
" />
<path d="M65250 39750
L65250 35500
" />
<path d="M64500 40500
L65250 39750
" />
<path d="M63500 40500
L64500 40500
" />
</g>
<g style="fill:#000000; fill-opacity:0.0; 
stroke:#000000; stroke-width:275.591; stroke-opacity:1; 
stroke-linecap:round; stroke-linejoin:round;">
<path d="M56500 44000
L56500 42500
" />
<path d="M60500 44000
L60500 40500
" />
<path d="M60500 38250
L60500 39500
" />
<path d="M63500 39500
L60500 39500
" />
</g>
<g style="fill:#000000; fill-opacity:0.0; 
stroke:#000000; stroke-width:354.331; stroke-opacity:1; 
stroke-linecap:round; stroke-linejoin:round;">
<path d="M49500 38500
L49500 39405
" />
<path d="M49500 39405
L50669 40574
" />
</g>
<g style="fill:#000000; fill-opacity:1.0; 
stroke:#000000; stroke-width:78.7402; stroke-opacity:1; 
stroke-linecap:round; stroke-linejoin:round;">
<polyline style="fill-rule:evenodd;"
points="65808,33633
67341,34658
68366,36191
68736,38052
68746,38076
68751,38102
68766,38124
68776,38149
68795,38168
68809,38190
68831,38204
68850,38223
68875,38233
68897,38248
68923,38253
68947,38263
68974,38263
69000,38268
72731,38268
72731,43731
69000,43731
68974,43736
68947,43736
68923,43746
68897,43751
68875,43766
68850,43776
68831,43795
68809,43809
68795,43831
68776,43850
68766,43875
68751,43897
68746,43923
68736,43947
68366,45808
67341,47341
65808,48366
63973,48731
48026,48731
46574,48442
45365,47634
45022,47120
53625,47120
53699,47254
53820,47350
53879,47374
53939,47359
53939,47060
54060,47060
54060,47359
54120,47374
54179,47350
54300,47254
54374,47120
56125,47120
56199,47254
56320,47350
56379,47374
56439,47359
56439,47060
56560,47060
56560,47359
56620,47374
56679,47350
56800,47254
56874,47120
58125,47120
58199,47254
58320,47350
58379,47374
58439,47359
58439,47060
58560,47060
58560,47359
58620,47374
58679,47350
58800,47254
58874,47120
60125,47120
60199,47254
60320,47350
60379,47374
60439,47359
60439,47060
60560,47060
60560,47359
60620,47374
60679,47350
60800,47254
60874,47120
63125,47120
63199,47254
63320,47350
63379,47374
63439,47359
63439,47060
63560,47060
63560,47359
63620,47374
63679,47350
63800,47254
63874,47120
63859,47060
63560,47060
63439,47060
63140,47060
63125,47120
60874,47120
60859,47060
60560,47060
60439,47060
60140,47060
60125,47120
58874,47120
58859,47060
58560,47060
58439,47060
58140,47060
58125,47120
56874,47120
56859,47060
56560,47060
56439,47060
56140,47060
56125,47120
54374,47120
54359,47060
54060,47060
53939,47060
53640,47060
53625,47120
45022,47120
44860,46879
53625,46879
53640,46939
53939,46939
53939,46640
54060,46640
54060,46939
54359,46939
54374,46879
56125,46879
56140,46939
56439,46939
56439,46640
56560,46640
56560,46939
56859,46939
56874,46879
58125,46879
58140,46939
58439,46939
58439,46640
58560,46640
58560,46939
58859,46939
58874,46879
60125,46879
60140,46939
60439,46939
60439,46640
60560,46640
60560,46939
60859,46939
60874,46879
63125,46879
63140,46939
63439,46939
63439,46640
63560,46640
63560,46939
63859,46939
63874,46879
63800,46745
63679,46649
63620,46625
63560,46640
63439,46640
63379,46625
63320,46649
63199,46745
63125,46879
60874,46879
60800,46745
60679,46649
60620,46625
60560,46640
60439,46640
60379,46625
60320,46649
60199,46745
60125,46879
58874,46879
58800,46745
58679,46649
58620,46625
58560,46640
58439,46640
58379,46625
58320,46649
58199,46745
58125,46879
56874,46879
56800,46745
56679,46649
56620,46625
56560,46640
56439,46640
56379,46625
56320,46649
56199,46745
56125,46879
54374,46879
54300,46745
54179,46649
54120,46625
54060,46640
53939,46640
53879,46625
53820,46649
53699,46745
53625,46879
44860,46879
44557,46425
44401,45641
49547,45641
49547,46066
49565,46110
49598,46143
49641,46161
50067,46161
50096,46131
50096,45611
50218,45611
50218,46131
50247,46161
50673,46161
50716,46143
50749,46110
50767,46066
50767,45641
50738,45611
50218,45611
50096,45611
49576,45611
49547,45641
44401,45641
44281,45035
49547,45035
49547,45461
49576,45490
50096,45490
50096,44970
50218,44970
50218,45490
50738,45490
50767,45461
50767,45035
50749,44992
50716,44958
50673,44940
50247,44940
50218,44970
50096,44970
50067,44940
49641,44940
49598,44958
49565,44992
49547,45035
44281,45035
44268,44973
44268,44107
44955,44794
45090,44884
45250,44916
50902,44916
51394,45408
51394,45696
51505,45964
51711,46170
51979,46282
52270,46282
52539,46171
52745,45966
52857,45697
52857,45406
52746,45137
52540,44931
52272,44819
51983,44819
51369,44205
51234,44115
51074,44083
45422,44083
44916,43577
44916,43451
45767,43451
45826,43528
46056,43608
46298,43594
46456,43528
46515,43451
46141,43077
45767,43451
44916,43451
44916,42906
45525,42906
45539,43148
45605,43307
45681,43366
46055,42992
46227,42992
46601,43366
46678,43307
46758,43077
46743,42835
46678,42677
46601,42618
46227,42992
46055,42992
45681,42618
45605,42677
45525,42906
44916,42906
44916,42532
45767,42532
46141,42906
46515,42532
46456,42455
46227,42375
45984,42390
45826,42455
45767,42532
44916,42532
44916,37920
44993,37972
45088,37992
45393,37992
45725,38324
45725,38437
45521,38640
45410,38908
45410,39199
45521,39468
45726,39674
45995,39786
46286,39786
46555,39675
46761,39470
46873,39201
46873,38910
46762,38641
46621,38500
48974,38500
49014,38697
49083,38800
49083,39405
49115,39564
49205,39700
50075,40570
50075,40692
50165,40910
50332,41077
50391,41102
50291,41102
50248,41120
50214,41153
50196,41196
50196,41484
50226,41514
50608,41514
50608,41506
50729,41506
50729,41514
51112,41514
51141,41484
51141,41196
51123,41153
51090,41120
51047,41102
50947,41102
51005,41078
51172,40911
51262,40693
51263,40457
51172,40238
51006,40071
50787,39981
50664,39981
49916,39232
49916,38800
49985,38697
50025,38500
49985,38302
49874,38135
49707,38024
49510,37985
49489,37985
49292,38024
49125,38135
49014,38302
48974,38500
46621,38500
46558,38436
46558,38151
46526,37992
46436,37857
46169,37590
47238,37590
47238,37779
47256,37822
47289,37856
47332,37874
47659,37874
47689,37844
47689,37560
47810,37560
47810,37844
47840,37874
48167,37874
48210,37856
48243,37822
48261,37779
48261,37590
48232,37560
47810,37560
47689,37560
47267,37560
47238,37590
46169,37590
46120,37540
46120,37236
46117,37220
47238,37220
47238,37409
47267,37439
47689,37439
47689,37155
47810,37155
47810,37439
48232,37439
48261,37409
48261,37220
48243,37177
48210,37143
48167,37125
47840,37125
47810,37155
47689,37155
47659,37125
47332,37125
47289,37143
47256,37177
47238,37220
46117,37220
46103,37147
46050,37066
45970,37011
45875,36992
45088,36992
44999,37008
44918,37061
44916,37064
44916,36172
45434,35654
51426,35654
51442,35733
51579,35939
51785,36076
52027,36124
52269,36076
52475,35939
52523,35866
52572,35939
52777,36076
53019,36124
53261,36076
53467,35939
53505,35881
53552,35950
53583,35971
53583,36688
53563,36707
53485,36897
53484,37101
53563,37291
53583,37311
53583,37827
53327,38083
52811,38083
52792,38063
52602,37985
52398,37984
52208,38063
52063,38207
51985,38397
51984,38601
52063,38791
52207,38936
52397,39014
52601,39015
52791,38936
52811,38916
53500,38916
53659,38884
53794,38794
54294,38294
54384,38159
54416,38000
54416,37311
54436,37292
54514,37102
54515,36898
54436,36708
54416,36688
54416,35971
54447,35950
54584,35745
54600,35666
56188,35666
56207,35686
56397,35764
56601,35765
56791,35686
56811,35666
58188,35666
58207,35686
58397,35764
58601,35765
58791,35686
58811,35666
60188,35666
60207,35686
60397,35764
60601,35765
60791,35686
60811,35666
64827,35666
64833,35672
64833,39577
64327,40083
63933,40083
63943,40081
64024,40029
64079,39949
64098,39854
64098,39145
64081,39056
64029,38975
63949,38920
63854,38901
63145,38901
63056,38918
62975,38970
62920,39050
62906,39122
60877,39122
60877,38604
60975,38457
61014,38260
61014,38239
60975,38042
60864,37875
60697,37764
60500,37724
60302,37764
60135,37875
60024,38042
59985,38239
59985,38260
60024,38457
60122,38604
60122,39143
60078,39208
60059,39303
60059,39622
59377,39622
59377,39139
59348,38995
59266,38873
58925,38532
58975,38457
59014,38260
59014,38239
58975,38042
58864,37875
58697,37764
58500,37724
58302,37764
58135,37875
58024,38042
57985,38239
57985,38260
58024,38457
58122,38604
58122,38639
58151,38784
58233,38906
58622,39295
58622,39622
57906,39622
57814,39530
57610,39445
57390,39445
57186,39529
57030,39685
57007,39739
56985,39686
56892,39593
56892,38581
56975,38457
57014,38260
57014,38239
56975,38042
56864,37875
56697,37764
56500,37724
56302,37764
56135,37875
56024,38042
55985,38239
55985,38260
56024,38457
56135,38624
56138,38626
56138,39593
56046,39685
55961,39889
55961,40109
56045,40313
56122,40391
56122,41143
56078,41208
56059,41303
56059,41622
54406,41622
54377,41593
54377,40354
54475,40207
54514,40010
54514,39989
54475,39792
54364,39625
54197,39514
54000,39474
53802,39514
53635,39625
53524,39792
53485,39989
53485,40010
53524,40207
53622,40354
53622,41593
53530,41685
53507,41739
53485,41686
53330,41530
53126,41445
52905,41445
52702,41529
52546,41685
52461,41889
52461,41965
51984,42441
48148,42441
47372,41664
50196,41664
50196,41952
50214,41996
50248,42029
50291,42047
50579,42047
50608,42017
50608,41635
50729,41635
50729,42017
50759,42047
51047,42047
51090,42029
51123,41996
51141,41952
51141,41664
51112,41635
50729,41635
50608,41635
50226,41635
50196,41664
47372,41664
46873,41165
46873,40878
46762,40609
46556,40403
46287,40292
45996,40291
45727,40403
45521,40608
45410,40877
45410,41168
45521,41437
45726,41643
45995,41754
46284,41755
47681,43152
47816,43243
47976,43274
52157,43274
52316,43243
52452,43152
53050,42554
53125,42554
53329,42470
53485,42314
53507,42260
53529,42313
53622,42406
53622,43648
53563,43707
53485,43897
53484,44101
53563,44291
53707,44436
53897,44514
54101,44515
54291,44436
54436,44292
54514,44102
54515,43898
54436,43708
54377,43648
54377,42406
54406,42377
56078,42377
56063,42412
56063,42586
56122,42729
56122,43648
56063,43707
55985,43897
55984,44101
56063,44291
56207,44436
56397,44514
56601,44515
56791,44436
56936,44292
57014,44102
57015,43898
56936,43708
56877,43648
56877,42729
56936,42587
56936,42436
57086,42436
57246,42370
57369,42247
57436,42087
57436,41913
57370,41753
57247,41630
57087,41563
56940,41563
56940,41303
56924,41214
56877,41141
56877,40422
56985,40314
57007,40260
57029,40313
57185,40469
57389,40554
57609,40554
57813,40470
57906,40377
58122,40377
58122,43648
58063,43707
57985,43897
57984,44101
58063,44291
58207,44436
58397,44514
58601,44515
58791,44436
58936,44292
59014,44102
59015,43898
58936,43708
58877,43648
58877,40377
60078,40377
60063,40412
60063,40586
60122,40729
60122,43648
60063,43707
59985,43897
59984,44101
60063,44291
60207,44436
60397,44514
60601,44515
60791,44436
60936,44292
61014,44102
61015,43898
60936,43708
60877,43648
60877,40729
60936,40587
60936,40436
61086,40436
61246,40370
61369,40247
61436,40087
61436,39913
61421,39877
62905,39877
62918,39943
62970,40024
63050,40079
63070,40083
62951,40261
62906,40488
62906,40511
62951,40738
63080,40931
63182,41000
63080,41068
62951,41261
62906,41488
62906,41511
62951,41738
63080,41931
63083,41933
63083,43688
63063,43707
62985,43897
62984,44101
63063,44291
63207,44436
63397,44514
63601,44515
63791,44436
63936,44292
64014,44102
64015,43898
63936,43708
63916,43688
63916,41933
63919,41931
63929,41916
64965,41916
65010,41985
65090,42039
65185,42059
65814,42059
65903,42042
65985,41989
66039,41909
66059,41814
66059,41609
66914,41609
66998,41813
67154,41969
67357,42054
67433,42054
67587,42207
67722,42298
67881,42329
69525,42329
69599,42404
69599,42442
69479,42562
69382,42794
69382,43046
69478,43279
69656,43457
69889,43554
70141,43554
70373,43458
70552,43280
70648,43047
70648,42795
70552,42563
70432,42442
70432,42380
70540,42272
70636,42039
70637,41788
70540,41555
70432,41446
70432,41360
71874,41360
71921,41427
72115,41490
72318,41474
72432,41427
72479,41360
72177,41058
71874,41360
70432,41360
70432,40910
71659,40910
71674,41113
71722,41228
71788,41275
72091,40972
72262,40972
72565,41275
72632,41228
72695,41034
72679,40831
72632,40716
72565,40669
72262,40972
72091,40972
71788,40669
71722,40716
71659,40910
70432,40910
70432,40584
71874,40584
72177,40886
72479,40584
72432,40517
72239,40454
72036,40470
71921,40517
71874,40584
70432,40584
70432,40462
70536,40359
70632,40126
70633,39874
70537,39641
70432,39536
70432,39459
70536,39355
70632,39122
70633,38870
70537,38637
70359,38459
70126,38363
69874,38362
69641,38459
69463,38636
69367,38869
69366,39121
69462,39354
69583,39474
69583,39521
69463,39640
69367,39873
69366,40125
69462,40358
69599,40494
69599,41422
69525,41496
68054,41496
68022,41465
68022,41390
67938,41186
67782,41030
67579,40945
67358,40945
67154,41029
66998,41185
66914,41389
66914,41609
66059,41609
66059,41185
66042,41096
65989,41014
65909,40960
65814,40940
65185,40940
65096,40957
65014,41010
64964,41083
63929,41083
63919,41068
63817,41000
63919,40931
63929,40916
64500,40916
64659,40884
64794,40794
65544,40044
65634,39909
65666,39750
65666,35500
65634,35340
65544,35205
65294,34955
65159,34865
65000,34833
60811,34833
60792,34813
60602,34735
60398,34734
60208,34813
60188,34833
58811,34833
58792,34813
58602,34735
58398,34734
58208,34813
58188,34833
56811,34833
56792,34813
56602,34735
56398,34734
56208,34813
56188,34833
54600,34833
54584,34754
54447,34549
54242,34411
54000,34363
53757,34411
53552,34549
53513,34606
53467,34537
53261,34400
53019,34351
52777,34400
52572,34537
52523,34609
52475,34537
52269,34400
52027,34351
51785,34400
51579,34537
51442,34742
51426,34821
45261,34821
45102,34853
44988,34929
45365,34365
46574,33557
48026,33268
63973,33268
65808,33633
" /> 
</g> 
</svg>
