G04 #@! TF.FileFunction,Copper,L2,Bot,Signal*
%FSLAX46Y46*%
G04 Gerber Fmt 4.6, Leading zero omitted, Abs format (unit mm)*
G04 Created by KiCad (PCBNEW 4.0.6) date 06/16/17 19:06:26*
%MOMM*%
%LPD*%
G01*
G04 APERTURE LIST*
%ADD10C,0.100000*%
%ADD11C,2.500000*%
%ADD12R,2.500000X2.500000*%
%ADD13C,1.600000*%
%ADD14R,1.600000X1.600000*%
%ADD15R,1.800000X1.800000*%
%ADD16C,1.800000*%
%ADD17C,1.000000*%
%ADD18R,1.000000X1.000000*%
%ADD19O,1.800000X1.800000*%
%ADD20C,1.400000*%
%ADD21O,1.400000X1.400000*%
G04 APERTURE END LIST*
D10*
D11*
X117200000Y-104200000D03*
X117200000Y-109200000D03*
X117200000Y-99200000D03*
D12*
X127400000Y-115700000D03*
D11*
X132400000Y-115700000D03*
D13*
X134660000Y-106680000D03*
X137160000Y-106680000D03*
X143550000Y-101600000D03*
X146050000Y-101600000D03*
D14*
X166370000Y-105410000D03*
D13*
X171370000Y-105410000D03*
D15*
X128700000Y-105600000D03*
D16*
X128700000Y-103060000D03*
D17*
X144780000Y-106680000D03*
X143510000Y-107950000D03*
D18*
X143510000Y-105410000D03*
D17*
X154940000Y-101600000D03*
X153670000Y-102870000D03*
D18*
X153670000Y-100330000D03*
D15*
X161290000Y-100330000D03*
D19*
X161290000Y-102870000D03*
X161290000Y-105410000D03*
D20*
X133350000Y-97790000D03*
D21*
X125730000Y-97790000D03*
D20*
X137160000Y-93980000D03*
D21*
X137160000Y-101600000D03*
D20*
X137160000Y-111760000D03*
D21*
X137160000Y-119380000D03*
D20*
X143510000Y-89535000D03*
D21*
X143510000Y-97155000D03*
D20*
X143510000Y-111760000D03*
D21*
X143510000Y-119380000D03*
D20*
X148590000Y-89535000D03*
D21*
X148590000Y-97155000D03*
D20*
X148590000Y-111760000D03*
D21*
X148590000Y-119380000D03*
D20*
X153670000Y-89535000D03*
D21*
X153670000Y-97155000D03*
D20*
X153670000Y-111760000D03*
D21*
X153670000Y-119380000D03*
D20*
X161290000Y-111760000D03*
D21*
X161290000Y-119380000D03*
M02*
