G04 #@! TF.FileFunction,Legend,Top*
%FSLAX46Y46*%
G04 Gerber Fmt 4.6, Leading zero omitted, Abs format (unit mm)*
G04 Created by KiCad (PCBNEW 4.0.6) date 05/20/17 00:50:32*
%MOMM*%
%LPD*%
G01*
G04 APERTURE LIST*
%ADD10C,0.100000*%
%ADD11C,0.120000*%
%ADD12C,0.150000*%
G04 APERTURE END LIST*
D10*
D11*
X157226000Y-104140000D02*
G75*
G03X157226000Y-104140000I-2286000J0D01*
G01*
D12*
X112725000Y-90750000D02*
X112225000Y-90750000D01*
X118725000Y-93250000D02*
G75*
G03X118725000Y-93250000I-2000000J0D01*
G01*
X118725000Y-88250000D02*
G75*
G03X118725000Y-88250000I-2000000J0D01*
G01*
X114225000Y-85750000D02*
X114225000Y-95750000D01*
X119125000Y-85750000D02*
X119125000Y-95750000D01*
X112725000Y-85750000D02*
X112725000Y-95750000D01*
X112225000Y-85750000D02*
X112225000Y-95750000D01*
X112225000Y-95750000D02*
X122025000Y-95750000D01*
X122025000Y-95750000D02*
X122025000Y-85750000D01*
X122025000Y-85750000D02*
X112225000Y-85750000D01*
X171750000Y-90600000D02*
X172250000Y-90600000D01*
X169750000Y-88100000D02*
G75*
G03X169750000Y-88100000I-2000000J0D01*
G01*
X169750000Y-93100000D02*
G75*
G03X169750000Y-93100000I-2000000J0D01*
G01*
X170250000Y-95600000D02*
X170250000Y-85600000D01*
X165350000Y-95600000D02*
X165350000Y-85600000D01*
X171750000Y-95600000D02*
X171750000Y-85600000D01*
X172250000Y-95600000D02*
X172250000Y-85600000D01*
X172250000Y-85600000D02*
X162450000Y-85600000D01*
X162450000Y-85600000D02*
X162450000Y-95600000D01*
X162450000Y-95600000D02*
X172250000Y-95600000D01*
D11*
X128250000Y-79705000D02*
X128250000Y-83305000D01*
X128261522Y-79666522D02*
G75*
G02X132700000Y-81505000I1838478J-1838478D01*
G01*
X128261522Y-83343478D02*
G75*
G03X132700000Y-81505000I1838478J1838478D01*
G01*
X145640000Y-88310000D02*
X143920000Y-88310000D01*
X143920000Y-88310000D02*
X143920000Y-92030000D01*
X143920000Y-92030000D02*
X145640000Y-92030000D01*
X145640000Y-92030000D02*
X145640000Y-88310000D01*
X144780000Y-87240000D02*
X144780000Y-88310000D01*
X144780000Y-93100000D02*
X144780000Y-92030000D01*
X149000000Y-92030000D02*
X150720000Y-92030000D01*
X150720000Y-92030000D02*
X150720000Y-88310000D01*
X150720000Y-88310000D02*
X149000000Y-88310000D01*
X149000000Y-88310000D02*
X149000000Y-92030000D01*
X149860000Y-93100000D02*
X149860000Y-92030000D01*
X149860000Y-87240000D02*
X149860000Y-88310000D01*
X135810000Y-88310000D02*
X134090000Y-88310000D01*
X134090000Y-88310000D02*
X134090000Y-92030000D01*
X134090000Y-92030000D02*
X135810000Y-92030000D01*
X135810000Y-92030000D02*
X135810000Y-88310000D01*
X134950000Y-87240000D02*
X134950000Y-88310000D01*
X134950000Y-93100000D02*
X134950000Y-92030000D01*
X138965000Y-92030000D02*
X140685000Y-92030000D01*
X140685000Y-92030000D02*
X140685000Y-88310000D01*
X140685000Y-88310000D02*
X138965000Y-88310000D01*
X138965000Y-88310000D02*
X138965000Y-92030000D01*
X139825000Y-93100000D02*
X139825000Y-92030000D01*
X139825000Y-87240000D02*
X139825000Y-88310000D01*
X131826000Y-104140000D02*
G75*
G03X131826000Y-104140000I-2286000J0D01*
G01*
X115365000Y-78965000D02*
X125985000Y-78965000D01*
X115365000Y-84085000D02*
X125985000Y-84085000D01*
X115365000Y-78965000D02*
X115365000Y-84085000D01*
X125985000Y-78965000D02*
X125985000Y-84085000D01*
X130785000Y-85515000D02*
X130785000Y-96135000D01*
X125665000Y-85515000D02*
X125665000Y-96135000D01*
X130785000Y-85515000D02*
X125665000Y-85515000D01*
X130785000Y-96135000D02*
X125665000Y-96135000D01*
X159235000Y-85290000D02*
X159235000Y-95910000D01*
X154115000Y-85290000D02*
X154115000Y-95910000D01*
X159235000Y-85290000D02*
X154115000Y-85290000D01*
X159235000Y-95910000D02*
X154115000Y-95910000D01*
D12*
X154606667Y-100544381D02*
X154606667Y-101258667D01*
X154559047Y-101401524D01*
X154463809Y-101496762D01*
X154320952Y-101544381D01*
X154225714Y-101544381D01*
X155035238Y-100639619D02*
X155082857Y-100592000D01*
X155178095Y-100544381D01*
X155416191Y-100544381D01*
X155511429Y-100592000D01*
X155559048Y-100639619D01*
X155606667Y-100734857D01*
X155606667Y-100830095D01*
X155559048Y-100972952D01*
X154987619Y-101544381D01*
X155606667Y-101544381D01*
X113202381Y-101129762D02*
X112202381Y-101129762D01*
X113202381Y-100653572D02*
X112202381Y-100653572D01*
X113202381Y-100082143D01*
X112202381Y-100082143D01*
X113202381Y-99605953D02*
X112202381Y-99605953D01*
X112202381Y-99225000D01*
X112250000Y-99129762D01*
X112297619Y-99082143D01*
X112392857Y-99034524D01*
X112535714Y-99034524D01*
X112630952Y-99082143D01*
X112678571Y-99129762D01*
X112726190Y-99225000D01*
X112726190Y-99605953D01*
X112202381Y-98605953D02*
X113011905Y-98605953D01*
X113107143Y-98558334D01*
X113154762Y-98510715D01*
X113202381Y-98415477D01*
X113202381Y-98225000D01*
X113154762Y-98129762D01*
X113107143Y-98082143D01*
X113011905Y-98034524D01*
X112202381Y-98034524D01*
X112202381Y-97701191D02*
X112202381Y-97129762D01*
X113202381Y-97415477D02*
X112202381Y-97415477D01*
X113202381Y-96272619D02*
X113202381Y-96844048D01*
X113202381Y-96558334D02*
X112202381Y-96558334D01*
X112345238Y-96653572D01*
X112440476Y-96748810D01*
X112488095Y-96844048D01*
X171402381Y-99701191D02*
X171402381Y-99510714D01*
X171450000Y-99415476D01*
X171545238Y-99320238D01*
X171735714Y-99272619D01*
X172069048Y-99272619D01*
X172259524Y-99320238D01*
X172354762Y-99415476D01*
X172402381Y-99510714D01*
X172402381Y-99701191D01*
X172354762Y-99796429D01*
X172259524Y-99891667D01*
X172069048Y-99939286D01*
X171735714Y-99939286D01*
X171545238Y-99891667D01*
X171450000Y-99796429D01*
X171402381Y-99701191D01*
X171402381Y-98844048D02*
X172211905Y-98844048D01*
X172307143Y-98796429D01*
X172354762Y-98748810D01*
X172402381Y-98653572D01*
X172402381Y-98463095D01*
X172354762Y-98367857D01*
X172307143Y-98320238D01*
X172211905Y-98272619D01*
X171402381Y-98272619D01*
X171402381Y-97939286D02*
X171402381Y-97367857D01*
X172402381Y-97653572D02*
X171402381Y-97653572D01*
X172402381Y-96510714D02*
X172402381Y-97082143D01*
X172402381Y-96796429D02*
X171402381Y-96796429D01*
X171545238Y-96891667D01*
X171640476Y-96986905D01*
X171688095Y-97082143D01*
X134207619Y-81600238D02*
X134160000Y-81695476D01*
X134064762Y-81790714D01*
X133921905Y-81933571D01*
X133874286Y-82028810D01*
X133874286Y-82124048D01*
X134112381Y-82076429D02*
X134064762Y-82171667D01*
X133969524Y-82266905D01*
X133779048Y-82314524D01*
X133445714Y-82314524D01*
X133255238Y-82266905D01*
X133160000Y-82171667D01*
X133112381Y-82076429D01*
X133112381Y-81885952D01*
X133160000Y-81790714D01*
X133255238Y-81695476D01*
X133445714Y-81647857D01*
X133779048Y-81647857D01*
X133969524Y-81695476D01*
X134064762Y-81790714D01*
X134112381Y-81885952D01*
X134112381Y-82076429D01*
X134112381Y-80695476D02*
X134112381Y-81266905D01*
X134112381Y-80981191D02*
X133112381Y-80981191D01*
X133255238Y-81076429D01*
X133350476Y-81171667D01*
X133398095Y-81266905D01*
X147092381Y-90336666D02*
X146616190Y-90670000D01*
X147092381Y-90908095D02*
X146092381Y-90908095D01*
X146092381Y-90527142D01*
X146140000Y-90431904D01*
X146187619Y-90384285D01*
X146282857Y-90336666D01*
X146425714Y-90336666D01*
X146520952Y-90384285D01*
X146568571Y-90431904D01*
X146616190Y-90527142D01*
X146616190Y-90908095D01*
X146187619Y-89955714D02*
X146140000Y-89908095D01*
X146092381Y-89812857D01*
X146092381Y-89574761D01*
X146140000Y-89479523D01*
X146187619Y-89431904D01*
X146282857Y-89384285D01*
X146378095Y-89384285D01*
X146520952Y-89431904D01*
X147092381Y-90003333D01*
X147092381Y-89384285D01*
X148452381Y-90336666D02*
X147976190Y-90670000D01*
X148452381Y-90908095D02*
X147452381Y-90908095D01*
X147452381Y-90527142D01*
X147500000Y-90431904D01*
X147547619Y-90384285D01*
X147642857Y-90336666D01*
X147785714Y-90336666D01*
X147880952Y-90384285D01*
X147928571Y-90431904D01*
X147976190Y-90527142D01*
X147976190Y-90908095D01*
X147452381Y-90003333D02*
X147452381Y-89384285D01*
X147833333Y-89717619D01*
X147833333Y-89574761D01*
X147880952Y-89479523D01*
X147928571Y-89431904D01*
X148023810Y-89384285D01*
X148261905Y-89384285D01*
X148357143Y-89431904D01*
X148404762Y-89479523D01*
X148452381Y-89574761D01*
X148452381Y-89860476D01*
X148404762Y-89955714D01*
X148357143Y-90003333D01*
X137262381Y-90336666D02*
X136786190Y-90670000D01*
X137262381Y-90908095D02*
X136262381Y-90908095D01*
X136262381Y-90527142D01*
X136310000Y-90431904D01*
X136357619Y-90384285D01*
X136452857Y-90336666D01*
X136595714Y-90336666D01*
X136690952Y-90384285D01*
X136738571Y-90431904D01*
X136786190Y-90527142D01*
X136786190Y-90908095D01*
X136595714Y-89479523D02*
X137262381Y-89479523D01*
X136214762Y-89717619D02*
X136929048Y-89955714D01*
X136929048Y-89336666D01*
X138417381Y-90336666D02*
X137941190Y-90670000D01*
X138417381Y-90908095D02*
X137417381Y-90908095D01*
X137417381Y-90527142D01*
X137465000Y-90431904D01*
X137512619Y-90384285D01*
X137607857Y-90336666D01*
X137750714Y-90336666D01*
X137845952Y-90384285D01*
X137893571Y-90431904D01*
X137941190Y-90527142D01*
X137941190Y-90908095D01*
X138417381Y-89384285D02*
X138417381Y-89955714D01*
X138417381Y-89670000D02*
X137417381Y-89670000D01*
X137560238Y-89765238D01*
X137655476Y-89860476D01*
X137703095Y-89955714D01*
X129206667Y-100544381D02*
X129206667Y-101258667D01*
X129159047Y-101401524D01*
X129063809Y-101496762D01*
X128920952Y-101544381D01*
X128825714Y-101544381D01*
X130206667Y-101544381D02*
X129635238Y-101544381D01*
X129920952Y-101544381D02*
X129920952Y-100544381D01*
X129825714Y-100687238D01*
X129730476Y-100782476D01*
X129635238Y-100830095D01*
X120508334Y-78322143D02*
X120460715Y-78369762D01*
X120317858Y-78417381D01*
X120222620Y-78417381D01*
X120079762Y-78369762D01*
X119984524Y-78274524D01*
X119936905Y-78179286D01*
X119889286Y-77988810D01*
X119889286Y-77845952D01*
X119936905Y-77655476D01*
X119984524Y-77560238D01*
X120079762Y-77465000D01*
X120222620Y-77417381D01*
X120317858Y-77417381D01*
X120460715Y-77465000D01*
X120508334Y-77512619D01*
X121460715Y-78417381D02*
X120889286Y-78417381D01*
X121175000Y-78417381D02*
X121175000Y-77417381D01*
X121079762Y-77560238D01*
X120984524Y-77655476D01*
X120889286Y-77703095D01*
X132142143Y-90991666D02*
X132189762Y-91039285D01*
X132237381Y-91182142D01*
X132237381Y-91277380D01*
X132189762Y-91420238D01*
X132094524Y-91515476D01*
X131999286Y-91563095D01*
X131808810Y-91610714D01*
X131665952Y-91610714D01*
X131475476Y-91563095D01*
X131380238Y-91515476D01*
X131285000Y-91420238D01*
X131237381Y-91277380D01*
X131237381Y-91182142D01*
X131285000Y-91039285D01*
X131332619Y-90991666D01*
X131332619Y-90610714D02*
X131285000Y-90563095D01*
X131237381Y-90467857D01*
X131237381Y-90229761D01*
X131285000Y-90134523D01*
X131332619Y-90086904D01*
X131427857Y-90039285D01*
X131523095Y-90039285D01*
X131665952Y-90086904D01*
X132237381Y-90658333D01*
X132237381Y-90039285D01*
X160592143Y-90766666D02*
X160639762Y-90814285D01*
X160687381Y-90957142D01*
X160687381Y-91052380D01*
X160639762Y-91195238D01*
X160544524Y-91290476D01*
X160449286Y-91338095D01*
X160258810Y-91385714D01*
X160115952Y-91385714D01*
X159925476Y-91338095D01*
X159830238Y-91290476D01*
X159735000Y-91195238D01*
X159687381Y-91052380D01*
X159687381Y-90957142D01*
X159735000Y-90814285D01*
X159782619Y-90766666D01*
X159687381Y-90433333D02*
X159687381Y-89814285D01*
X160068333Y-90147619D01*
X160068333Y-90004761D01*
X160115952Y-89909523D01*
X160163571Y-89861904D01*
X160258810Y-89814285D01*
X160496905Y-89814285D01*
X160592143Y-89861904D01*
X160639762Y-89909523D01*
X160687381Y-90004761D01*
X160687381Y-90290476D01*
X160639762Y-90385714D01*
X160592143Y-90433333D01*
M02*
