G04 #@! TF.FileFunction,Copper,L2,Bot,Signal*
%FSLAX46Y46*%
G04 Gerber Fmt 4.6, Leading zero omitted, Abs format (unit mm)*
G04 Created by KiCad (PCBNEW 4.0.6) date 05/20/17 00:50:32*
%MOMM*%
%LPD*%
G01*
G04 APERTURE LIST*
%ADD10C,0.100000*%
%ADD11C,4.064000*%
%ADD12R,2.500000X2.500000*%
%ADD13C,2.500000*%
%ADD14C,1.000000*%
%ADD15R,1.000000X1.000000*%
%ADD16C,1.400000*%
%ADD17O,1.400000X1.400000*%
%ADD18C,2.000000*%
%ADD19C,0.700000*%
%ADD20C,0.500000*%
%ADD21C,1.000000*%
%ADD22C,0.250000*%
G04 APERTURE END LIST*
D10*
D11*
X154940000Y-104140000D03*
D12*
X116825000Y-88250000D03*
D13*
X116825000Y-93250000D03*
D12*
X167650000Y-93100000D03*
D13*
X167650000Y-88100000D03*
D14*
X131370000Y-81505000D03*
X130100000Y-82775000D03*
D15*
X130100000Y-80235000D03*
D16*
X144780000Y-86360000D03*
D17*
X144780000Y-93980000D03*
D16*
X149860000Y-93980000D03*
D17*
X149860000Y-86360000D03*
D16*
X134950000Y-86360000D03*
D17*
X134950000Y-93980000D03*
D16*
X139825000Y-93980000D03*
D17*
X139825000Y-86360000D03*
D11*
X129540000Y-104140000D03*
D18*
X118175000Y-81525000D03*
X123175000Y-81525000D03*
X128225000Y-88325000D03*
X128225000Y-93325000D03*
X156675000Y-88100000D03*
X156675000Y-93100000D03*
D19*
X116825000Y-88250000D02*
X116825000Y-82875000D01*
X116825000Y-82875000D02*
X118175000Y-81525000D01*
D20*
X144780000Y-86360000D02*
X139825000Y-86360000D01*
X131370000Y-81505000D02*
X134970000Y-81505000D01*
X134970000Y-81505000D02*
X139825000Y-86360000D01*
X123175000Y-81525000D02*
X131350000Y-81525000D01*
X131350000Y-81525000D02*
X131370000Y-81505000D01*
D19*
X130100000Y-86450000D02*
X130100000Y-83820000D01*
X130100000Y-83820000D02*
X130100000Y-82775000D01*
D20*
X132410000Y-83820000D02*
X130100000Y-83820000D01*
X134950000Y-86360000D02*
X132410000Y-83820000D01*
D19*
X128225000Y-88325000D02*
X130100000Y-86450000D01*
X146275000Y-80235000D02*
X149860000Y-83820000D01*
X149860000Y-83820000D02*
X149860000Y-86360000D01*
X130100000Y-80235000D02*
X146275000Y-80235000D01*
X151600000Y-88100000D02*
X149860000Y-86360000D01*
X156675000Y-88100000D02*
X151600000Y-88100000D01*
D21*
X156675000Y-93100000D02*
X167650000Y-93100000D01*
X139825000Y-96780000D02*
X148970000Y-96780000D01*
X148970000Y-96780000D02*
X149860000Y-95890000D01*
X149860000Y-95890000D02*
X149860000Y-93980000D01*
X139825000Y-96780000D02*
X139825000Y-98935000D01*
X139825000Y-93980000D02*
X139825000Y-96780000D01*
X139825000Y-98935000D02*
X134620000Y-104140000D01*
X134620000Y-104140000D02*
X129540000Y-104140000D01*
D22*
G36*
X167739799Y-77446959D02*
X169977713Y-78942284D01*
X171473041Y-81180200D01*
X172012000Y-83889732D01*
X172012000Y-100215791D01*
X170986137Y-104980226D01*
X168252320Y-108935549D01*
X164191450Y-111557494D01*
X161205654Y-112322000D01*
X124526974Y-112322000D01*
X119863543Y-111431765D01*
X115957504Y-108865239D01*
X113318963Y-104981641D01*
X113234666Y-104667776D01*
X126874539Y-104667776D01*
X127279406Y-105647629D01*
X128028428Y-106397959D01*
X129007573Y-106804536D01*
X130067776Y-106805461D01*
X131047629Y-106400594D01*
X131551320Y-105897781D01*
X153364652Y-105897781D01*
X153603841Y-106198534D01*
X154493316Y-106553163D01*
X155450796Y-106540410D01*
X156276159Y-106198534D01*
X156515348Y-105897781D01*
X154940000Y-104322434D01*
X153364652Y-105897781D01*
X131551320Y-105897781D01*
X131797959Y-105651572D01*
X131955156Y-105273000D01*
X134620000Y-105273000D01*
X135053581Y-105186756D01*
X135421152Y-104941152D01*
X136668988Y-103693316D01*
X152526837Y-103693316D01*
X152539590Y-104650796D01*
X152881466Y-105476159D01*
X153182219Y-105715348D01*
X154757566Y-104140000D01*
X155122434Y-104140000D01*
X156697781Y-105715348D01*
X156998534Y-105476159D01*
X157353163Y-104586684D01*
X157340410Y-103629204D01*
X156998534Y-102803841D01*
X156697781Y-102564652D01*
X155122434Y-104140000D01*
X154757566Y-104140000D01*
X153182219Y-102564652D01*
X152881466Y-102803841D01*
X152526837Y-103693316D01*
X136668988Y-103693316D01*
X137980085Y-102382219D01*
X153364652Y-102382219D01*
X154940000Y-103957566D01*
X156515348Y-102382219D01*
X156276159Y-102081466D01*
X155386684Y-101726837D01*
X154429204Y-101739590D01*
X153603841Y-102081466D01*
X153364652Y-102382219D01*
X137980085Y-102382219D01*
X140626152Y-99736152D01*
X140871756Y-99368581D01*
X140958000Y-98935000D01*
X140958000Y-97913000D01*
X148970000Y-97913000D01*
X149403581Y-97826756D01*
X149771152Y-97581152D01*
X150661152Y-96691152D01*
X150906756Y-96323581D01*
X150993000Y-95890000D01*
X150993000Y-94727407D01*
X151192768Y-94246313D01*
X151193231Y-93716013D01*
X151072325Y-93423399D01*
X155041718Y-93423399D01*
X155289803Y-94023812D01*
X155748772Y-94483582D01*
X156348751Y-94732716D01*
X156998399Y-94733282D01*
X157598812Y-94485197D01*
X157851449Y-94233000D01*
X165754599Y-94233000D01*
X165754599Y-94350000D01*
X165798737Y-94584576D01*
X165937372Y-94800019D01*
X166148903Y-94944553D01*
X166400000Y-94995401D01*
X168900000Y-94995401D01*
X169134576Y-94951263D01*
X169350019Y-94812628D01*
X169494553Y-94601097D01*
X169545401Y-94350000D01*
X169545401Y-91850000D01*
X169501263Y-91615424D01*
X169362628Y-91399981D01*
X169151097Y-91255447D01*
X168900000Y-91204599D01*
X166400000Y-91204599D01*
X166165424Y-91248737D01*
X165949981Y-91387372D01*
X165805447Y-91598903D01*
X165754599Y-91850000D01*
X165754599Y-91967000D01*
X157851373Y-91967000D01*
X157601228Y-91716418D01*
X157001249Y-91467284D01*
X156351601Y-91466718D01*
X155751188Y-91714803D01*
X155291418Y-92173772D01*
X155042284Y-92773751D01*
X155041718Y-93423399D01*
X151072325Y-93423399D01*
X150990721Y-93225903D01*
X150616070Y-92850597D01*
X150126313Y-92647232D01*
X149596013Y-92646769D01*
X149105903Y-92849279D01*
X148730597Y-93223930D01*
X148527232Y-93713687D01*
X148526769Y-94243987D01*
X148727000Y-94728581D01*
X148727000Y-95420696D01*
X148500696Y-95647000D01*
X140958000Y-95647000D01*
X140958000Y-94727407D01*
X141146119Y-94274366D01*
X143746074Y-94274366D01*
X143937426Y-94647625D01*
X144257052Y-94919244D01*
X144485636Y-95013913D01*
X144651000Y-94952734D01*
X144651000Y-94109000D01*
X144909000Y-94109000D01*
X144909000Y-94952734D01*
X145074364Y-95013913D01*
X145302948Y-94919244D01*
X145622574Y-94647625D01*
X145813926Y-94274366D01*
X145753496Y-94109000D01*
X144909000Y-94109000D01*
X144651000Y-94109000D01*
X143806504Y-94109000D01*
X143746074Y-94274366D01*
X141146119Y-94274366D01*
X141157768Y-94246313D01*
X141158231Y-93716013D01*
X141145679Y-93685634D01*
X143746074Y-93685634D01*
X143806504Y-93851000D01*
X144651000Y-93851000D01*
X144651000Y-93007266D01*
X144909000Y-93007266D01*
X144909000Y-93851000D01*
X145753496Y-93851000D01*
X145813926Y-93685634D01*
X145622574Y-93312375D01*
X145302948Y-93040756D01*
X145074364Y-92946087D01*
X144909000Y-93007266D01*
X144651000Y-93007266D01*
X144485636Y-92946087D01*
X144257052Y-93040756D01*
X143937426Y-93312375D01*
X143746074Y-93685634D01*
X141145679Y-93685634D01*
X140955721Y-93225903D01*
X140581070Y-92850597D01*
X140091313Y-92647232D01*
X139561013Y-92646769D01*
X139070903Y-92849279D01*
X138695597Y-93223930D01*
X138492232Y-93713687D01*
X138491769Y-94243987D01*
X138692000Y-94728581D01*
X138692000Y-98465696D01*
X134150696Y-103007000D01*
X131955388Y-103007000D01*
X131800594Y-102632371D01*
X131051572Y-101882041D01*
X130072427Y-101475464D01*
X129012224Y-101474539D01*
X128032371Y-101879406D01*
X127282041Y-102628428D01*
X126875464Y-103607573D01*
X126874539Y-104667776D01*
X113234666Y-104667776D01*
X112467628Y-101811880D01*
X112467978Y-94442715D01*
X115814718Y-94442715D01*
X115958456Y-94662163D01*
X116564829Y-94886280D01*
X117210810Y-94861288D01*
X117691544Y-94662163D01*
X117835282Y-94442715D01*
X117729304Y-94336737D01*
X127395697Y-94336737D01*
X127508821Y-94530204D01*
X128024549Y-94712534D01*
X128570794Y-94683624D01*
X128941179Y-94530204D01*
X129054303Y-94336737D01*
X128991932Y-94274366D01*
X133916074Y-94274366D01*
X134107426Y-94647625D01*
X134427052Y-94919244D01*
X134655636Y-95013913D01*
X134821000Y-94952734D01*
X134821000Y-94109000D01*
X135079000Y-94109000D01*
X135079000Y-94952734D01*
X135244364Y-95013913D01*
X135472948Y-94919244D01*
X135792574Y-94647625D01*
X135983926Y-94274366D01*
X135923496Y-94109000D01*
X135079000Y-94109000D01*
X134821000Y-94109000D01*
X133976504Y-94109000D01*
X133916074Y-94274366D01*
X128991932Y-94274366D01*
X128225000Y-93507434D01*
X127395697Y-94336737D01*
X117729304Y-94336737D01*
X116825000Y-93432434D01*
X115814718Y-94442715D01*
X112467978Y-94442715D01*
X112468000Y-93980034D01*
X112467997Y-93980017D01*
X112468000Y-93980000D01*
X112468000Y-92989829D01*
X115188720Y-92989829D01*
X115213712Y-93635810D01*
X115412837Y-94116544D01*
X115632285Y-94260282D01*
X116642566Y-93250000D01*
X117007434Y-93250000D01*
X118017715Y-94260282D01*
X118237163Y-94116544D01*
X118461280Y-93510171D01*
X118446361Y-93124549D01*
X126837466Y-93124549D01*
X126866376Y-93670794D01*
X127019796Y-94041179D01*
X127213263Y-94154303D01*
X128042566Y-93325000D01*
X128407434Y-93325000D01*
X129236737Y-94154303D01*
X129430204Y-94041179D01*
X129555903Y-93685634D01*
X133916074Y-93685634D01*
X133976504Y-93851000D01*
X134821000Y-93851000D01*
X134821000Y-93007266D01*
X135079000Y-93007266D01*
X135079000Y-93851000D01*
X135923496Y-93851000D01*
X135983926Y-93685634D01*
X135792574Y-93312375D01*
X135472948Y-93040756D01*
X135244364Y-92946087D01*
X135079000Y-93007266D01*
X134821000Y-93007266D01*
X134655636Y-92946087D01*
X134427052Y-93040756D01*
X134107426Y-93312375D01*
X133916074Y-93685634D01*
X129555903Y-93685634D01*
X129612534Y-93525451D01*
X129583624Y-92979206D01*
X129430204Y-92608821D01*
X129236737Y-92495697D01*
X128407434Y-93325000D01*
X128042566Y-93325000D01*
X127213263Y-92495697D01*
X127019796Y-92608821D01*
X126837466Y-93124549D01*
X118446361Y-93124549D01*
X118436288Y-92864190D01*
X118237163Y-92383456D01*
X118129998Y-92313263D01*
X127395697Y-92313263D01*
X128225000Y-93142566D01*
X129054303Y-92313263D01*
X128941179Y-92119796D01*
X128425451Y-91937466D01*
X127879206Y-91966376D01*
X127508821Y-92119796D01*
X127395697Y-92313263D01*
X118129998Y-92313263D01*
X118017715Y-92239718D01*
X117007434Y-93250000D01*
X116642566Y-93250000D01*
X115632285Y-92239718D01*
X115412837Y-92383456D01*
X115188720Y-92989829D01*
X112468000Y-92989829D01*
X112468000Y-92057285D01*
X115814718Y-92057285D01*
X116825000Y-93067566D01*
X117835282Y-92057285D01*
X117691544Y-91837837D01*
X117085171Y-91613720D01*
X116439190Y-91638712D01*
X115958456Y-91837837D01*
X115814718Y-92057285D01*
X112468000Y-92057285D01*
X112468000Y-87000000D01*
X114929599Y-87000000D01*
X114929599Y-89500000D01*
X114973737Y-89734576D01*
X115112372Y-89950019D01*
X115323903Y-90094553D01*
X115575000Y-90145401D01*
X118075000Y-90145401D01*
X118309576Y-90101263D01*
X118525019Y-89962628D01*
X118669553Y-89751097D01*
X118720401Y-89500000D01*
X118720401Y-87000000D01*
X118676263Y-86765424D01*
X118537628Y-86549981D01*
X118326097Y-86405447D01*
X118075000Y-86354599D01*
X117808000Y-86354599D01*
X117808000Y-83282172D01*
X117932383Y-83157789D01*
X118498399Y-83158282D01*
X119098812Y-82910197D01*
X119558582Y-82451228D01*
X119807716Y-81851249D01*
X119807718Y-81848399D01*
X121541718Y-81848399D01*
X121789803Y-82448812D01*
X122248772Y-82908582D01*
X122848751Y-83157716D01*
X123498399Y-83158282D01*
X124098812Y-82910197D01*
X124558582Y-82451228D01*
X124576532Y-82408000D01*
X129025597Y-82408000D01*
X128967197Y-82548644D01*
X128966804Y-82999379D01*
X129117000Y-83362883D01*
X129117000Y-86042828D01*
X128467617Y-86692211D01*
X127901601Y-86691718D01*
X127301188Y-86939803D01*
X126841418Y-87398772D01*
X126592284Y-87998751D01*
X126591718Y-88648399D01*
X126839803Y-89248812D01*
X127298772Y-89708582D01*
X127898751Y-89957716D01*
X128548399Y-89958282D01*
X129148812Y-89710197D01*
X129608582Y-89251228D01*
X129857716Y-88651249D01*
X129858212Y-88081960D01*
X130795086Y-87145086D01*
X131008174Y-86826178D01*
X131083000Y-86450000D01*
X131083000Y-84703000D01*
X132044250Y-84703000D01*
X133617073Y-86275824D01*
X133616769Y-86623987D01*
X133819279Y-87114097D01*
X134193930Y-87489403D01*
X134683687Y-87692768D01*
X135213987Y-87693231D01*
X135704097Y-87490721D01*
X136079403Y-87116070D01*
X136282768Y-86626313D01*
X136283231Y-86096013D01*
X136080721Y-85605903D01*
X135706070Y-85230597D01*
X135216313Y-85027232D01*
X134865677Y-85026926D01*
X133034375Y-83195625D01*
X132747910Y-83004214D01*
X132410000Y-82937000D01*
X131232859Y-82937000D01*
X131233120Y-82637881D01*
X131594379Y-82638196D01*
X132010955Y-82466071D01*
X132089162Y-82388000D01*
X134604250Y-82388000D01*
X138501645Y-86285395D01*
X138492000Y-86333885D01*
X138492000Y-86386115D01*
X138593469Y-86896232D01*
X138882427Y-87328688D01*
X139314883Y-87617646D01*
X139825000Y-87719115D01*
X140335117Y-87617646D01*
X140767573Y-87328688D01*
X140824828Y-87243000D01*
X143777957Y-87243000D01*
X144023930Y-87489403D01*
X144513687Y-87692768D01*
X145043987Y-87693231D01*
X145534097Y-87490721D01*
X145909403Y-87116070D01*
X146112768Y-86626313D01*
X146113231Y-86096013D01*
X145910721Y-85605903D01*
X145536070Y-85230597D01*
X145046313Y-85027232D01*
X144516013Y-85026769D01*
X144025903Y-85229279D01*
X143777749Y-85477000D01*
X140824828Y-85477000D01*
X140767573Y-85391312D01*
X140335117Y-85102354D01*
X139825000Y-85000885D01*
X139732946Y-85019196D01*
X135931750Y-81218000D01*
X145867828Y-81218000D01*
X148877000Y-84227172D01*
X148877000Y-85451815D01*
X148628469Y-85823768D01*
X148527000Y-86333885D01*
X148527000Y-86386115D01*
X148628469Y-86896232D01*
X148917427Y-87328688D01*
X149349883Y-87617646D01*
X149821231Y-87711403D01*
X150904914Y-88795086D01*
X151223822Y-89008174D01*
X151600000Y-89083000D01*
X155348888Y-89083000D01*
X155748772Y-89483582D01*
X156348751Y-89732716D01*
X156998399Y-89733282D01*
X157598812Y-89485197D01*
X157791629Y-89292715D01*
X166639718Y-89292715D01*
X166783456Y-89512163D01*
X167389829Y-89736280D01*
X168035810Y-89711288D01*
X168516544Y-89512163D01*
X168660282Y-89292715D01*
X167650000Y-88282434D01*
X166639718Y-89292715D01*
X157791629Y-89292715D01*
X158058582Y-89026228D01*
X158307716Y-88426249D01*
X158308226Y-87839829D01*
X166013720Y-87839829D01*
X166038712Y-88485810D01*
X166237837Y-88966544D01*
X166457285Y-89110282D01*
X167467566Y-88100000D01*
X167832434Y-88100000D01*
X168842715Y-89110282D01*
X169062163Y-88966544D01*
X169286280Y-88360171D01*
X169261288Y-87714190D01*
X169062163Y-87233456D01*
X168842715Y-87089718D01*
X167832434Y-88100000D01*
X167467566Y-88100000D01*
X166457285Y-87089718D01*
X166237837Y-87233456D01*
X166013720Y-87839829D01*
X158308226Y-87839829D01*
X158308282Y-87776601D01*
X158060197Y-87176188D01*
X157791763Y-86907285D01*
X166639718Y-86907285D01*
X167650000Y-87917566D01*
X168660282Y-86907285D01*
X168516544Y-86687837D01*
X167910171Y-86463720D01*
X167264190Y-86488712D01*
X166783456Y-86687837D01*
X166639718Y-86907285D01*
X157791763Y-86907285D01*
X157601228Y-86716418D01*
X157001249Y-86467284D01*
X156351601Y-86466718D01*
X155751188Y-86714803D01*
X155348289Y-87117000D01*
X152007172Y-87117000D01*
X151185288Y-86295116D01*
X151091531Y-85823768D01*
X150843000Y-85451815D01*
X150843000Y-83820000D01*
X150768174Y-83443822D01*
X150555086Y-83124914D01*
X146970086Y-79539914D01*
X146651178Y-79326826D01*
X146275000Y-79252000D01*
X131014359Y-79252000D01*
X130851097Y-79140447D01*
X130600000Y-79089599D01*
X129600000Y-79089599D01*
X129365424Y-79133737D01*
X129149981Y-79272372D01*
X129005447Y-79483903D01*
X128954599Y-79735000D01*
X128954599Y-80642000D01*
X124577060Y-80642000D01*
X124560197Y-80601188D01*
X124101228Y-80141418D01*
X123501249Y-79892284D01*
X122851601Y-79891718D01*
X122251188Y-80139803D01*
X121791418Y-80598772D01*
X121542284Y-81198751D01*
X121541718Y-81848399D01*
X119807718Y-81848399D01*
X119808282Y-81201601D01*
X119560197Y-80601188D01*
X119101228Y-80141418D01*
X118501249Y-79892284D01*
X117851601Y-79891718D01*
X117251188Y-80139803D01*
X116791418Y-80598772D01*
X116542284Y-81198751D01*
X116541788Y-81768040D01*
X116129914Y-82179914D01*
X115916826Y-82498822D01*
X115842000Y-82875000D01*
X115842000Y-86354599D01*
X115575000Y-86354599D01*
X115340424Y-86398737D01*
X115124981Y-86537372D01*
X114980447Y-86748903D01*
X114929599Y-87000000D01*
X112468000Y-87000000D01*
X112468000Y-83889732D01*
X113006959Y-81180201D01*
X114502284Y-78942287D01*
X116740200Y-77446959D01*
X119449732Y-76908000D01*
X165030268Y-76908000D01*
X167739799Y-77446959D01*
X167739799Y-77446959D01*
G37*
X167739799Y-77446959D02*
X169977713Y-78942284D01*
X171473041Y-81180200D01*
X172012000Y-83889732D01*
X172012000Y-100215791D01*
X170986137Y-104980226D01*
X168252320Y-108935549D01*
X164191450Y-111557494D01*
X161205654Y-112322000D01*
X124526974Y-112322000D01*
X119863543Y-111431765D01*
X115957504Y-108865239D01*
X113318963Y-104981641D01*
X113234666Y-104667776D01*
X126874539Y-104667776D01*
X127279406Y-105647629D01*
X128028428Y-106397959D01*
X129007573Y-106804536D01*
X130067776Y-106805461D01*
X131047629Y-106400594D01*
X131551320Y-105897781D01*
X153364652Y-105897781D01*
X153603841Y-106198534D01*
X154493316Y-106553163D01*
X155450796Y-106540410D01*
X156276159Y-106198534D01*
X156515348Y-105897781D01*
X154940000Y-104322434D01*
X153364652Y-105897781D01*
X131551320Y-105897781D01*
X131797959Y-105651572D01*
X131955156Y-105273000D01*
X134620000Y-105273000D01*
X135053581Y-105186756D01*
X135421152Y-104941152D01*
X136668988Y-103693316D01*
X152526837Y-103693316D01*
X152539590Y-104650796D01*
X152881466Y-105476159D01*
X153182219Y-105715348D01*
X154757566Y-104140000D01*
X155122434Y-104140000D01*
X156697781Y-105715348D01*
X156998534Y-105476159D01*
X157353163Y-104586684D01*
X157340410Y-103629204D01*
X156998534Y-102803841D01*
X156697781Y-102564652D01*
X155122434Y-104140000D01*
X154757566Y-104140000D01*
X153182219Y-102564652D01*
X152881466Y-102803841D01*
X152526837Y-103693316D01*
X136668988Y-103693316D01*
X137980085Y-102382219D01*
X153364652Y-102382219D01*
X154940000Y-103957566D01*
X156515348Y-102382219D01*
X156276159Y-102081466D01*
X155386684Y-101726837D01*
X154429204Y-101739590D01*
X153603841Y-102081466D01*
X153364652Y-102382219D01*
X137980085Y-102382219D01*
X140626152Y-99736152D01*
X140871756Y-99368581D01*
X140958000Y-98935000D01*
X140958000Y-97913000D01*
X148970000Y-97913000D01*
X149403581Y-97826756D01*
X149771152Y-97581152D01*
X150661152Y-96691152D01*
X150906756Y-96323581D01*
X150993000Y-95890000D01*
X150993000Y-94727407D01*
X151192768Y-94246313D01*
X151193231Y-93716013D01*
X151072325Y-93423399D01*
X155041718Y-93423399D01*
X155289803Y-94023812D01*
X155748772Y-94483582D01*
X156348751Y-94732716D01*
X156998399Y-94733282D01*
X157598812Y-94485197D01*
X157851449Y-94233000D01*
X165754599Y-94233000D01*
X165754599Y-94350000D01*
X165798737Y-94584576D01*
X165937372Y-94800019D01*
X166148903Y-94944553D01*
X166400000Y-94995401D01*
X168900000Y-94995401D01*
X169134576Y-94951263D01*
X169350019Y-94812628D01*
X169494553Y-94601097D01*
X169545401Y-94350000D01*
X169545401Y-91850000D01*
X169501263Y-91615424D01*
X169362628Y-91399981D01*
X169151097Y-91255447D01*
X168900000Y-91204599D01*
X166400000Y-91204599D01*
X166165424Y-91248737D01*
X165949981Y-91387372D01*
X165805447Y-91598903D01*
X165754599Y-91850000D01*
X165754599Y-91967000D01*
X157851373Y-91967000D01*
X157601228Y-91716418D01*
X157001249Y-91467284D01*
X156351601Y-91466718D01*
X155751188Y-91714803D01*
X155291418Y-92173772D01*
X155042284Y-92773751D01*
X155041718Y-93423399D01*
X151072325Y-93423399D01*
X150990721Y-93225903D01*
X150616070Y-92850597D01*
X150126313Y-92647232D01*
X149596013Y-92646769D01*
X149105903Y-92849279D01*
X148730597Y-93223930D01*
X148527232Y-93713687D01*
X148526769Y-94243987D01*
X148727000Y-94728581D01*
X148727000Y-95420696D01*
X148500696Y-95647000D01*
X140958000Y-95647000D01*
X140958000Y-94727407D01*
X141146119Y-94274366D01*
X143746074Y-94274366D01*
X143937426Y-94647625D01*
X144257052Y-94919244D01*
X144485636Y-95013913D01*
X144651000Y-94952734D01*
X144651000Y-94109000D01*
X144909000Y-94109000D01*
X144909000Y-94952734D01*
X145074364Y-95013913D01*
X145302948Y-94919244D01*
X145622574Y-94647625D01*
X145813926Y-94274366D01*
X145753496Y-94109000D01*
X144909000Y-94109000D01*
X144651000Y-94109000D01*
X143806504Y-94109000D01*
X143746074Y-94274366D01*
X141146119Y-94274366D01*
X141157768Y-94246313D01*
X141158231Y-93716013D01*
X141145679Y-93685634D01*
X143746074Y-93685634D01*
X143806504Y-93851000D01*
X144651000Y-93851000D01*
X144651000Y-93007266D01*
X144909000Y-93007266D01*
X144909000Y-93851000D01*
X145753496Y-93851000D01*
X145813926Y-93685634D01*
X145622574Y-93312375D01*
X145302948Y-93040756D01*
X145074364Y-92946087D01*
X144909000Y-93007266D01*
X144651000Y-93007266D01*
X144485636Y-92946087D01*
X144257052Y-93040756D01*
X143937426Y-93312375D01*
X143746074Y-93685634D01*
X141145679Y-93685634D01*
X140955721Y-93225903D01*
X140581070Y-92850597D01*
X140091313Y-92647232D01*
X139561013Y-92646769D01*
X139070903Y-92849279D01*
X138695597Y-93223930D01*
X138492232Y-93713687D01*
X138491769Y-94243987D01*
X138692000Y-94728581D01*
X138692000Y-98465696D01*
X134150696Y-103007000D01*
X131955388Y-103007000D01*
X131800594Y-102632371D01*
X131051572Y-101882041D01*
X130072427Y-101475464D01*
X129012224Y-101474539D01*
X128032371Y-101879406D01*
X127282041Y-102628428D01*
X126875464Y-103607573D01*
X126874539Y-104667776D01*
X113234666Y-104667776D01*
X112467628Y-101811880D01*
X112467978Y-94442715D01*
X115814718Y-94442715D01*
X115958456Y-94662163D01*
X116564829Y-94886280D01*
X117210810Y-94861288D01*
X117691544Y-94662163D01*
X117835282Y-94442715D01*
X117729304Y-94336737D01*
X127395697Y-94336737D01*
X127508821Y-94530204D01*
X128024549Y-94712534D01*
X128570794Y-94683624D01*
X128941179Y-94530204D01*
X129054303Y-94336737D01*
X128991932Y-94274366D01*
X133916074Y-94274366D01*
X134107426Y-94647625D01*
X134427052Y-94919244D01*
X134655636Y-95013913D01*
X134821000Y-94952734D01*
X134821000Y-94109000D01*
X135079000Y-94109000D01*
X135079000Y-94952734D01*
X135244364Y-95013913D01*
X135472948Y-94919244D01*
X135792574Y-94647625D01*
X135983926Y-94274366D01*
X135923496Y-94109000D01*
X135079000Y-94109000D01*
X134821000Y-94109000D01*
X133976504Y-94109000D01*
X133916074Y-94274366D01*
X128991932Y-94274366D01*
X128225000Y-93507434D01*
X127395697Y-94336737D01*
X117729304Y-94336737D01*
X116825000Y-93432434D01*
X115814718Y-94442715D01*
X112467978Y-94442715D01*
X112468000Y-93980034D01*
X112467997Y-93980017D01*
X112468000Y-93980000D01*
X112468000Y-92989829D01*
X115188720Y-92989829D01*
X115213712Y-93635810D01*
X115412837Y-94116544D01*
X115632285Y-94260282D01*
X116642566Y-93250000D01*
X117007434Y-93250000D01*
X118017715Y-94260282D01*
X118237163Y-94116544D01*
X118461280Y-93510171D01*
X118446361Y-93124549D01*
X126837466Y-93124549D01*
X126866376Y-93670794D01*
X127019796Y-94041179D01*
X127213263Y-94154303D01*
X128042566Y-93325000D01*
X128407434Y-93325000D01*
X129236737Y-94154303D01*
X129430204Y-94041179D01*
X129555903Y-93685634D01*
X133916074Y-93685634D01*
X133976504Y-93851000D01*
X134821000Y-93851000D01*
X134821000Y-93007266D01*
X135079000Y-93007266D01*
X135079000Y-93851000D01*
X135923496Y-93851000D01*
X135983926Y-93685634D01*
X135792574Y-93312375D01*
X135472948Y-93040756D01*
X135244364Y-92946087D01*
X135079000Y-93007266D01*
X134821000Y-93007266D01*
X134655636Y-92946087D01*
X134427052Y-93040756D01*
X134107426Y-93312375D01*
X133916074Y-93685634D01*
X129555903Y-93685634D01*
X129612534Y-93525451D01*
X129583624Y-92979206D01*
X129430204Y-92608821D01*
X129236737Y-92495697D01*
X128407434Y-93325000D01*
X128042566Y-93325000D01*
X127213263Y-92495697D01*
X127019796Y-92608821D01*
X126837466Y-93124549D01*
X118446361Y-93124549D01*
X118436288Y-92864190D01*
X118237163Y-92383456D01*
X118129998Y-92313263D01*
X127395697Y-92313263D01*
X128225000Y-93142566D01*
X129054303Y-92313263D01*
X128941179Y-92119796D01*
X128425451Y-91937466D01*
X127879206Y-91966376D01*
X127508821Y-92119796D01*
X127395697Y-92313263D01*
X118129998Y-92313263D01*
X118017715Y-92239718D01*
X117007434Y-93250000D01*
X116642566Y-93250000D01*
X115632285Y-92239718D01*
X115412837Y-92383456D01*
X115188720Y-92989829D01*
X112468000Y-92989829D01*
X112468000Y-92057285D01*
X115814718Y-92057285D01*
X116825000Y-93067566D01*
X117835282Y-92057285D01*
X117691544Y-91837837D01*
X117085171Y-91613720D01*
X116439190Y-91638712D01*
X115958456Y-91837837D01*
X115814718Y-92057285D01*
X112468000Y-92057285D01*
X112468000Y-87000000D01*
X114929599Y-87000000D01*
X114929599Y-89500000D01*
X114973737Y-89734576D01*
X115112372Y-89950019D01*
X115323903Y-90094553D01*
X115575000Y-90145401D01*
X118075000Y-90145401D01*
X118309576Y-90101263D01*
X118525019Y-89962628D01*
X118669553Y-89751097D01*
X118720401Y-89500000D01*
X118720401Y-87000000D01*
X118676263Y-86765424D01*
X118537628Y-86549981D01*
X118326097Y-86405447D01*
X118075000Y-86354599D01*
X117808000Y-86354599D01*
X117808000Y-83282172D01*
X117932383Y-83157789D01*
X118498399Y-83158282D01*
X119098812Y-82910197D01*
X119558582Y-82451228D01*
X119807716Y-81851249D01*
X119807718Y-81848399D01*
X121541718Y-81848399D01*
X121789803Y-82448812D01*
X122248772Y-82908582D01*
X122848751Y-83157716D01*
X123498399Y-83158282D01*
X124098812Y-82910197D01*
X124558582Y-82451228D01*
X124576532Y-82408000D01*
X129025597Y-82408000D01*
X128967197Y-82548644D01*
X128966804Y-82999379D01*
X129117000Y-83362883D01*
X129117000Y-86042828D01*
X128467617Y-86692211D01*
X127901601Y-86691718D01*
X127301188Y-86939803D01*
X126841418Y-87398772D01*
X126592284Y-87998751D01*
X126591718Y-88648399D01*
X126839803Y-89248812D01*
X127298772Y-89708582D01*
X127898751Y-89957716D01*
X128548399Y-89958282D01*
X129148812Y-89710197D01*
X129608582Y-89251228D01*
X129857716Y-88651249D01*
X129858212Y-88081960D01*
X130795086Y-87145086D01*
X131008174Y-86826178D01*
X131083000Y-86450000D01*
X131083000Y-84703000D01*
X132044250Y-84703000D01*
X133617073Y-86275824D01*
X133616769Y-86623987D01*
X133819279Y-87114097D01*
X134193930Y-87489403D01*
X134683687Y-87692768D01*
X135213987Y-87693231D01*
X135704097Y-87490721D01*
X136079403Y-87116070D01*
X136282768Y-86626313D01*
X136283231Y-86096013D01*
X136080721Y-85605903D01*
X135706070Y-85230597D01*
X135216313Y-85027232D01*
X134865677Y-85026926D01*
X133034375Y-83195625D01*
X132747910Y-83004214D01*
X132410000Y-82937000D01*
X131232859Y-82937000D01*
X131233120Y-82637881D01*
X131594379Y-82638196D01*
X132010955Y-82466071D01*
X132089162Y-82388000D01*
X134604250Y-82388000D01*
X138501645Y-86285395D01*
X138492000Y-86333885D01*
X138492000Y-86386115D01*
X138593469Y-86896232D01*
X138882427Y-87328688D01*
X139314883Y-87617646D01*
X139825000Y-87719115D01*
X140335117Y-87617646D01*
X140767573Y-87328688D01*
X140824828Y-87243000D01*
X143777957Y-87243000D01*
X144023930Y-87489403D01*
X144513687Y-87692768D01*
X145043987Y-87693231D01*
X145534097Y-87490721D01*
X145909403Y-87116070D01*
X146112768Y-86626313D01*
X146113231Y-86096013D01*
X145910721Y-85605903D01*
X145536070Y-85230597D01*
X145046313Y-85027232D01*
X144516013Y-85026769D01*
X144025903Y-85229279D01*
X143777749Y-85477000D01*
X140824828Y-85477000D01*
X140767573Y-85391312D01*
X140335117Y-85102354D01*
X139825000Y-85000885D01*
X139732946Y-85019196D01*
X135931750Y-81218000D01*
X145867828Y-81218000D01*
X148877000Y-84227172D01*
X148877000Y-85451815D01*
X148628469Y-85823768D01*
X148527000Y-86333885D01*
X148527000Y-86386115D01*
X148628469Y-86896232D01*
X148917427Y-87328688D01*
X149349883Y-87617646D01*
X149821231Y-87711403D01*
X150904914Y-88795086D01*
X151223822Y-89008174D01*
X151600000Y-89083000D01*
X155348888Y-89083000D01*
X155748772Y-89483582D01*
X156348751Y-89732716D01*
X156998399Y-89733282D01*
X157598812Y-89485197D01*
X157791629Y-89292715D01*
X166639718Y-89292715D01*
X166783456Y-89512163D01*
X167389829Y-89736280D01*
X168035810Y-89711288D01*
X168516544Y-89512163D01*
X168660282Y-89292715D01*
X167650000Y-88282434D01*
X166639718Y-89292715D01*
X157791629Y-89292715D01*
X158058582Y-89026228D01*
X158307716Y-88426249D01*
X158308226Y-87839829D01*
X166013720Y-87839829D01*
X166038712Y-88485810D01*
X166237837Y-88966544D01*
X166457285Y-89110282D01*
X167467566Y-88100000D01*
X167832434Y-88100000D01*
X168842715Y-89110282D01*
X169062163Y-88966544D01*
X169286280Y-88360171D01*
X169261288Y-87714190D01*
X169062163Y-87233456D01*
X168842715Y-87089718D01*
X167832434Y-88100000D01*
X167467566Y-88100000D01*
X166457285Y-87089718D01*
X166237837Y-87233456D01*
X166013720Y-87839829D01*
X158308226Y-87839829D01*
X158308282Y-87776601D01*
X158060197Y-87176188D01*
X157791763Y-86907285D01*
X166639718Y-86907285D01*
X167650000Y-87917566D01*
X168660282Y-86907285D01*
X168516544Y-86687837D01*
X167910171Y-86463720D01*
X167264190Y-86488712D01*
X166783456Y-86687837D01*
X166639718Y-86907285D01*
X157791763Y-86907285D01*
X157601228Y-86716418D01*
X157001249Y-86467284D01*
X156351601Y-86466718D01*
X155751188Y-86714803D01*
X155348289Y-87117000D01*
X152007172Y-87117000D01*
X151185288Y-86295116D01*
X151091531Y-85823768D01*
X150843000Y-85451815D01*
X150843000Y-83820000D01*
X150768174Y-83443822D01*
X150555086Y-83124914D01*
X146970086Y-79539914D01*
X146651178Y-79326826D01*
X146275000Y-79252000D01*
X131014359Y-79252000D01*
X130851097Y-79140447D01*
X130600000Y-79089599D01*
X129600000Y-79089599D01*
X129365424Y-79133737D01*
X129149981Y-79272372D01*
X129005447Y-79483903D01*
X128954599Y-79735000D01*
X128954599Y-80642000D01*
X124577060Y-80642000D01*
X124560197Y-80601188D01*
X124101228Y-80141418D01*
X123501249Y-79892284D01*
X122851601Y-79891718D01*
X122251188Y-80139803D01*
X121791418Y-80598772D01*
X121542284Y-81198751D01*
X121541718Y-81848399D01*
X119807718Y-81848399D01*
X119808282Y-81201601D01*
X119560197Y-80601188D01*
X119101228Y-80141418D01*
X118501249Y-79892284D01*
X117851601Y-79891718D01*
X117251188Y-80139803D01*
X116791418Y-80598772D01*
X116542284Y-81198751D01*
X116541788Y-81768040D01*
X116129914Y-82179914D01*
X115916826Y-82498822D01*
X115842000Y-82875000D01*
X115842000Y-86354599D01*
X115575000Y-86354599D01*
X115340424Y-86398737D01*
X115124981Y-86537372D01*
X114980447Y-86748903D01*
X114929599Y-87000000D01*
X112468000Y-87000000D01*
X112468000Y-83889732D01*
X113006959Y-81180201D01*
X114502284Y-78942287D01*
X116740200Y-77446959D01*
X119449732Y-76908000D01*
X165030268Y-76908000D01*
X167739799Y-77446959D01*
M02*
