M48
;DRILL file {KiCad 4.0.6} date 05/20/17 00:50:36
;FORMAT={-:-/ absolute / metric / decimal}
FMAT,2
METRIC,TZ
T1C0.600
T2C0.700
T3C1.000
T4C1.300
T5C2.000
%
G90
G05
M71
T1
X130.1Y-80.235
X130.1Y-82.775
X131.37Y-81.505
T2
X134.95Y-86.36
X134.95Y-93.98
X139.825Y-86.36
X139.825Y-93.98
X144.78Y-86.36
X144.78Y-93.98
X149.86Y-86.36
X149.86Y-93.98
T3
X118.175Y-81.525
X123.175Y-81.525
X128.225Y-88.325
X128.225Y-93.325
X156.675Y-88.1
X156.675Y-93.1
T4
X116.825Y-88.25
X116.825Y-93.25
X167.65Y-88.1
X167.65Y-93.1
T5
X129.54Y-104.14
X154.94Y-104.14
T0
M30
